<mxfile host="app.diagrams.net" modified="2022-07-19T09:22:01.115Z" agent="5.0 (Macintosh; Intel Mac OS X 10_15_7) AppleWebKit/605.1.15 (KHTML, like Gecko) Version/15.5 Safari/605.1.15" etag="jF3hJlFnCJRI7RLaeKWz" version="20.1.1" type="github">
  <diagram id="17C_AuzJ5DvvGGkMmhrv" name="第 1 页">
    <mxGraphModel dx="1602" dy="862" grid="1" gridSize="10" guides="1" tooltips="1" connect="1" arrows="1" fold="1" page="1" pageScale="1" pageWidth="1169" pageHeight="827" math="0" shadow="0">
      <root>
        <mxCell id="0" />
        <mxCell id="1" parent="0" />
        <mxCell id="Fvsey-Ng5_NLrlT-ufVr-17" value="" style="ellipse;whiteSpace=wrap;html=1;dashed=1;fillColor=none;" vertex="1" parent="1">
          <mxGeometry x="325" y="390" width="520" height="300" as="geometry" />
        </mxCell>
        <mxCell id="Fvsey-Ng5_NLrlT-ufVr-1" value="" style="shape=image;verticalLabelPosition=bottom;labelBackgroundColor=default;verticalAlign=top;aspect=fixed;imageAspect=0;image=data:image/png,iVBORw0KGgoAAAANSUhEUgAAAKAAAACSCAYAAADCfcGLAAAAAXNSR0IArs4c6QAAAHhlWElmTU0AKgAAAAgABAEaAAUAAAABAAAAPgEbAAUAAAABAAAARgEoAAMAAAABAAIAAIdpAAQAAAABAAAATgAAAAAAAACQAAAAAQAAAJAAAAABAAOgAQADAAAAAQABAACgAgAEAAAAAQAAAKCgAwAEAAAAAQAAAJIAAAAAroBKzgAAAAlwSFlzAAAWJQAAFiUBSVIk8AAAQABJREFUeAHtfQe8XUW1/ux9zrklhdB7j4YO0oIoArHh04f0FECfqA95+kRQBElAr4SoiH8L/uSJIEFKKoiICkoLvYoIhC5gaEkQQgjJLafs//rWzJo9M3vvc29u7k3BzL3nzMxa3yqzZvbsNnufSP0bp45Ztw1T9co6La2VYbVGPDRp1DcsR9E2DaW2VCraPE6ijZOosVGkonWJtm6s1FAVJUOIV1FRFEaurpJkqUqid6I4eTuJ1KI4Uf9KVLwwitWrJPNyLanPi5N4YbmcLK12V9+ptDbePuOwA5aEiv6d6pkovpsbf86MB/aNo8ZBddU4kAbKTlEUDaHB1U6DpZ0C0RaXStT8hP44ky9FGBpbSc6YA5CSMxgRUNLLZP5CmT74Q2o06ih14UN2OskafeKnS7G6i3y7/fTD9r2bgf8mXzoq77LGdkx7aMO4XKOZrLGDqkcHJ1F0UGvbkFEYC0m9php1GoI0ELzkDBqnaCEygEDI4zMwYGSCW8CP41jFpbIqlWlipXL3siUvkJXbG0kyJyqXnmgk3fMmHfb+BdaZd1EhE6M1tW3nTr99q5oqf4FGx3E0V21MDWunmaiC9mD2og71moax4FMctjNQnKIDgKyWLuKHozRjKxAM+RiIoCVJo0ZZZ5LEb6i4MbOWqIvPPmKff3jOrMGVsN1rTFMmXnHHZuVSZR8aXB+P4uiw1vb2rRq1mqrVqug13Q7q5GwDU4qMgZQSNN8ABBdwuSoWCjEBw7MV8ES/i5HdOXLMkKVyWXV3di6g48zraCL/cykpP3DGUXu8LLJrWu62dY3wvWPanZ+oqaiDOn5PGmYVagB1jW5GQX/qdlmU20y/+ZD3KQ7WUe4UHcAKzooFSkN/ZEAawzhgpXAkc6MkmnzGkXv/1nNoDaiE7VstXZ54+R2HxHH5iCRKjm5ta9+gVu1WSYPOS3MSBmNBX2q0YfoND2qm6lONMZEnJibafFt6k8jnkZ6AkbET8GHZxQSDkI8bK5VW1U0Hj2T5mrikrlk2/O0bO8aMwe57tU5uu1YrR2fNSkqP9tzzZXJqMnX1COtc0DlB1cJQGKjBWBgkY7w3H9iXIiWBcAYW8HW78K1TOBiFTjFbRgN9SldP2486xu7Sk9JXr1KmvavavW9dOWffuFE6KY7io0stLevUqz18EpHTD9mZpKA1IPOcVMDnNhsDPsSvxX41GyrSkeunQbIP8KVIT8DIwAI+1LoYfzBGqlypqFq1pzNK1G/pWuRFpx++953GldUmc/1fZU4dM2tW6T2dm42kIP2mXG55fx0nEgUppw+8Hs3lO7pW1qwIk0W+DPRADDvRH4i68TiBadSqj9fq6rj3NvaaO3ZsFFyHcoK0Eouh7yvRtDY18cp7PpLUq5PoQtgYBA7HdnAqL4ihc7kdHBCDqqei18EINCnwgxTUqOpTHBOOcafoACCrpYv44SjO2AoEQ74bR1zaQaIY39OIo/MmHrbX7z1nVkEl9HdluRCddfnt29Yb8W/KbS0fqvXkH6LAOTeARc4FfcCDxsVm+C4TNvDXLBLEzLJ9CuR9imPEUe4UHYD2AYQifsjI2MoRDDFuLMstLarW3f1IVErGd/7tj892dHTkn9V5Xg58JfRx4C0EGn8w66YRi7oqF9Nlg09HcalVzmatIzmBhArwGVPAFzO5bIfoFEXEy3sdjPAjo8R6z7qE7VONGWGyHkMLMhnuDtRHBIyMnYAP4RCDNmBGxIXupJH8ubvW+GLH2NHzfUODXwv9GjSLX73gT61Dhw+boOJoKuJDDXdsaTc8Z3KCCAFgsgPAUWWKueIBMah6SnodiEbY8znoZkB8vmNCjDfByECElMAdDRlixlaOkIuROCIv0zFitd59SmnxG5d887OHLPXsDGLF9WfQzHxjKp3ZxuoKuuO5g74t5nRMpgO0S55jOYGEs8BIEJs5nyseEIOqp65/gxEq0lZAf1rz1OuKcaDIj14HI5vzLXi1HMUuH3HEjNioN14kVV8488i9b9WODe6368OAWzp11j3tpSU9/1tuKf8QCwDykuuAHyPNcfn508DADUTfftbbXgciRNCRnmhQo6pPccCOA07RAUBWSxfxGewwM7YcHrAhX8+GLTQb1qbE0dLzBnu5WGjfa+yKVL565W1btlejW5SKR8nu1rbdFnwLrjM+JOXYkg+wisBfGbNio5GoOh9FJKpUol2YOcO0jqBAPlp/mRHUqOpTHGmnfU7RAUBWSxfxtcnUQloyanIEBWOOD+dVyi2HnHbo7k95hgewIvYGUKVSp1065wTqkEtpORFfRHaVe232KilKnMqyheN0XBbEigTZ22DMFXeITpH11mngbbruEHXQrluqnbbYgGnPvLpIPfTcAvXCwsW8llBsa0dkmHDNfHkInth9ioN1HHCKDqAPAzEQzNgK+FDOGKKXKy2q0dP9tTOO3OcCz+gAVTK+rJDeJIlOm3rbDTTrHUKnGTlbt2/Oa7dXSb0QiSxbOCtvMGLw7TNyE3X4+0fSuVRqH97i2PbVN5eqy+c8obp6aH1AwLctIrovGdRM1acaaUenU7SqUXC152ICYsZOwIdOtDWJ6vd19ww9aKBv62Xsw2B/0hmX37U1LRKYTYsGRsulFdZDFrJGfIrXZq+SeiISnEtFDFDuk7xaqsTgCgeHQYYuYOBtMLxdfWzPrdXu22zk6QsrmPX/+OAL6sF/zOfBEOpivCFmvXQoVETNofimREcBoNeBCG2Bc56qkIdLNo3GXFrPfczZR+79pO9M/2uezf6qOWPq7btVq7V7olI0zNXhBoHpZC1r0Kd47fYqqWZXwoekHFvyAakSKgHT22DEgNptmw3V0R8cpSq0br6vacFbS9Wlt8yl2ZC6zDqTI22YWYhPaXofWnT4ItaY2w+FvgQMT5XLS5JOWr390W8dvuc91sAKFDw7/dFz6q9uOSKOo2kU5TbaD2kVgVY3AGLDbZPQwuHJavCVD/YGsw9JHbAlH5CaZPXkIXx3MDU6w8Cs96l9t1M7b6WP9TyhPlSqtYb68yP/VPc+86oqkW5e42wdylFg7KcQlBBTQ6EMJVPzFUDWtMFphoeRfnCgHt9WMn5YDhmnjZCClTSiz086au/LHE6/irlt6aumb1x02+FJ3Lia8Hiah1PujOJYkSAIHtF02KLFsqVgg2oLwtG5qyML0VyLyQJYCfji//u224hnPd9K/2o4Npx66+Oqu6ovRSEGBS6kBghg/bXUlAL5tGYBuuAod4oeSLQX8RnsMENbFCc6yC99/swj9rzMU7yclVBvn8VP/eVfToorLf/nPtwTKpPO9JQ6IAmC5RPPYRtyDkVIToCsDiqAjQ/PHYK1AE2wZEcHLq1suE67OnT09mqHLda3EgNR6KLBd8uj89TdT71Kl2ysdfLTRCElZc2Rj1l2SkET0lpWXEa709QApPUX8wnuMMUWzpCr1e6Jk44a/f1AYZ+roqvPAgB+/Ve3fjpRjeuskOMcaKHSzEAMAJnwEj+AZLR6Jr2K9crT4UNS7bZEgF22Wl8de9BOdhZMNQ1c6cWFb6ur7njSzoaiGTHwfRSOkxPA+svkoGaqPtWXR63Ijqs9FxMQYQd9S88Zfv7sI0dPdSz1uVjoa5GGr/3yps/G5dJv6LnGIojXwtDAYAxGOOLFxqukboovLrtW12e4Yw8YpbbfdN0UPIilTrpMc/Pf56l7n6bZMOfERjq2qQvUCGlPiksp0saUkqK4ZACCC7jYHCypCCNBx33knmrPKWcfPfpnVqiPhdRKHwROnXrTbqqqHqJj3RYxXqgg8NrFZQah2HZAbgCYTTyHbSRyKEIK7OeY4Cbs855N1VEfGCXslZrPefwldRMNxJKzS3YdQAwKmqFhhilNTmV9SoF6X4cvYlW5/VDoCxi4VJioD008avkerO/zdYVTLr5pp6QnuY8stbB3OOOiDy7A4lgLHy8ZvpwZC4ZzkQPGTQ4IWt0/GLAqrYwjYGgWQ8dzVsDitZ+QqhNw241HrLLBB5cO2mVLtf4wffEgDAX4aD8uA+k7SqAEyTSW+4DKaJdOflwQChsOgUguOghgisLh3O0D4SP3EjPo3Fglc7732/v393i9VPo0AE+86PohtGbsGjrtGYLGZpLxTJpdxBe6i7PBC/W6IBJ0w4tI6zaLRuSBACgGlxZcfN6M6vMHu4YTE4qrNROGwDKogPbLQCzEEUMmhFQ2jQuXEBPWlyJsyShGlmcDPuAPKcNnIVWu16MZP5j1UPoQmVWeXyjnk31qW6Pld1GptBPOeLV56ry86d94xRhnvraze+A1vTLDGkLJHdyi3xoEn7YxSbxroKql8F4AXEuhstZvzVJBTOL20nMLFqtf3/SY2n/HzdW6Q1utpHgFuR5z6UTsSo6OwGUVdxclPMyuNV79YzU5viQKx4CvvPGOwgnJW8u6jZdaOryBKf6KbncAiO0Qg9Fho0BMEwVRQeyUIrLiqTuy0H4JmOCgRLQzHxBjAZhyqbR1rdHAUq69ge0tWbtFwK9eeOMppUrLTxr0TpUw2UFCjEJFxvPe+KI7xLk2GBMApPEiL474ML8GrAQUMa7SRWcJJnibrz9UDWnlt3qwOsGCJy1ljVatLWgIUG67iY2BjEHHfUp8unhv7yf7+o2KgBhUrR1d0FFoiiFmjpdWj8hmMb4/grOCwna0l+glT42kPpkuz3w7xIX1QnsAnnrJjevXqhGWaZveyGuEVikBR61QqfG+kM/CKTctZW1oim8s451R4Ovxa4FJtc97NlNH0xlxFmUt9rvwhwefV3c/SXdFmpwVFHWw3WLQ5F6cQxyaYoiZVZFSuERfKSVoslFeZEPbxwamRp551L7PB9JetckxYBLRCwjujaJYDz6IYWrHx1OhK3IsxzBAczA8zRj5XD4LpxyU0hrMuzVjwAHBM/ljruH5Uo6AqCASVOMztLVcHHiD72+G3XydLl/ltiPwJWPDabv4msGIDkQB7SkEgI9IuQk1TeESffGJiwuRsnGgyA/pg1qj/sAFf3q2VcTy8sIB+L+/+PPJ1BOjGrjel/qmdcB5+RBFuy2sLM/lM8o2QAchVK+jR1TgKAmfc7FrcgaEIJaRMECPVsVmiwQMHTYGK4l92EjPbvMtMtbxm30KiG419JlbTwA5cQn5os/tR42BP/LRccNAzB2MxgGcSIW+6I0s2mDxkjfPzLVtiLkD8NQf39NOc/h3xSHrji04KsUJhyRF2zjC5IkyTjynCjCZJHzklEI9YsOTC0DaukEQj1XmCoSnAB5ohSu8SzPtEGXsKtF0hwk1m7PPALvJ0ZXLN1i0XwaiI+Jq4qBwLD2qH0i2QfzQDRZxFDtFOthNJnVc/9CGnlqnkjsAq21vz45LsXMqrR1BQ7gkfrmekFUZDC5ZbAmPA0HEDIZbZ3QYfhEGIwg87+PYF5suABLyx3wSNiYZJjLLuovfyiCY/uaLlnbhuEgbdpRIO/QgIS/hWEGyPgskIARVT4u0v+lgJAXSV2LCjbTolxkxxZApYUKHmRVpwUK51Fn7s+eIU8kcZ371ghv3qMfJI8DgTK150nyLsgUjlXuwq3k4aUFDkYdink3DR0MzOOJxo5Hn8UEzPAbIV6DIekB0LEjYYcv11fpD2/hitYiEuVXBBVsLYewffMell6deftPzx0rl+Ugy4GuWRWb0g49+z6hwCCxdrIJ94itcvWAyxp0egbkm4rQULT7orHGj7wh1ZK4D1mN1soDQGdKBTnuETbke/9hxsXFdTT3BlgC0EXYdlK2c8xy+NeLogC5XB0ceQNMDYh4kwckgB80mARoQvOQWEB3XB599ZZEa1t5C6wDXZ7rArbwUSF6rsAVVoZXD5TKtHiYMeJ00o/79hdf5Uo9uZqotjZuhmTiIelDRNMQZuqQvQJGk+TYEQhZBCOk+yDfBeMQIbHpZgHRVqseU8vvJKCXv4AfrSEPh6aDLMt8kQmYAol020cPjGyWVysK8a34C4hnLkxKO5HY+0YQ8LAUljwwBN8hFGIlSb/zUIynp3LVhOY6ytkpZnXH0fmo4DcKBSG/Txeazr7pbtbek23sw1shMEJMsgF0RN3Pb4DibKx4Qg6ojrb1pxgfC/HtyTDQUyIu/La3tqtqo7Rwu5/eOAetx4yI8z8FbhGxagXrwMDMWsAmNrUlvUSyKzUI2FNFFwrLVCUly13YoJhgxnqeaMXDOcTDEuTZSnVQyBnXgJHQW0e8CZlPxwZhg9xwX2biHCdogxi3GFxa2zXPFA2IzFejBpseKaBEpyPajtFB3AQ0VbjutG1RJd89U66Ap2AF44k9u3KyRxIe4C0ylo5CHCTQ9EOFEyEUdTZA/7Qx74mKlAcgDFWLbPWnxMDBqPoxli7qxVpWDAQ3y8uE67JoP6pw8I0IcgBy+mCQ+cE5f4mbqnY6H5nsAUcHtQGz0IDEYy00Lotsxnxokosv3MNZX+CJ2tGiqXUDQYz5MYs+phFzL1OluUyOK9pg84+6RTDRfdgCqcu0A2ubpR1jyEwzkJd0AGYx5CNC0Q+KWqfpgrwEhSzcu1eTzuaYd0cUcto204VlfpG7sWwUDNwHq3RAbxJefXD/QhDSlHFuSNvpADiddrbWDINXhl0TcowbEoOpDyRL/eX56EB5tMiFojvUeh1dt9ST+mCthByAdgJ6kjaed7QJRtqMcwJwEPmbF4l20dsY0g8dEZjCSDmsnsGHpwBBPPh4MvokOg8njs/EcPbCBB5KqBYsQPF19rLz0+hI+tmXXeJ+kfXTFpS1g+xDhBG1mZb4eQcqsiLbkpRxRjpnEBDK5GKMMnnizb4ER21/MR7/SZhKrr7pw3s47Zs1tefOthd09XctcHpd7P9htPlVAvreDWVcDGtZGB+s4AWip4Ka2Uove6VI99GpPFyeOin95PMGIA4WYHAfxBNt2m46goNEZaA7fJxVq5ltvWPVSynl1h9VhC9ZjHXunmoVom9ayA0AM16H4YUEFBsvSzqpaRpeBwofpHfUSIpdEZxBWu/bHr3pYnEIFcI8vCtqHDlO1ziVbnjX2A6+Axqdlr7z8/P+0trdlBYjibkV5HdEXPrYmJMhnndRbNvg99Bjjh/fYVn1sr+3UsLaKaimX2P486sALfv8gX8qAAjcOYh8mXP9cDCmBep4xxYE8PoOMg3Qqpv5Jdo+k1dJbbDBMyzKg71+Pvvi6upkey2yhyzLGuhHW1iUu8M/GxRZ8CWDFZw1x2gQOdJB2DD6s8j509EgdPwzArqq67dGX1J1PvqJa6BEAN07SGuh3E9twiUQIqi6crGCG06TCwUiAnq4u+i2X5FRCngY0D0D6oZfP0susuRFpJLQy97toNhCMDAbU8xupnQwHIm7QbzxiqBp74E5q5639Nw8Au9VG66iN1h2qXn2DftePGoFZEdGWDrH2NVlXSS7kM8NESdYiZjDCJ/D2m62r3k9rBfubtia/5774L/WvJZ2Bv9LbqXVjlnyWXkx5Yt80O+1oC9EyGIKI10fft41qpb0HEqKAvcmn9xupRtKMfj2tyHlraTevyMnrI2uLVJKqNFkHNRFVj58i7WCUHnBx/P7vKDqc4HoAnvKTa9ftjNQWdvAYQ2zGlTQGLM7Uixrh4kIMeNIeLN78z33fqz6xz/a5D+jADO7I4FFGyMCl7Iykm/rmO532TQRsI/DRjac4wF3ntNNiyJg9QDZ6+pPZu0lkiG1BCRnRdixFE+lb4oKC4xY3HG3qoeNTSeIrZLCHxwNOeEuXG3vBIt+F3vAwih43/dNf9bIw4EVH2EfAW1+obH1xiHrOBVInizF1zIpIEHEHI9lcr2PqbZt2nDBmfnlpo2VjesZ4RFZYS7KDIZPV6i9pbF4DBAZMyMesh5ntmAN2UqO27P3NA2jKiCEt6uxjD6CtO72gKzYkP/+a+9W81xdzYDddb5iq8O7PBIAag0DA9oJFS3l3xXISVGon7KDNOnSidUVydIPWJp2AKlOMIYR33WGtbFdbAkMnvOhoKd1NwcNzu2+7kfr06PfwK0LEPwwirC/srtbU7Y+/rOY8Ns9YEw1+jngctt971Hs3W48G4gvq9bc7WZ77iKBhP4m0EyIhpSPUjI9cjEFLDGhZO1GSEaVKK3Z188uNUm3TUlxpw7IrabY73rihRjPzXWbqirfV5TVCBipEqrRc/bD370Cz3sjCWc9RzUW82qKN1urRku+Q5dWx23v2lTfUZz6ymzpg5y317tpDoJKox2jX+JtbHuWRgLPeMIGCgbqiCY991ujY1gbXKMQvZJaIiBlr4rj96S5JfrswaC+9+TH19Ctvqvdtt7FahzbCvIQTjoN33Ur95W8v8lWIPIxL23nrDdR7N19PXXf/c+qBZ+dzP6CvpZ/Q1/n9mGqxQ0FGnmG5M6PFWB7tWeh3cWuqjkcRH6M9W7wn9wLVZKuCPu2AkbLCADnqQ+2CkwEb8HEmi13A+IN2UVvTE2mDlfA2q5H0jC8CSO+OzEmR2oTe8YfO3ZaOi449eBdaiJquuxUB2X3qV2pIdISbl6fGcMaJ2earh+6Vu6jhFTqevezmx9XmdIIzvD1r29W+/SYjeAC6tNwyme+LlyIL//DSJbx86foH/6EWLu60EwL0yGAsOnt2x53X1TyAdCwE4/L1bBjhmZFryhSd3VSJzYlflOtdEesxVF+BIRLAhtwFWHYaDmzxxx28qxrzvm0Nd/ky15emkqYpuBbZLDGMlO5Eu3+8jqNZOmfaXbSahZZp4cU8lGybQyFm4Fg1UTuS3hM/sQcvaghhqI8Y0sqfvsyyekNo3p48G32lYfUPPpgN738GT2D4CWfWSGhe3qwInoGgSJgsweNTpRHVdwO2TGeDI1nabZ/z9BmGGPShP9kBSKFgkhUjpewcLDmDEQHeYYsN1diDduZjPpFb3hxb69Jua61QXB9x2SOOQhymit61aXEMKDSLFrkxgeWojRxnothwMEPbltlDa8j/RpiqtFfoU+qjs/SScdoF9+/QAceG2HD+SLPhgreW0auH/dMwDgH6mRzmNjv97LZBhoDkdnQaPMYS/f7xeyBTpnBt7fYEh1Uay1akM/WsyIYMP7Rvgw4niYld4YG7bquO/8iurn/9KrMr/ZJsIkR+SlOboPIxIkvtFB3WRyYItVgzz9L5xwgZod61aRHg+orNGCHCDlusp0ZtvrfCA1T30ouUbHI6W2zwK+0IkDcrYvAhIbeiLlGprcGPY3ohFAqS0CXyxy0Ra6aiebqReiRrIyIvOQbjx/fafkAGn+gcnNxEqolytAW7IRsKF4ugmo/we9eoFWDAygvcXZUrVIYvK5gwoHAh+2Q6fsXdKNbotFPUS3sRG45PgW1XVCDUdl53ENMV/3UkgKJYcjsQQRBrzEwrUhIjIotR/z56n/JAJQ4ERnxvqQ8Qq0Kct4T8gqiUGb5QzAmCyORr1FTsKPuCA7pg+GtFzjcGAvY8A5E2XW+oOmCnzfneuNdmp52uHWCaDUTBQlwS7+RFOQc4R7kMRA6CBUNFWpGSzIo4DLn+vmfFzorn8Mvu44rVAdbbCYhI606VWt9yxMh+SETa7UnnxNDj96eSa8hX1Ifw+AK91HB5Cm//188xawf0WDAbjrQTuZNQ68usCJE4kE0DKsodxShqB4xBzy4qmiClJ+a9rk6+8Eb12AsL+zwoAnNOdTnDu5xwx1CmyA/YENVrLuoUI/vJ8PvgAMc4Yy5DCPsoA3AIjA0ddfh9LeJRgkvotSWL6LYdku+D7mHp5xwAk1iOvprNinQSougXoel1aybJAaNtA1m2oRQmYTEQOVGmzwdFgZXkg1O8gOeC6x7g639f+tTedCG16XPKRkk2w1mw+yKfLEJTrF9FgP7QEQDTA9w6EwcbF2brdutvl9PcYF+RPNCbqzJcvLMm+xqVPoka0CPPL+Trgm939vAKGulRhED81SEI2uyOFejyxoveYJnMLK2pTIF9iy7FbCyKTZxdWRlq+kXegWJUpdPzzqA1PFLP0JX80y6+WX3xE3uqfUZt1nRpEGTChLZIIEKeW2ccLpdIQ1xmUIa+vuhcp62VV5ZIjEQNFjSENPAwWNrprk1fEo4D+5L64qfo6UPTBerlS2jAXXfvc/wTE2108uFfhNFQ+IE2i410jGkPZbriuGRBrARIYnHTKUrJa3R/bmMZRBh5rgFIiBEbBJK2gRcmlDrdiSesbKLrihqWqItvfFjd9Nd11cmHj1bDC24rWTm3IMa5UY5uF0PlNrqlBWjR1XsXjhn1r8+9RitetlAj6LUZRekbR+3nta0I59Lz1v+5/Hn0q0qLaJUM7lf3ljh20pm9gdH44vAUSuOSyw20SKGzu65aeRmchqYXmaBXK5auAAJuiTnpY6bjy3Dkco0mCTp5HXW6EB2/SCN9D9s+KrAB0mahxqKxz3rECavcZRJCBmM4K0LniwsXqW9ecrP6r4/trvbbYQte7cJKm3xVsDiVBozYbQLl+6t/pfub69CzvbiH7MrAPo5JnqH7xdD28utvq1N/dROvtpGNDzlmsb1pXd2XPrlXn2ezPJ/OuPQ2fiaYeWRcYoqfcMCSqcXLutSbS7oK7/Hi9iUGK5LIciXnC3y0FQsY+pqw2PcPD/xDPfz8Al7koLsxtSTjgumoaICn3sbXFFKIJsh0xVpJB183jNQLUIJd8JN0e/gw7bqjl4BWMWnkxllC6oclQbGIpx5wJ1uymRWhrUG7yal/eUTd8rcX1NeP3F8NaWu+y4LuRbTc6oX5b6n3FrzB/i0K5t1zX+JrVzc89BytDPmnbqw4IDn5imNTJATDfVzSQsjH3mYxwTbNyXEnHBYq19eWdtfUD2bfaxatWrYpIE76fYLwk9cVhhCn/hr9HESmHx1+WLz7iVfUnx56nt9zqJdxEQL+pj2vCfRNbuiEfrYdDXZacSBQw0mzNUd/g4MNvME/gFhWtejvqkIE2iM7uoy4ycgoCxNAFItDrow40OdZkZS9uOAt9bVf3qCO//Du6qDdt/HtBjW8Y2/K9DvNYkvtCX8bp7CiGrOKqfJD4by1BXrCah5Gzm5D7HLXETsEy4kddDDNKMMsV/TIAUNMkK+99xn1CM1UQ1poqb0E2+io0stD//HaYtr4mm/IgGMp2rV0iWzuvH/pWLpBJL2YJySG6YB2KMY2u2XaZtywmXXPxTKXCHRI1qipv6Napr3a03Gdeo7ew+Y2yvUp1erPiqJP+DIYU+O9zIrwhRsbqatufUz95eF/qNOP+QAdj2UfD8DQh148L5KX4K+sAnb5bkfnDTRgizC2Ha7C5SzbkwwKrtVHjU67M7UPvvjo8mW04aQAjwlI8jCQBYPsYE9QlPCIwF8efoFnVhzrsVMk6HjHb0iwvpIi3a8ehdXb8WIK0v9GQGOMI4CIv8jpDuSDYJVb4trr9LjKEnJcr48yWticsWkVG2WcGaPumaA45OLF7aJZEbrQeHTJQtoyJ069TR3zoZ3UB3beinel4OM47ZHn5+tLAmiItARMk7S/ZsDnAQhXNNBEB3LBwMRTL72hbqZDhA1yV8voha3SZlcH66E2PUev+Fi6rEcvcXJ9JiE3bq6s2Be+K8Y4MUhttLF1FGDlzE2PvKh2o7WD8mYHXFB+jn5S9iYafFgrWaGBJwNd6zQKjDHpD1HLJg1PZ2IZiNRD4Dj0uBsBctAPIkULJpY1VJmX3UQnXvRQpXvxS89R6Lf2t8usAjaX2kPVT2QwZAc+MN5i8piEgBawNlxnCD/NtbSLnlexSUuLjgIVjGZMM4DR6XWGoeEseqMRQ3hFSLZV1hkTY+1vSk1Ly+iBoPA90HlBkvakkmnJ9S8X57RR+JBZj9/Ar2dEDGg3uTVXv8W4ACJ6MTC8AMIoK4+aC/Aq6jVVL+3wwy8csIQhn/3htTNovd64hI4jJHkGQfQVMCyHJOKMd+0XqEj7IkcZb1Fs2mgKFRppkJmV4TvuFDmQQriEzsDq4o7jDyxcyxeI9Fq98/F56qrb5prHA4LI5vicOyCMFfAggtkkR9TvJzN1ZUIbEESP1RvwQ0NeC4yw6EiD4VNYJZHoSI+uZqg5559w4Bhgzb3g5P9KFTxDqhsGBqZh/NmExnCDLIWrAcljYnfiaMjFW5ui31EoTlstFixmtHZ841hLVAjXzVm0GcCA4TPufQ6lx0IHKm27ybrO8n4dV+05WWDHfEsSN4tx2ODhzBgpj2+DAAwC6I8DrQk8o8PVI/pgw0uoOiSvBYbHKjNCKYH51EmlcgsNuuRi4fAAvOL0I2+vdnXSM486iT2dizmdew0UPAHZAATCRAwOKHLDEyxySSjKxypzAK4XFsjyIiUIXOfTH7EjNpAzmhgcZEe/ixFcSFuhemYgiL/IKaXN0GaM8xw7w9YMYes28H3WHD6jetHhxtk178bIG4wBKGgBt8GY1G3KNIoW4HZ3qfNOOGiatIUHICrUkIus08KlXGwKyYRLV8WaMIEnAXxyEzHCgObhPZs5yryGe2BYTY1LKc+GIHsbiLntWE4ixl6DHk4qTtIigwihpgESu1AP0wkDsVDUYk0cCzFBkFyc6Le6pOAYC1rAjrg6QMCETLgrRRy5HYBxVJpNhqosJM4YpwEUZToXc6iBSbl8NMVWHRWGk+IloKwzqyK1KbpzlFlPGAPdMMMaOdd8Q8mxYdEkD3/gOPK+3MqDbF8SHgTHsRvu5PDdHLaRJ2lbw/FzmpGCjX8Su5QB17XvhbMi8Vmx6CBhRMpLDgZ08O1H5EzOcpbJNcKmfyIoKunmQ4NWQF+mkfrbXlSb17nuw1u3/ut1ujXHrwKwt3JJmvcefEAmRtJDC5hDsgemsMaEdJ+TQ9IYfBumXHZwSLzFCNBoLVwQwXLiizhvXdDSpiXcniKfgHyL3uX8/Rl3qV23pQW1AhRH3FwHJg2Gy6My2O/QDf476EcJ3WuUWiUsaQed0DoagsjaALgQgyEFtqmGzRsTyo7yEMNtI36ealYjbTc6QhxseCdMASBoAcUyWvTOEHW/cZEzz6fP/vC3ny+VW39d6wkuZDooLjqNEmUOhILh1giRhw8gokd7ldGQpyK1kqNf9FlNGXua4JKhBtfRRo/aQj/8HXSA6MzLXT0en5TipAZ3Hd7EKzoKknRkk6aQZOBznlFSkEeGWbHBZXzlJeNAkY6wI0Kca4PVG0C5Qr+RUu357o++MKbDNRuNmzJjr5mTxj8sxON/cM1rJLOp1L3csZYxZIAOhCleOHKim0NKTeYEMw/v2cwB+D6k6nVJS+Mbu93Tjt5fjaQHtgc64dni0399Cz8FVxQ72BReTjMcl7wWybhM+UbYi0vKTW04tEyxFx3uQAztSBtcnbRT6vzxFz5s3z85/tzpW804a8JLsaqrc11gVK9/BzOpfFyeJRJTjjd4GpeZIkcO07BMxRbr4lmXZyWtEE7swB8kiMpHUwJfQyZk3D/mM9GIQ7PxkCIZPopoQCucYWaVQWXbBF+CJDx9rBgwbdVtERF1EyxXAsS6DDtlEpzs4lN4rAgwx0nHJVTPugwfOOHbHDTzEbtRIzlHyjqPpiCnc4/oAxOmTLNPDw1fV00jz95iBwggSrWQ820Ylg+HnGTphgY3tatCCPBUhYpATarRNMiVCrHgyaeZMuuHBcOMVJAPQipQG3aUa5kHCZ24NI2LiSurlyb4SjioBeZJN/TriORiHOO5fNhyMFx17Bv9nTWVTBXy4R3X0k/TR59AnfY69IM0SfkUYV74lbHv0MXqz1ZaaEGAKHYczDgBAn00VDfGymmW7VrYQFPlz+LEDgCUpIo8k4joBc3a1nKCN24x1ioUJuXiA3L824+DGegi/NaGspptm3IaLbw+z4piRnKYC+IWemBtAAd4FpDqMPwiDNsymHJrG3b5p/3svz+6QFS2V7o/E8Ulfg9fjLfix5XKt8afN92+CO+Kbx19fU931y0iwDkCY4KT6yBAhmH5Bi96hI4cSQaBroFAnFBGwBbkFAjLgfNJoQpxK1c/RMUP7JKW0OKBwUh4tYfuZLjRrFHN+ZCVgVisRlpkWgJzrkkSlLi5ZGm3+BeKCZ8DbIznyTMOfPrQW3cf+X9f/PCFIvuZ8/88NGlEF8htX74Mg5cGJvXolyRBC1P1eznqkfomrZmgkxO5eGFUGMOosfG8g1Xjlc70Nx+oykGQyBqVRhPX+PDasYEDp6BqpWyBAMYkjuL5LDBPxmKIaQ+cjU8IOt5V+PPfP6C23GA4LZBtSTEwlAqwWU+/dSRbgHq8Dezlfy3hNX/sKNEQZWMaM0RGUAaBMEKM8OGH8LJqnLhQA3TPGo0waRrBcTHC4onoZ7SjWPhMd+VBCHTAL9qbfp2x5qunc9GF9DNwZFr3RjT+3Jm6RG8jq8fR7rMnjn1CBMZ/b/ZZlXLL5HqNZgVSZq9aC0DyIgeFj9x4bhvgyDhsK6GHka3axjkUaa9LSstofFrjUmCS78/uus3G/H7C9Ya120cDTGzsuwUDNdzhlYLXxMEGnuBzE/yI6OVMoGIpFN6Xs/CtpequuS/TMqk3zXO3aGLosatFl5tjqM2korkaJy4wh94PzZKCkGQ9MbxmfGDLlRa67db9y5+d9LH/EdnjOq7csl6uPEN1fhvUjLPGRfZCNDWsFNcaNxFzCxGYMfGYc4/93iw6WIw+iK1FFlfyyBYQcukxFJ3We06aYc4ZGCRj+SQjWwHUMduhcDgcGxLhHBLEdSKm1Sk+WQLMJ3yh+RtH7S8SKzV/z+brq/123FJNuuxWtdg+e5s6WDTQZOaAs1kMdq1pd+i3aoXNcuJC10a4D2DWdgaVg9i5LOGxiIlryIfFWk/34+7gY1qp9Ad6HWC7+zoSu6miYaVKefNjJ0/vANimevUE9KRrBFgcL8lpvMWiQHT5wEn5+BjNYCiLpDLAiUyaI2j6D3zRzzkTckmGk+Lht9VJhSbbeSo7iCW6MsPHc3km2Ff4iyAVpN4wOFbUx4tFOiSqsENG5OPaMz5I7HyW9i8cB3EZ81r8Xy523Lkz/pfeikoPv8k0prl2AKLaoGOVRhSfeQL9ZpwITzv7uGeTKDmY9k88CN2BCAwcCx0QWW6VCWBe2xhnGMLngBsZ0QOeJAmZ1F0bQoN4oEJYdqTSi9nVoy8sUM+8/EbKW4klPIPbccUdfNsvr82uK9z51CDGuQynLBiHZIuIxXKduNjOsCp0AT4EJKnCPsYB/Tor3fGoj//plz5ib258/rzrhsdJPLlB5xph8gYgmHRZpqXz7SX3n3jiRXZB3PSJY29P6j3nReWKNgKc+UAGSRyQweg5igiYDwcKeJZyvkAwH84IDyzLpSwrJwPRhkSwyE3KIQmL9WIG+sm196k/3I/DkpWXfn/v02rS1FvV/EVL7KKHvDbnecTxo4ZxbHIAzfjCk8GYI06kILLsGJM13NgWXa6OGIOvp/rrn5300ZkufWlP5xw6wKNrf9mUGYBmitxu8TYjfubCp02a8K1aT8+NvKIVThATn3AgQkacAz83mZEhOjIYh8E6gHeSsIUqIbMQo9/WqZBDYnY3PUN79Z1PqO/R03ZLaVYazIRjvcnT7lS/v/9ZfhRSRy9r0bY5aHeIlDiHdKk344MnA7HYTBBZCbwYoJxtoI7j+Hr1oQu+/PEvOmw1bvKsc2m1/V7ubxC6/MwAFCbdIvmfCedMO17qyOs1dRgtqbkfg1AaJzMe+OFg5EaiofSRwQKcTWg5eIafwZgGa5jGAe8qMxCzQUjAdK6xwAOlk9blkXgWwq749EtuUn+m54kHI/3unqfVRDrh+OfCt8gemoA/2jUa98QvsQ0ef4iB+LhtEIzk0heME6KTN+MLT44VYSqbtLfis3aMUAaLfic9T1TrLWNc2WO/P/Oj9AsMk4r8ArZwAOICtaq0XHHsObPwMmlOszvG9syvPnEA8f7hnoHZRiBYhAwHIoSBKRyIGoBv2zauuF9QTB+doWA+DkbzUoL2xtTz8I4KnDHiV82voDfnYzbEazMGIuEZ3LN/cxu9c+Up/v259Jc5oF177Pqd4ya7wZgipuNos85mi6SjCKPV65nRURkU9TCEPzph5mssKHUu/eCFXxnzjlCPnXzVe+naMq6qNE2FAxBSCU5KYvWnz029je7L6TSno6NWicv70ZXs5+VyiPCQy0DDYEOSwYgcyeWnjdA8O6gQJGDNx3B1ZogcLPB11FCwMJHTuQTM8PPwxBIyfh4Mjy6eRbPVjQ+u2Gw4c85c9d2rblevvfmO+RkE4wsbg/PisuupJos/yN3ESCLadrtMUwZPPjlsJgmf9eSAMCPKJ/RBw9EWnNw0FpTjyt4/PfWIt1w1jbhyo0a41GzZvRCd5RJFH/M1XirXqrte1XG8fSr60I7rhwwtL/2bikuj7DO/ORpkprQDsAAj/Bw2nGByIcZhcFGu+xllDtvoCSgBHiCQ8DztPqM2p98c2UOtN9xug0ZrcYafFLvkhofVCwsW8XtqxP9QwrsMFLikN1351pI5bjKDRYuYjlHpC4fkFZvxhSdmUKfB9zL9tOS+NPPNF0Wf65ja1lUeej8d9+1edNwnWFyIbjoDAoiTEmrgVtVyxZtOr+84dFm9HI+mmXAu7rfwFiWanVy2NMyI4awoMGCEr+cC4ZgcmyB9xAYwXhIhwIghNiGD5LBNGdum/tMACJoPE3QV74Z5+NnX6GLxLWrO3180nOYZZr1zrrydjvUW87tl2LboNv6IBvEBuXFM5wxgSeul1pNxM0WSbrRb2iw23FziwjiXYcrN+MLDrIgjt6SezKvH8d7u4IOa7nL7NeREr4PPmFS9zoACjOkSTFKr3tFaW3bIZR0neEumx0+Z9QfaIj7Fx40QoK0js0GLIocvGDQpTHaLCxmoy2aIYh6fMSlDdKUUXQplPa8dG0DjpY+YDcfTb51sTveKwzSfdrMXXv8gvflrMa+mBj9QwSKezRyA70NoRUu7OnJUpHaKmI7aotgIJOTjlmKjVr9rkzcfGNNBh2OCO7jjtvLG8cJZldaWI2jls5Cb5n2aAUUDLiLSZcYDuypD/yI0yWdMOuZQer3MBSW6/8fJbI281QjIzQ1fZj2wEFQ3sHaLA9aVRVm2dLEDUgZjiMQQXcjdGQIy8oG4PyMZLGQo4ffp8Krh71w+R/38dw+o1+leLhLu6153z1NEv0299K+3+TVvolPMSQ685XHFt6H5jhcsaITANNIaoWvuWTRDzBfbIfmwzS4GZS82ITPgl2kSqie16Zu82e4NPohtWlkwk07k+jz4xFSfZ0ARwExYr1bvbtSjT9BZsT3rAX/85Jn/TbcXL6RFhmVuuAghN1ujO8hctoak2z8CGCbZGnN1OFt7Lh/KDMPyHRmxZXkMd2sg6DreQo8fmMEbFLDSBW3FIoO8JD4LL8ekuGX1C9bNbWQCl6RRICNmyPNsQBeLFjEBoBT6KzQzkE//v5M/dT4DzdcxHbNaSuXGNaVK23/Wq/p90i6/WXm5ZkBRhJmQnPxgqZQ8esysWfbd0uDPOHvcxXRouj1FYqHgbW6mAd7iiJg3wMDLmxUl5ixrMLyFW+VQSBSxYfRnbBihFJqdIUSvztPZiE0ZQfy2DN7SBV9xnIgfUAQrL4nPtt2EE/uCtzaFkaPMesIYkrT2tDT4SFyjL1HFRPOledk2exgSdH0Gjw6tlkRxY+dw8IFXqiT30jnAcg8+yCL1ehKiYeE37vnF25WeaTxHS2x2drl40CQqDdmR1p5Nx62Z3GSio0PmxNIBIwi4bY0cSQah5BIkDALRw0B8Gf3IuWgZQcEIImM7ImdgTLdl2NF/TAqwoOWQjLTJCCC+aptaxgVZm6JMcgdk/bBgYWqCkDl3KwKjXPNIE/QXpBLt7Qj4+6ikRl34lf980oUd84PLtx537syn6IbFXtxwl7kc5eXeBYe6MWU3GtEhM88+JnNseOy5sz5Dv1z2m+KdgqON9MjgcqheEbYEkxc22X0IxhNGxex+ivmpBGMMPqWmG4LQUo9S/cJDnqMiZTvtEWIe3vM3DwA7EhkPDK0pQUoFKjTSMHFpraHqp1z0tcO8W7LQOP7cq/dJktqDEm/Q+pP6tQsODWELiqLGjePDZVwEnHbW2Cvolzi3p8FyfRnPmDRLpEdmtaKtEvS8XbSoFXmeFaFPGJITDVsr44iW5RsiYCgaLGQkMd3AQIMV+WOcsWHx0GU+QrO50S/+gC5Y5JJcm8BakAAoFx80nwkgOgUgNKnZiUuphX44O0luo1VRu+QNvnHnzPi6imr3rOjgg2dIKzwDajXY0un0PGncvOit7sP/8qPP6lNEYVI+bvKMI8npS6nY9x8Kpq1RtlpHlVdEIFwMx9xD0HFG0SYPnGzxgYytOsq5mKPLgbCY51EePhSwxqhQ4E+oxlMRMo0+64cHBlMTXDJU0NheSl+n/OrUQy8xKmzGF5hLQ66gQ6+j7eU2y+1fYUBmQDGNC9aluPTR9Ua0PnHslJmHCF3ymWeP/22lVhlFs+X3aVUsD1jhFeYUEZmFZOsNseDLrAgMgiofwVo+9AlRcqIh8myHaBk7QgAMfIOFjCQHwiRYkT/GGRsWD13mIzSbG4brD3iCR8510Mwnw2QE+OaPhQUMppYEFwOel9k1Gj+nF7fsmDf4xp4z84Nd5SF/p4WmAzb4jIsDNwOKQuR4B1yt2j2lUY/PwQIGl4fyMT+YtXWpWp9NZ097UwCKTyFDQdTN1u5uvSGst1lRdh+5OpzZJJcvxgyTM0cmYHPVzkSWmdWco0LQOieAK5WHd/kSJ18JNk6DYgX0SymJepJ2ueMu/vqn54ZYXFzetLTwq/TU5I/zFpOG+OWtYwYcsF1waDyO6eGbWu25Uik6cdqkcbeFfNSPOXfWaPqdiPNpqfaBNGDzIM1pphe8wAcSKzQYoasPNmyfOnjXDdc/OwAEkDeSUrOC8nOScXWCGarx+AGT39PS0/0wvQPslItP/dRdFCNMiV7CK1voAZ/LaK+2W2/3dD3B5agM6gAUP3Aq36jVflyrqSk0G74pdDfHLpv24OcnsdqZnr0rhc8NuNjcck6HhDh3IGaibcAuJpSXHvY61gU5DC4GnQ6oA2FJbxjl4UMB1x4r9DSIiyGK7fItNNqvk8pnaN47+9ffOGx2BkgE2juNoIfTvlYut3wXj+sOZpJjwGWDaYQbEcdfL5WTJ8ZOnvmVPFs0Q/75tfrGe9Xr0Z50InN9ic6YcVLT50T7ETk2k2OnUBZ0ORYED30rH8G6mMwg5eMoY4cEsnxDJAZ44g8fnxkDTHdkzREa4SEUfFhHSjYq/Mxtd4CHOiRsVJjxaBabE9XjfRcv7tq9aPCNpQXIpbp6nPZegz74yDV+Oikaf86MJ+mBox112NjnQfsq0yl+rbvr8VISnXTVt8fdXWRo3ORrR0ZRz2TqlzFxqbQpZkR06HKl5ZwVoTvPQl9mRcjmTlYOkYt5sxyEneTNaXl4R6cjposGD59pORQ9ZNZ4nVp1Fx0NdVxyymGPZvCGgOt6tLzlgkpb+/7V7oFZiFtky9Kj5PkZk8aPpGPAGTNothm33B1sNS1nAUGiq5j09WiclMdPO/voZ4s0fI5eYtNd7vkQzVzfp3fV7IIH5Pvlp3RMkSGihwNtwAcjbJvB06/ByPL+6DPNAocTDzxaEFLv6nm+UW6cWVbtN//665/IPeyBwPFTrtmsqmqz6SRkNJ0QZn9+Sasd8G/4Scv4Zs04e8K4iJ7X/DJNub8YqGs7ffUWTpRa2ukB5mVX05KSH8349oT7m8ke94NZu9WryZdopBxMorvQy22wW8Fgbibm80yP+d0YQjRXMKF2+I0kfF8ajF74jjAjDd7V4+r2ZkSW9bm0h+AYUIc+3Ygad9Iy+IsvP+OIB1x9YXn8OdP3pJ8qOrnc0v65eg82at4bhrBBq+N4lA6ITpwxkdYOHEXOVOL4IbK2HAddA+kbbQ200pC2wqfipP65ad8+7q/NtPPqC1XfkC46nkRhO6VcLg+n4Pd7ZnS7M7SLwebyV/VghH/wiP3CVYZ6vYu68hf1RvmCEUNKC35+8iebXko4fvIVO9RU+UpSsAdpso/dhu0e7DrFsUa3b/ea/e2xj0XUoevTCcLTZHTDwTbcTD+Cao4RH2hEyS/aq62/v6zDf84gTx6XC+KG+g96JcgBNJL3oteBbYwBiYfs+7xlBwMttBPOeuFABD4crJ4OM8u5g9nnpzXGGDyorJcWddDlENpbdNLuNMIGei9dzP/T1G8e3nSvAfnPnH/50J7OlkNJz0nltvaD6j3dfY8LFAxCoos+C+N69b14xIPbS1e6byiV40+s7N1ws7bhBI8i9ZtSpf71aWcet6gZlnl0haHju9+Nnm3fbfNqtfY5upZzPL3udAfSQf95Q6ZA43IMxiKtAzEYWQd2VfX6P+lu+5V0O3Hqdsv+/sJ3vvMd2tay1+3C1tDEMqxSjqbQgoIv0/EdLvYXjv9QdjDrcIWm7qumnz3ueNhhpyZ8b9qO5crwJ6vdg3pFZrnbJcu5aDabQ9dQrqWDvt/P6JjwYl8Vfea0y4dW123fg1bk7E43/3ah1u5EenagRbVbluj9JTiGxEbHH/c4CDMQBm0fBqP0at5gBA8DKUy4xITjoIiO33DBHjM2zUyv0S8UPE1D7slGUn+iFJUeLUXlv116xmH2B4RCPWF9fMd1m6ty16fJ+SPoBtPH+dofPcy9OiVcEuqOejabffpYfpDJRmfCuTNvoi3to+T86uSv5wsHtFF/lJZ+f2f4BiP/uPlrf6jTcwn9OoIeN+W3u0aq9gEVNUZH9WhvavUoGqBYYEsxwWzBocEBF3zIGUapa+GMxxHkQ1vGmBeGRVCK6bhG79p5ji6U/JWUPliPG3dPO33sI6m25SjRrHbil35VXrzV+mPostp36dLL+/t82LEcZgYMiig2kum0cPlY0cnRRWXsuTMPpLOQW6mYv7ZcJFZxjtkDjwXQrbtl5Px9dOH6TvoRohuu6eUsui9uY8XH0vLQDeKosV45ikbUqsk6FI1h9ILtoUkcDSlFUSudq7XQjDrUP2OjeSuKltF5eQ/t7rtpQ16alOJlUVW9k1Tit2NVW1yv1d9aWhv2Bp4m7IsvzTDjv3/1nkmj9knaER9IU+l+dNdiRL1Oz+zgZQKrdYpqdDA7esaZR/9N3LQDEIRx505/jFa47rpcx0yiaRXl+lgJl2To8dGGmkVLxy+tlqL7Nh0yrOvnX/2PHpq7Vt8pvbeY0Qz3Hz+/oaXSWW0Z2qjv26j3fI467Pi43BIltGtdo/qJj2drt9O1v4PdZnsDUL8tvzx/TWqY1xg6nsIdgFqtWqM94PPUuBeoLY/Q7eU76++oB2Z/fyzdGVi9Ey6+d1a696ex9wFqw150DLAdbUHb0xNprZjhBmthwKBHhd58Uq/+a+PZHV/xHmTzBiCcoFf2nkbZ+YPu0EoywLtsOtjH2Rf9AlQPvQDxTnov7B1REt/flXQ/NbS1vXPJ0sU9lXWGdqstVc/ssWPTH00eYB/pIa6SupeOMzdRLW1dXa1dqq2tUkpG0YHhfrTbPoCWIn+oXGkbiuM4OUEaYBdWnbqo8YUZkyZcGjqQGYDHHDOrVNq9/nQUl0eu1ge0YUv6WOczUBwM08dcwH6Hzjfeph31Epot6aOWxFEynxZnvkq0+YR8vREnb9AKkSW1UnlxXG0saynF1a5WZW+alur1tqQ7amlU4iFUHk6Xf9ahK/0b0CnHhmRlMzpA3JxW+mxCx5IjaDYeRvvO4TSrrUOHD8NxFsznJrROXu951twjhrwuQPvoKsZ9dOKxfx4/MwABoifd1qGXSb9KxaF5Qu92Gl864VXb+q4DBivTcGaMck4AeNjw9UYzkKjMA4rzfiymyLGxJpIoLq/PnDR2E0gfAMwAAAY+SURBVIpb7pbln8yZFpor1BPkOtya2PAV8RkDR99NqdGi2ip+ZA8v3cYunFbzdNLb37Mf0JlPOOAh16ATBd6V8sBcEY/WTFncvaFLZ0cVDT60qvCSy+O3Xv3MLgcf0aCLpWNoU14zI7DW61UWAewx6Ee6vzTjrLHXNnOicABC6PHbrrljt4OP2oAO4PdbnS9QN2vgWt7KjwDfbmvUp8z49rheT2bzDmcyHo+fPOMqeiLqWNzgX5vWRqBZBHC3ii4XXUzL7U9shhNe7jGgMCWfX3/qv+gBIyxcFdLafG0EMhHA4KOD3kt2rI09KcMsIPRpBhRZWrx6cRyXv4gD9LVpbQTcCOiZr3YBvRvoay69t3LTY8BQeO6ts/+w25i5w2kVLl2pX3tiEsbn37WOqyWNam3KzG9POGN5Y7BcM6AonzBlxhfpIutFdPV+7T5ZgvJvmtM0VI9V/QvTzzr2N/0JQb8GIAyN+/41+0b1HnqyjR5mWZv+LSNAO8Ee+oXL/aZNOq5/y8koav2ewWaeedSDqjJkW7rNdCcWGa5N/z4RoDdZ0FW55E76uY5tV2TwIWL9ngHdcNMChvNpKj6FlBW8kdJFry2v4RHAEuuf0mWWbw5EOwZkAMKRCedOO4Am1CvpZvs2q//CyIEI3b+XDj7LrTfmqVLj+BkTJ9w5UK0fsAEIh7CSJto9uZp+9epQmlzpDHvtmfJAddSq00NDhJa/0t8NCxqbHDGnY8yAPmQyoANQgjTuvBnvj6rRNHox0XaD/YIbsbk2H/gI4MEtWtz7SkPF42efNfaugbcwQMeARY6NnzLzezQJnkTT93prd8tFUVr96Pqicv1tush2yfSJ478xmB72+yy4L07NmDRuYjnq2YVuDl5C73ah4T4oE25fXFmL6WMESq3UT43G9LqKdx7swQeXVtqImDDl6t3pCbYf063qMVgk9m5cbd3HPl7tYLjHTyu4aeCpu+hY75szO8bft7KcXGkDEA3CMxHtTzRG0lNrl9HPeu1fo7ddrU2rNgL4eTV6xHUuPXJw7GvqmSfmOL//tjI8W6kD0G0Q/azDwfQs7TfIgUPoXmJl7VIvNzqDW8Z6PTompwflG7fQW6F+OnvShD8OrsVi7atsAMIleqtB/A+1/YY9pfIP6MXmJ+DZ3rWrr4s7a8U5eAEyPR1Yrf6ODoJOrv+99Ors2YP3FGBf/F2lA9B18ITv/WmjpY3F/01P9h5Dg/F9eJZijX0G1m3YKi7jjLZUojdJ1LqfoSddZreW4l9d/q2x81axW9b8ajMArUdUOHby1e+tR/Wf0znSIfRYo8taW16OCOC5DDrZuy8uxf877cyxTd+7uBxqBxS6Wg5AaeFnOn67cT3u/mQjLh1OBy2H0rv/6LVy/XxNryh9l+YYbPxTuvQkXlRv3EzvWLy2pCp/nHbWUf9cnZu8Wg/AMHDj6ccPaT6cSK/fHklrEbHwYY3yP2zPgNTxvG1CF08a6jW6Zfb/Rry0+MJf/epLg/v7CgPiuFayRnbg+I7pmyelaC+65zyGXkn0qZaWth3oGiN+jwS7nAEMz+qlimc5Op6jB8TwfPLLdNL2R7qScBO9R+bh2WePfWH18rZv3qyRAzBs2ufPu2740p7u4+mI5zP0iqwdaVVOO2HwYyNmPcSaeBxJvqN3aNUned9NxS5q3z9pBef0Wk98Gf3oz/wwDmtiHU18V6VDO64fMqxlydYqKW9FM8RomiU/RA08oNw+bCi97pbOrGmW5PdHrz6DEjMbrs3hEgm9k4fevPBOnV5neTcNvjuTOLmXDjf+Wa6uM++qjk++/a7qLGrMu24AFnXQp8/79fBh9WEfoh9vobdQRftTp25DR0/t1PdtNBTpBqhqwyULTjw29QC1w9ShFdnQdAqpiWoa3JRmFmXgbfZd/EmSLroi/BqV71N1dQ+94GjO7Imr/2vkdFtX/DuN0YrrWuM04CVMPeUWekNVeWhUawxVSXV9VS5tRYNkC7o/uinNQBvTYN2A7pOuR3PUMGrgcNojDlUxHXk16DVrcYzfwOqhN1/Rq+dp3CX0ZlSVLCGZpTS48QMxbxL2dXoV3Hz6DY9X6V7rvEYSv1Eux0uTRnVpV61rSWXu0CWr+mLwquy4/w/EcIA1Eb+7vQAAAABJRU5ErkJggg==;" vertex="1" parent="1">
          <mxGeometry x="566.38" y="249" width="50" height="45.63" as="geometry" />
        </mxCell>
        <mxCell id="Fvsey-Ng5_NLrlT-ufVr-2" value="" style="shape=image;verticalLabelPosition=bottom;labelBackgroundColor=default;verticalAlign=top;aspect=fixed;imageAspect=0;image=data:image/png,iVBORw0KGgoAAAANSUhEUgAAAKAAAAC+CAYAAACyEwTGAAAAAXNSR0IArs4c6QAAAHhlWElmTU0AKgAAAAgABAEaAAUAAAABAAAAPgEbAAUAAAABAAAARgEoAAMAAAABAAIAAIdpAAQAAAABAAAATgAAAAAAAACQAAAAAQAAAJAAAAABAAOgAQADAAAAAQABAACgAgAEAAAAAQAAAKCgAwAEAAAAAQAAAL4AAAAAqrGIywAAAAlwSFlzAAAWJQAAFiUBSVIk8AAAJWZJREFUeAHtXQeYHMWVfjOzQbsKK61yzgGBIiAhIYLAJGGCAckiGN8H5zMYG9vgc8CG0xF8h88R2xiwueMAS2gR5uCEAOFDgCSU0QrlLJRz3jjp3l/d1VMzO7Gnd3Z2u+qTtqur3ntV9eqfyvWaSDutgSbUgMfptKf+e0WZNxi6iUJ0r8fjGc/yi51OQ8trbhrwUJhCJ73k/SAQpud27DmxcNUL3/SjFI4C8KuPvzbK46X3PB5vtzCkh8Vf+LTTGiBukBgSAhPLg0M8E1+fNi3oGACnPznrAg95P2TxbbWutQaSacDj9VE4FFjfKtD1Al8ywnTj7nhq9jUh8nzIDWpJujyazsUa4FaQe8kuAW/1lqwBOPWpiqs8YXqHm9ICF6tUFz1TDXB3zG5gVl3w1Cdm3evzeF9gQd5M09f0WgPcDIZtA3Da47Pv8nrpFa1GrYFsNGCr5br9yZk/9Po8L2eTsObVGoAGMgbg9CdnP0Leoqd5Pm279dSq1xqQGsgIRNOfmv1zXlH8iWTWT62BbDWQNgAZfH/y+grvCwXEAna26Wp+rQGhgbQAyN3ui0x9j9aZ1oDTGkgJwDuemDM4QMHbPF5PtdOJa3nNTAMh3m4IebxhX7iXhzyX+4qKxwbr67kQ9rdcUwKwmalIZzeHGpj6eMUErzc0l7dgy+2CMONZcA7Lp5PKcw28/ti0Ja0Lq/qFQ+EFdrMatwV8Zt7W4uN1Z0sKawqK/QU1cWkaJljVMCiTkATsDYMxEijl/zZHBDbZGuaDs8CBNsUpmokrWYlvJK+Z8XRSL2hTEggEavytazvXvTRjcm1sjqb+oqKbrz68g8MzPgsQBa6KigrfjsL+Pw+FPNfzQa2+vNbXmoXyVi875WhVOMSvRqhoeY2oyDggZHkNj3kEB1KEmLAYM8g4IULEKcHGu6A3qEUAWDgxk9MK4uwY58pERvjkGROoBZPvIXAazBAkZIFSBKFQpuOtclKFIJ5/5UKoQSv+GiIEj/kOOvaG+I9MXy07SGPfI+VBpPhnZhFKBof1YI8RgL/Cx3+EX03PYjAipa4FPfgsDwhNOcJjROBvmMd6vE0myiDew+EABwOrB0Kh8JKQr+pHrz9yzxGwSXf7E7Mf9hYV/TLox5gwfSf1RL+uWF9eW1Cz3Of1DQyGgoYEpcCRnBuFkDAAoSCzSmbUnSlAPGKVjgpSnfXKHstvEoA3itp6N0JB3yDeCjBpIEvQiT9W0jJfgkpJON67pBWiJK0lTnAIuSI/Mh7JKv4oXkEtCKLyL/hFnCWc4035piyZmhTdMA1TuEVvSRCVJfilSCUf8CJYygM41HfEA5jhYOiwxxscOeundxwSYfxn6vcrSnyduEOQmZIRKZ5iDPjMvKXt6gtqlgJ8IQm+FIw62p0aADg9Pl+XMHnfUDXw+m+m1TD4Dqth6fgFAGvqiqZ6fQWDNfjSUZmmCXMjVVBYcjFfv+gTpY0wZdb/MrMAIDfQ3wkrY6AoofpFayCOBkLBAPlCNC5OVEZBxiHSMI1SRgkZCdDE7tSA6IoDoS7Zlt5YB7SmItmK0/xu0kDIXEDIpswGALORoHm1BrLQgAZgFsrTrNlrQAMwex1qCVloQAMwC+Vp1uw1oAGYvQ61hCw0oAGYhfI0a/Ya0ADMXodaQhYa0ADMQnmaNXsNaHMaCXTIx45oRL/O1L28De0/fpYqdxyiAp/+vSZQl+1gDcA4qgsEQ/QPV46g8wd3s2J3Hz5Nv5+7gur8kXODVqT22NaA/knHqA57nF+bfF4U+EDSp0s7+tn0SdS3c7tMj7zFpKBfVQ1oACraQLc7/bLhNG5odyU04i0rLaYHb7yQunYo1SCMqCUrnwagqT6v10P3Xz+Wxg/tkVShhQVeemTaxTRmQFcCYPU5jqTqShmpx4CsIi8fM//ejedTL+5e03EA6z3XjKL6QJDWfXEEp9S1s6kBV7eAGO+1KiqgH9wyLm3wqXq+j1vMy0b0JUxatLOnAVe3gGWti+lHt46nVsWF9rTHXFMvGcbdcJg+Wrtbt4Q2tOjKFjDIY7fOZaWi5csGfFLft11yDt0ycSjV+4MahFIpaT5d1wLi1uCAbmX0nRvOT1NF6ZFdMbof+Xihes6iTcxg3nlMj9XVVK5qATFpOLdPJ7p/yphGqfTLRvShe6/myYlerE5bv64BICYcE4b1oHuuHtGoW2qjB3alH9w2vlHTSLt2mwGhKwCIsdn1Fw6k2y8dnpMqGdqrI025YJBYJ8xJgs04EVcA8JzeHWnyyOg71I1dZ18a25+T0GPBVHp2BQC7lcPGUm6djxerS7JY3sltbpsuNVcAcNehUznfu91x4ARV18GolHbJNOCKZZi9R8/SL95YRleM6kNlrVtZ+gjyDkYdjw9jXW19wDDHpkT4mdbP5ijgsJRjOA/V1PuVd6I65t1+8IQ4Q4hWEJMf7RJrwBUAxF7tkVM19MqC9QwsEzoc1rtTW7EPbEBEBQpHKsDBF1FgDtHnYw+cSsqvIRa6+8hpsRCNaFDh06TapdaAKwAINQAPRQX8bUYGD2bFD/A+7tBe5cKYZGo1pabYvOcY/WHuSgafbvVSaytC4RoARorMn/X0+WhIzw4iCCdhnHD9u7UX3a1u+TLTpismIbEqAeaUHjY22ta70/JsZaIZMrkSgDg+hUmFdk2vAVcCsOnVrnMgNeBSAIbJxx871q7pNeDKSQimxB+u2UVXjelPQXySwAG3bPM+saTjgChXiXAlAAv53N67q3bSwvV7RWWLz0YoswjxJWQ+tCodfOqCshXDHl5rFgt/p6vrjDVFK1Jy62cyDbgSgFAIdilq/QEa1b8LlZVid0RtCTFNxntDG7QCXxKs/LL/xFnauOeIbv2gVBvOtQCErm66aDBNGt7LhtqiWV58v5JWbTsoQB0do99SacC1I3H0nOVtIvvCqRSVLL5j25KoLjoZrY6L1oBrAYiuFEf0nXB62Gdfi64FoH2VaU4nNaAB6KQ2tayMNeBqAOJ+sBOuVt8Htq3GvJkFY50NB0ThcrVLMXf5NirgHZE2JUXWJAKTE+GATazGmK/qw/qsGUfuPXqGlvMidC7yjLxgHxsnbrCM1BJckwMQFqZatyqiwd3LaEDX9kLBSzbtp8Onqhv9UOfp6nr6y/w1FGTwt2YbMdIJ0Mm1Pg6EDSz5MUcZh8Xr6tqAuH5ZIA+qSgGN9Bw7qDuNHtCNjp6upiUb99DBE1XNfv0xovVGUloqsd06tKZ7rjyXSpULPOf17cRH6JdTwKEuMlkeShh4d7FByoHd2ycjaxCHc4QfrN5B767c0SDO6QBsF04Y1pu+MWWsJfrKMQPoFxWLaM+RM1ZYc/Q02RgQLUg/tjp6/7WjosAHJbYq8lHX9rm5yQbrWMP7dORWuDCj/yXFBXTjRUPi99EOI8EfCNHk0f2jpCK/j915OR+sde5Ud1QCOXppEgBivHde70709cnnxh3LYHRTwIYg4QBUjHti/zs1gUAaoluFJ0PHWSOPQ2Mx5AHyov4r+cEh2liHOyoPT53IxtS78qEKu6WIlZrb95x3wVDwhYO60Y3jBiYtKRRexCD8ykVDqVNZiVEzFoeHjp+tpTc+3SyuPkL1Ie6mIBtwilw8ysGxqzTqHeCQ+MGPDywon7wOgNbsgsE9CNZXjTKgHIbbvv84rf3icMIfCQ5WPHzbBHrxvc9o4brdlkzJn+/PnAIQY5krR/aly89Ltf+Kqz0e7qLb86+7U1wddufL5l8c6U4fs10+jB/HD+lOqAy1puqDQVq8YS/veKgHDeKKa7TANjzBGtC9AwMrGqknztTQrsMnRX5vnXQOTRzeO24e0PI/9Pz7cePUwHuvHUvFhQX0/srtzcouTc4AiBbgpnGD6IJBXVW9JfWnOjOK3g/gevCGkdSzY5u4siYN70n/MnOxaBmKC31UwpUkoQBQlPJYTrZOcQWkCESrxXecIo7PctXU+cUMHss7T9x9GQNDJYiQvr10C73NrXg57yUncplYWLjrypG8v11CFZ9sEC1sIpn5FJ4TAKILuuuyc2ioeRPNSQVgjNi+tCihSLRAWKPrw3eAv3NDZBYZYeC21iYCwffbb34pIgo+Djx2uoaervhUAK8oAfhA2rsT26RmGTGNI6KiHOJT0UiGKeMHUxvWxwvvrDJ6BBmRp89GByAqAMssuASevpNtVPocySixwH35iN6iVUpE99aSrXSyqtYABIhisqB2ofCPZiv5Y3ksG+8aZqd2JdS3SxkdOlmVKLmMwgH06tq6tHkuZbvVGJY8+/ZynsSlzdYkhI0KQHQf918zktqzLebMnMfxwTRaymRu875jdIA/yQVACUqFHu+xAOzC65fx2lOkAdrkqSXLSaK4zJrpC4b0oMfumkwzXvkwkcC8CG+0ZZg2PLP79pTRNsBn6CWdraZ4rU9eaDVPMtGPTRHPuHuymJxgxykfXaMAEB/1e+C6UbbBl66iWsHUhnZJNdCPtzd/c/+11DOjIVBSkY5GOg5ArG1NnzRE7GY4mtMWKgwdq5+Xi1K5bFowjAcf//oVvFLQ1jFbOKnym2684wDEskbvBEsi6WbKbXTBYPLuESCtYbNv2TgYZvr2TeMdOwWeTV5UXscBiCWXrA8RsMblLoGaWTf7M5uCxNcUjp5hgT+fnOMArOZF2EUb92U1C4SK8D225uzyMff/OX913u2SOA5AzEwXbzpALy/YaBlsbM5AspN36MAyZmlHQCPwvLdiG23gDyums7rQCMknFOk4AJESus+dbJf5+flrsx67JMx5nkek1QKmRWQUNNU6ZjJ1LKjcSS99UIlNmrxzjQJAlBKtwLEztfSn9z6nU1Xpr+I3mYZ4HoCpgPgPPxaT+T8qPvYpwADCLB0OT6QFCiaqrvXbSq3i4/X00vzKhPvRtoQ6yNSoOyFQLo69P/NOJX3zmhHUhT8QmK7DENDJtdNAipkmLJy24x0b/HAADLWrElhjIEoHb4/y+IcfJE165/PQJDVOs4QfzSsffM4ntreIhehI7mUO8+PZqABEEQFCHMP68wfr+ADqcOqV5hINDhAEQqnXx4w0klQiR+HEyjw+Oo89WnHyxKwNYXyc27y2JcXis6t2qgSTLnVmifLuOHCStu0/IS47JclZI0HPKMUzby6j1WwupFVhIZcwX+HHB4/tKN0Oj5+tEDz33hpxKmYYGwdP5aAytWLj0nNto6XayhU+qn/nuCQ7Dp4iHGk/U1NPv/qfFVGfX0BXin3qJ792qWj54gpIEgj+bz7zLn+QRtmR4Yyj5cYRLBhDP8vp4lhWPLf7CL5fkhocyUAcKxc/iF/NWUKb9xzVp2FilYMtutcWbRanoccO6BIbHfWOiQxuxiVze/jTCOguZ7PMudzCiWMEXJ+iTlFr7DnLYyekCyfO5Sn1jcpvxecD7TokgTsl6nk/pC1Bdba2np6ctZCHHm2sMBHHjIg7Im7+cQ8hMhw/FxgSoAfh897xCZRQ/MhnvPwx662KW33+USSRq7A1qde+9rPIdsXizVTFwLiED4smcujKjvGp4b98sJa6tCtV1I8aJnE1cdO+4+KsHyoI9vmEY6VH9G5WmgBjopQaNxxj4FNVx6xEjLzxEX0UkB2GGu+u2EqlDGR8bzhSUINm3a7D4pROdV29JSOe5zAf/fq31xbRibM1qXuOeAKaKKxJAIhtofmVu/j8XR3dcOGAuEWXC9E7uQvdzv+FYzyhlcMBezzRskXAFldMXgRKsBmZwY/CAJ/M3D6+3P77t1dY0bJ8KBtaTAAz2XDkC17yenLmJ6KlRM/RHHQiy94kAETiqJQlm/cLpd08fpDMj/VUN9+t6jJbMuvdorbvkV2iHQlOWtqX3bYAHWdGTBxkA84FPs5LWvEcFpd/++ZSocd48fke1mQAhGLQgq3cfkgs1dzNM2TpUAk7+FedC3eGhwIL1+2hcXyAU4IgnXRh2u3F99dEjf/S4bNDgz3cNTsPiqupcjwLOYv4FtyL76+OaU/tpNB0PE0KQBQbXcbmfSfoj/MqaWS/zmLh97Nth+gE/+JlN9xY6hFrdYz2Cp7EzPxoQ3R6Sj+GhkiCUzRKZlwxDyXQUudi2w0L0b9/azmN4qsAuPS0dudh2mDOdGXeGktPjSm3yQGIwgFoB09W08HVu6zxS2ODD+nCBMidl5/LPqOvw4TAnBsgOi23nZeA/jgX4zcnBwbxk97A94Px38gtr29i0tLMXV4AsCl0iJb3ytH9eA0vOxUM46+xD+xeTlv5AjlkapeZBpr/Tyiz8kZTK91sdERmbwCxQ6IyS7gFULsbgC2gApt7ETQAm3sNNvP8awA6UIF67Gdfia4FIBZ6T/NBASfcXjYS2cxvEDihBlsyspsC2koyP5gwaaj4ZCOt3Gp84Ug9siTmsuZah1zyUNfaZBjWQ2AH5tiZxjcnnB9acz4XrgQgAIRFZJwTxIkasfdqTmMj4DJ88l0CULzLKa8Z2YbPE1bx6RbtMteAKwFYVlrMlrLGECxnwUmQJVMfWkXQyaekxTv2hGd+tJ7W7Dgkg/UzTQ24EoD92WZKB7aj55TD2bvBPcqpkve1tctMA+6chKTT5GWmxxxsxGWYoWZC7k4ANpPKcUM2NQDdUMt5XEZXAlA97OpU3ciJsVPy3CLHlQDEyRXcWHPS4WyePgyTuUZdMwtGCxXAB0T43xleNnn4xQXinrC1rGI2YZH5ScQHtVqtpmAw4yCTL7yfrasTT3mZHZ9WsHO2MPPqa/4crgAgwNOe1/4uH9mHunUoFV/IFKAycVTA+2gFUd9awJ2VMMHAeuxlIByJV4/FSwjI1g/4hHHyF9+vTHiPQ/LoZw4vpjelsrHu9+3rE5kUdz5nMIv7/ZvH009eWiAuzjufQsuR6IoxYJ/O/D2OHLtyNgOS7BshOc5O3ibnCgAe5QMDuXb7+a6v3+GJTq7LkIv0XAHAtbuO5NREHGbYL7y32rB0kItabMZpuAKAmJH+6s0VbOLCmS8XJavvA8fO0r/+daH4mnkyOh1naMAVAMQMFVbmf/f2Sjp2qvG6Y3wB89dsFg2f/JJLMhpoyTXgCgBKFfjZiNEv/raMNu2NGAuScdk+N+w+So/PWkTV9fYsmWabfnPldxUAsUYHawgvvLuGtvGFcqfcVrbs8OzcVcJ0Ruy6oVNptFQ5rgKgrERYXXhu3mpavvmADLL9XLR+D/3urWV6G86mBl0JQKmrlz9cR5+s3SNfM35+9PkX9Mr/rWPwoW3Vzo4GXLEVl0gxsGz6P0u3Uq0/QFeP7Z+ILG74a/xV8oUMXshQLzTFJdaBCTXgagBCK2i83l6+jW1I19EtE4el7EqxrwyzbJ/tOEiFvLwTfWQhoZ51RAINuLoLljqBxdZF6/fSqwvWy6CEz2ff+YzW7DrUIixTJSxkDiNc3wJKXWMct2LrfrZqX0f3Xj2qwT4ujlj9x5yltI+/qq4tIUitZf/ULaCiQ1gi3cJLKv/Ba4W7FAutOCqIWfMBPmalF5gVhTng1S1gjBIxJsThhV8yCIf1LKey1q2ocuch8Z1d3fLFKMuBVw3ABEqE9VEsVmOGi+5Zgy+BorIM1gBMokC0htjZ0DPdJErKIsrj8ZIeA2ahQM1qXwMAH383bbkGoH0dak6bGvD6YNI4uNIbaHuVBqBNJWo2exrAeDocCMwbFtg0/q8zppzWALSnR81lQwO+Av50bDD0biDo+cp6Gl4w/clZc/UkxIYiNUvmGkDLF/LXP//aY9PvA/dXn5i9yOPxXawBmLkuNUeGGvDxR7P99cE/Vzw6/b47Z7zaLlhQ+D6PAy8KBQN6FpyhLjW5DQ0w+GZUPDr1n/7p+ecLA96CjbywKsAHUXoMaEOhmiU9DWC26wmHf8bg+9fpT7/V4/SRsvVenw9fhbQE6C7YUoX2OKyBUMgfeIDHfM/d+fSrvQL1tdt47a84DPs8itMAVJShvc5pgLcw75792PS/Tn28YkSgnubzunOx2vLJlDQApSb00ykNBAPh8LQ5j07/2/TH54z3+sJLQ2j1Ir1uVDoagFHq0C/ZaIAxVsXDvivm/Hj6J7c/VXFVOBT4WyjMG+pJnARgAnwm4UwShSRVgaofbEnfmVkZo4rvIqjv8WQnlaekBzqpDvgln3xykHDx3tUw1Q+GqHcz/zIdkaBKEFuAGH6QWuQmLd6FPOwimMqQNPLJJMIlelfDVb/ky/wZ5qU9tmGnOl/hjTN/fMuWO37++i1hj/eN6IpUCSN+A4BBug5BIat6JIGlRg4IyEBxbyIqBi9BJYS9xps54IwxRmqkE5EXEWz+HhRRxLxRU3WP5DOIcGLFEi+iVGaT1nyoMfDz0qiVtOqJFQPaUCiWmwPNhD2KbiDHhz+mC8RLI0aUVYuWPDCbRBym3jVW0zKLJZMST8El5XuCQkoUHb/ELbUZiLwbXIbekaXo9BEQ5B0Nbto8oag7DLMfuWXLtCde/UYoFHo2QSoij+ofUeOlpf4lauBx9SUdf0IGAzpRAGJ5xudhjL8pxccym9xx+RqINAKOWeFqRstjRKhxMVH86kke3ZDBDCmM/vnEpSuUoQ3KyhFW3iVRJCB1liK0khvyJD6tMOGBtHIBTllWYNKgbZiSh2nr6WytKuOrT1Tc7yvwPYsF5nSdAGB1XeFapMSoFnyRbBvv4q/SD/LFMHZGnPCBQZleG/GIMZy4thghj5i7teLZI+UrdIgOcXhUkPVuhIKtQXxUAH+Wy0xH+MyWLBSuiuGLKbXMD7KG/0URobIblAJickhBvj8i2g/UntCLysthqrPKYwRGymPy8CMiX7zIZMnKkqJwKyXhkZwhiwceM8rKhfHeit+rRVjIFCyBGg5HdCMaSpHemQL+0tmPmOFVKYgHCI9kAj7wmX0e9RG5kilKiSJn8iXyFHqNvJq+WGYEmwJi5cSSIh59aUxlmIKzeCgJs5fPNluysDcpQa9QWfHpemJ5ASAh2yy7ER9J19JJOgk0EB7NJKWq43yEIQ+iqMgL3pVyx6afIglRilgaiPN4fcRgaxudo8zf4jX6mUvRHFoDNjWgAWhTcZrNGQ1oADqjRy3FpgY0ADNUXIPxUIb8mjxaA3ISEh3qsjfYDFRn8QJkCOPBNr4fIme9sI4g5i5y1gk26IrXY3GpHX7E1wdC1uKL5BVkHIl46YQ8KYMDA2xAE9E+vhKq0kn6lvh0NQAxW8RX0//x6hF0Tp+ODeoXX1OHRYSzdX4qKSqg+6eMpb5dy6InkoyYrfuO05/ZKHl1XYC/Q9yKvn3D+dS1QxuLDrNUAGvllgP08t8/p7pAgLq2b03fuWkcdS4rtdL1B4LiC+7LN++nlWwmBCZ/Yd+6JTtXAxBmNv75lnHUSQGBrOydB08K8NWxxfsCH9PdehF15G9/CAc0mW7V1gP0yodrhXXUtiXF9MPbJlDbUnPdzKTD453lW/n/NrGu2bO8Lf1g6gQqLbaWoIU0fPh6QPcO4v9XLh5Kz/7vKtq4+4hMqkU+XQlAtHwd27ai+6aMoXJ+xrrKHYfpv+av4W7QQ93L29CDN55PJTFgAc/STfvoVTZyie4SX0z/7s3jYkWJ9/dWbqf/XbZVWFcY2a8rfYtbyFSuuLBAyHtq5kLadfgkwaprS3SuBCAqMsgo/Avb+bOcWL01wo9y14cKR1AdrOu/tVKuWRtjPo7wB4P8LbgaAVL0tSfO1tFTsxaLeHXcV8fGL0EH0x74f/AEf8bh1U+sZEU/zenAoduedulwwleW4JCHh7lFfeiF+Wzb2tysFTEt548rAYgW6yRvY0qgiJ0CayuRI83GBnTHQcf1LU/yCqwIsKpb9DBoZHyDRNDKSUoMTrCteJgtbFmDQ8RzmIk/2nP0NC3fsp8e5LHh6IFdBXdpq0Ia0a8LVbJBzJbomtUIF/UO0Bj/Vb8MS/2MX4kSAoiNkWHAL5qNkQlwqg7dtfjP6LX8sUTMgCA1XvXjK5wwioTxopqjXk3wrTu1bI3pbxYtIFqO87lFGNG3E/Uob01FBYmyrVZbtNow4Vix9SD97dMt4rDA41+7JDMrpxDN4PHzEgu60fVfHKGFbCG/tj7IXWV0Wtm+oXUWCDRBjhk4fnwxmM82mbzgT1STeZE5ZALLJN+9bjR1aR9ZrrCTuVXbDtHrizeTj5sg9JAwywsD45m6VjzBbVtaToPZduD14wfTL+cso/3HT2cqJiN6gK+lOod/u86qCYP2+68blTX4/l65S9h/dtq6KbrLh3gZp2O7UrG84mzp3SEtb1tA7BJcPaavWLCVVVHPC7UL1++jrftPyCBjPGi+8Ulcmn7pOdRJrtdx+FtLt9FHa3eLr5zz6M7ic8qDVvT7PGn46csLnBLpKjl5C0BU7BUjeluVgV2GP8xdzbPNaj6LhtGQASZ0TxJWOAgKkEo36+ONtHLbQcLJSYtIRjr4LGtTzDspnWnTnqMOSnWHqLztgrt3aG1MGc16+HDNbjrBX6HETFGuqcU+5SwU3/L407xKBt+BnBkV790p67OZ7kBcTCnzFoCxn7s/WV0nli9i8h/1iiUOLNg+914l7eCttFzuo5YUsemxqNzol3Q0kLddcDqZj6UB4J7lwwP+gGFYvFH73djE9bstDeRtC2irNMyEo1VoCbVrHhpocQBsHmrXuZQa0ACUmtDPnGsAk0YNwBypHfvXWFrCaWftDA2wfYW9Whs5QAPWKtvwHt7DfKi1LfbytOO1XC/5wvT7FjULTrdeYS6sls/52dkLTjcNSYc1ya68pvkDBh9av3SWasR5QGUiVcN5FROrdJhlwnn8RNcbDoX2eQLB/3RlC+jlX99KPkrf2A4tX7+u7elnt0/iAwzSQEhiFIEe90JumjDEOvkC6j1HTjV2VnMoX5iEOhUM1E2cNeOOo65sAXGI4KO1e+iSc3s3+C6wUzWBvexzencSx+9x1wMO65Tn9e1C1bV+JZnIDjUOn141ZgB142sA0p3k09TrvzgsX5v1E90u2x/a6wv4L5s94+7dKIwrAYiCo1t7e9k2um3SULw66tCSTRjWk75+1aioNUl0+XddOSLttLCm+fTsxeLCE7qt5u1wDC60O1TuOfe1B+48K8viWgBCAR+v2y0q98aLBjW4oSYVlOkTLd/Ec3rR3V9KH2jx0jh0oor++4M1dOxMbcotyHj8+RQGa/mhgH99UaD+ilceuNsCH/LoagDiUOoKHguu2n6QLmHQXHxur8jVywxrEBeI0EbdevEwumps/wy5I+R7+S7yvBXbaDXnCad70PAlHjVG+PLZFwwEPpsd3HQhzZjR4GZV3gIQR91V17mshIJfhMSJZjXcCT+6ur+v2UXzV+80zw2yVPSjpoNPjtREqIzjF4PKMICGbvLtZVvojcWbJKvBaRCJMHkRyiKQskDJfhz5ZyOPPF60KJqtB9+GCwb8i0JBz3XxwIeC5S0A9x07K04Z48gV3DVj+tHnO4+IK45RAysRm/0fHPOStnUNkEVk4l3BSVSLpGBLMIBOPXkt+IwiWPERyRAsQYxQ3hnAQF0QxEoWgc3qT8AfmDv70a/ekCzTeQtAHKuat2InfXncACv/D918AV9bPECHTlZHjsArFYhzqp9tP0SwZoD1tz6d21LPjm2MClXpmHD55gM8/mM6RsiQnh2pE19Ql1WOJ69UiXOHizfuFQiBvLGDuvFY0bggJDJlEAq+pUwHWdrxD5C/DReo878RCm24I5U+8haAaJGW82nmkf06UZ8u7UQ50LJMGNYjYZkWfL5bnIgGEAZ0a0/fun50A1pg5A2+nITJAuiG81LJN64d1YAO3fJz8z4zzQl76PIRfejWScMa0EHO068vEYaFZGvdgMhlAX5/3X9XPHb7P6RT7LwFIDKPVuelD9fTly8cSGMHdklanjl83fLTjftEa3XR0O407ZKGYIG8mR9vINyQQ684mUF140WDG8iFdasX319NW9joEKYWN/PC8OUj+zSgq+L1vGfeWsG34s6I1rIBgcsC2AhTMRsK+03Fo7c/lG7R8xqAKAS6U1ynXLRhH117fj/RrcIUmnRebikrPtlMn+04JBZ6JzD4bpk4RLRwkgZPdI4vsWWqzXtPsD9Ml/Ei9A3jBwk6teOs5/R+x6A6fKpajPtunjCYJvHs2M8tnerOVNXRv83+lGp550K3fIZmvB7v07N+NvVXqp5S+cXw+N/fXCXqQM7QrAoxxzRmpCULwXJWiEBBZtLinRsa0xkeKVeGxo6VLFb2WH4pAWHsh4wAW/EvYktVhbygaziDHubTJChL+RI3ukUZj6fBz4vPTCfB0pqNDcG+i4wXRPyCm3V1DCooBnxteHcC6WL/2AiDzZiQAGTI/KpArC7U8qp+kVbDAsqkES3Kb2rNyADCJIXJa8QbtAaPDMFbJFwqE/wWhalPGaCGC17Bb4RKHahlEDEswzRS/q3Zj07/E/jsOtEChlm7fNMs0qzYldaIfFjiKCxA5YdFqyhrB3UiwYfkqxlkCDOc4TGUZhj7kYqvEnRqvMVkLPxCySwE3SxioiohkoAUZ6bnngd0w4VX9xRtFV6AzusNL2v+Wz22yq+ZbGrAy+ZR+HTPSpvsFpsAYDjse6ZlWh6xyqk9DmqAv/tL/vq6zTN/Oq0yW7ECgKWt2r7J39L5nL9mna08ze8CDfCIrabQ5/myE0UVAHxwyuC6urJT5/Oe3UrsMuju2AnVtjAZAhdil4aXEcLTXv3JtG1OlFAAEIJmTJ4c6NjXM5FHltfwLPUdHmDWO5GAltEiNMCQCK1jTHyvqKhgGM985zpVqv8HsWXAGacX5KYAAAAASUVORK5CYII=;" vertex="1" parent="1">
          <mxGeometry x="566.38" y="399" width="50" height="59.38" as="geometry" />
        </mxCell>
        <mxCell id="Fvsey-Ng5_NLrlT-ufVr-3" value="" style="shape=image;verticalLabelPosition=bottom;labelBackgroundColor=default;verticalAlign=top;aspect=fixed;imageAspect=0;image=data:image/png,iVBORw0KGgoAAAANSUhEUgAAAHgAAABoCAYAAAA6sjRJAAAAAXNSR0IArs4c6QAAAHhlWElmTU0AKgAAAAgABAEaAAUAAAABAAAAPgEbAAUAAAABAAAARgEoAAMAAAABAAIAAIdpAAQAAAABAAAATgAAAAAAAACQAAAAAQAAAJAAAAABAAOgAQADAAAAAQABAACgAgAEAAAAAQAAAHigAwAEAAAAAQAAAGgAAAAAuo96zQAAAAlwSFlzAAAWJQAAFiUBSVIk8AAAHkVJREFUeAHtXQmcFMXVr+6eY3dZkBsEFA88QBQ8iKgYJWqMBoMce3B4J+EzMf48gwvLOrIcolETk3gQL451LxYlBIxRAyrBC08O8UIRBAQ5F9idmT6+/6uenp2Z7ZmtmelZl4XSpburXr16Va/r1av3XvVIrAWnghkVJ0uGNIbpRp4hsb4Sk+QWTG4C0gwq+9wwWDVjnrLKKSM/TQDsaJHkKDYHkRVOL5/HDDlPkmSvgZFhjA+Sgy00Nyq8npKEXuhBXWevGZ9Iw6qr87VMU9HiGJw3bU5PmWXNk2VlqKFnvP+ZHl9b/JIsM0NTV2zTug9d7huq2gI5lNmiRN64GTUXgLlrZElqtcwlvhmYwrLiHtJV2V7jEB/jomkRMzjPV+WRFKPIm53r01Q/RuBQEscQumBYKjRj+WGapg+pKin4X1wOpVngSrO+I9Uld3AoYy4WqK+91xGEzYQEayrUA6MXFMGrZZerq64lJ20NAzNZYtNB7sWZIrlFzOBMda458Y6fWjFAldltmJXXc/kjKIXc3izmr6svwCyuygS9Rxjs8KgWTF04QJLVlZDZOcKodWN/VlvvMc/dPmKPcB1BwGZncMn8FVeoOsuHaDpRN3SXtdqaLzzWMysj1AEjnGGElzlzhoQBGFZA68HcTIXrNCyNBEMisSGZDVGWuQ0zS3ROCA0LlYfgcWtVbcilTIBIbDcoe8NTJ89+vGjYbsIybmrNBbqsrqBi0WRIRnHl5EIS146mZmXw5LL/LVEk5UottFbRwFqDYA5yDBPRVXsGhwaXyiNwWG9AJMMIv/XMr6EGrZaJn1Y5jax1b10pj5L1zOHNHGTS/yZCvBh12P0Mfuq24Z9QcX5p5W8UWZ4d/VLxirb/SJLC2ga9bWb7rjpoC5BiZrNtk4rnrXhKkRuYmyK9LbYatnbZmOXv3jhrUQ8isr2WU4bt0FZhgjHVapWDS4XhBQGbhcG+qpV93FlZNyWrZQr2oWWAYWpDq/ZKbsb3tjQTMbtvUdweIfrIqKNL7ILCadXnC1UQBMo4g30+n6z6jVfVYECQpEMXLCTGB93w4IvnUi8qpxQu1IKBJWSiFEmAw7ZVe0wEVhQm4wxWT77sOiaz3mS9OSwSFlNJlp6x+hrUlYlYn2G9EUiQAoo7a8CY6RV/EIAWAsk4g/HuzhKipLUAcSZ5+t300IsTqUs1JaPX4rJAVsRsSlrQD4VOKoF1r6MTQ5JRBheXrfiby+3p4gShhxIOiGWmGeyOmx42mVRZXDAeO4c60T7AGdHZ5WY3i8IngssYg4vnvt4Xa8pvD4e1126AZVmG6dJ9V7hMMm4N3zdxQ8uZJCvTxs6sOaEJ0CaLM8ZgpijFUCvdTVLQSgGISW5vTtF1D7xwInUxO1g3H2zbijER6rEOrVrV1DlQ3MQqxMGaEQZPLX/nQo83eywWkzjNHh7ZwWA9+GnMzquqUp7z3VAvq9qv3J4ssc5j7GSDDckvrT5LrII9lOMM9lVVeTRDq1ADYoqjPVmtJBdMgqj9WdZm75nUowrfmFUBfz3CdsQStHGmyIYwvB1Wxxmsab1Gwz7LrTl2DR52eRBisqq/FO63qk8VFdO0r5YV5fjC6ZVTwvWTvHGUwb5ly1yKYTyeJA2tHBx7W5er8w0PvlBEHa30Fa7B+vy4AjVZJOkawpZ0dss439J2IvCxMI4yWN/imS+5XCkREktYa3omJkFXuu0Pjy71Ur+wbfq9pga/E+2jpChdNVdtqSh8JJxjDCZ7M9aM4fyNi2whyXvTXZdkpUMAHLO4a63f/zAnFZoX9rqlFLIjkshOrXi8t46Z/vwZIvCRMGItRNaId6+zR0CwoIpoj4TWnH7HdML2oPWZNclFKkvK766fWTOIel8+Ke9JQ1e3i67HGpRWQ5MezsurUuxHzz7XEQb7KlYO82a3GSbq+7QnhXyujJ3cowM768RurXKHRXtb5pLDotaQvZcks8nF8neJdLoxON742eWnzWDf4lU5WF8e8dc54KdGb3/YV8+uPOcE5nGlTZpdf3/0PITLXn6N5W2aPGItQjKFt0HcWyVJDRq5QG/SH8UD2mio8n0E2hIC8asqa9/Gy844rguFlArVOZSANC3IJENb6kOoMOJ9DMnlvgfrs1gXIOIURWpbUFoxWawCtmiigHZwVVVrPbIiz3HSFcjfUjSWP+QUbPLTIs+O5B8/j9YhJnXc0MZ1OxHzfNGoDVifS0S9TdxOzaQ7KJZcpDNpjeBneu1TPDBJpCVBGLfSoENcOrC3YK1DEMxgk3y+ZXzqakFplq4FN4r2AjHYHRVFe1YEPmUG++auOBaRgPlOzl4iOCerQVwNPL5L65zF6CdmbLsN2bvKqc/VvvyApLMHYNakxyYThT5JinvsmKlV5zUFnDKDJY9SKcsuvnFvqhHRcpJeHXIadlpdjsphPTu1QSgtibXWlYhJ6NXocbNquFZcXlL4GLZNnySzNzZk476mRiUlBk+tfq/Q7fEO5mp/Uy0kWU5MjUxXDerDVARSt9YEj5HP6pvbkK/GVlP4bcapiMsKS8svturbXZNmsM+H98bQ7s2EI98F78lR0KAjU+9u7VjXDtFMt8qFR8Kq0AKviLq8/JoZ1SOJtHlT8r9BIPhiUeNH0O+HX0d+4ZoHX24Tr2tJM1jp+95NHm/WqfEQppOf7XUxj7vxOjQAW6bYlOVRWG6WmME+tm5LeqbwHibLc655cC4xydA0ZYIk/OYiMFdi7f3+Pb+P16ekGDxr0YoeTNJnZ8rXm+N1sywbBp94dAe8qQ0poGrs8rNO4PvlhtxD+i7XCOZOoB5A4dqGIz2/g21BuEMQqaUXhzTy2EpJMTgQ8Ewj8ZEJnYf2v93b5zKX0pik3l3aoVl8AiFEfbbHxS48rRfLzRbaCsb2uWU+S8YsS9R6sgJzNVX9VpRQbJs83ZXvX7CDbzyadlDImz7vjaMxxjfEKU47mxwMZ53Q1RYPie5u7aFNh84BnXVidw7XvUMbvGzC8swWd0vJxIx16drexUTPvLuvPQCHU7HLE62PxKOVe/Ak6YqCaRWN7NTCDDa83v+ILv7xCEmUT2tv32M7xQU5u083mC5NZg7A/pjSyT07Mk1c6YyLuyUU8B2JIV84dlrVT4ieiuIx81R/YKXoqQhUgeyTZsT2RYjB0xe8Ox7+y/5OGzUsYmgWnndK4iifgfAw0X5YgaZNjKV0Cq5JDIDVXIu9YhFyyS72F4tAQ3NNQJeFg9tkt2dowdSya636dBViMOBKMikKyeY86CRT7EYSF3nfDuttG2jNQ7D24iRfuOjck4+GQ6Z1iGky+7o8bQZfM7PmeupgpW/kGqxBL+OLQ+H+JrohjVySXX/Ou7/qKAuuSQZPr37Hh9MJJ1kVMnEl71HX9vZ73cj2enTMZb846/jILHbJmcdFPR/qD6q/jnSNmWNnlnWgvmifLBiZzAsMidZBDuhhXSkhg30vvHUc9mgZMWpYjPAHNTANzUTMSqss9nrx6cc20rI75maxblC2WlMCk7obuudG6lN1dbUmMS3uPje23yRpETr1yIiihVyhSchgt+4qysieKEQVCdbjYanq37tzLJ22z3ZwtK06E9q38FveIN1t22gJmcQkt9v9p7Ez/8VnsarKc2Gs3SFKG9mzvTn+BQQft7szXvygnyzJa7mlBYBoEyuEudbRvcX4hluU8gJCmwDeRGEC4d+bLusPJoeXjHB+MjekfE18dnk4QIDooFl9Qd9eXCmLajL0oOE4PtUjzXzbrv3snc+2QCOHcAz1ga6k0P20f2/WHlLCjQgTepkUSJpIfASnol4QkiiArd6HX25lX23dHTWwIZR8UGgMrfq8rdADv1ht886jHU19+fnJ+VdAkzTg5B/mycpZHIQIF0w4+SINis/gmnc3Ya73sjRnatsijdMRQYx5mxyDqU6vTrns5isHCNKbGOzdz7ay55evxYpChhgoK2DG5IILwByxveR7YPBTL3/EmUotkUSYeu1F0A2SE/+05Nw7dxnbvudAmODQUCXFYM58LMHozRllk/LXEbKCaZVLwLArw4gT3NAsBu/+biuisS3KB0DPUCMJ0KReRDFXN1zaP3UEMTUHntiVdWjb4Gokc+bsf38YAxX/sTO8WDSjKRFzr4QXK1nmUl0v9vN3jDzPkchQrMUKaOKilnBLOg700TwTSDwAUpKG2TIYHoo/g7lxZ7cA/iZBrh7ch5HDwKnkcSkI1juRBUNxXKS0ffdDLVv28UahJtpBk7deaBrB04+3t6qJIOuK5UFEaWwKF9GjuDx9C2dU3kqwFSWjP8Ra/KKwnVpivRsxePqC9/7m8nqObqrxVMvJ8nRSj/bMskaliseu3iDsiQeSwhWaiSSuX/noaxbEbG4q0T7b2k7TLIx1WzZVP1PlOAFBoXl/zHu4KpvaMFSpEKbJ3SLtSYYejGLwTPN0wo0qPiOQqdQJYvS6n52WKfRs1AWnshxPgxuxti7A5ry6usn23JAAlvBzkzLVggL+EN7TUzlo3EmdoPAebIRKmuwQKYMGWx3FYJyPmAK5jzclA9IZDdLMumZovyZpSweAjCbDzu3D6gPmh0GJUR99vZ2tXLc5IdoAlCOQyJMpAYSWuoQ4nSqk8B74IkrHl1adQjiP+nb3k1BpMYvj8wl8hJ1Smh9m8KxFH5zjzc291lqHnCLOwkOKy7if9oVXqGmLlVUn1esF/Xqxs/s0mD5pu1Oz8jO2c1/8LcZ3O2u5Bk5t1vlVbJ0atOBU6KAtl5OJn/iX2UMQM9Ls2ROCULiGw00Ytwlo0AcChrqQM/jRpV94Idfn+w+m16m4raHg/L49WL8E3qJEdVMpK7yoHzTahgEIIq5r1oK32Fbsee3Sm2s3MRLNlGjtfmLpB1xJs4NtKu/73Qcy4uXCrPxl3tQyvvWoKMl7E+vzYjtaeIy1YVQsLB63kY/A/vp9l8GocUomZi8JOnLQX97MMc4UDHDtJf3Z35d8gONA9HsJjIvtBxa8jZetJyO7NomxnfsOstUbf2Dfbt9rGkVCClp9IMh881+Hlaw7Ow0hQ53aZUPrd4fFeMPAUg+x78C/dLe/PsCqXl8X9XI1wKZ/p8iuJcByLMdkGM/hbbyKFtvIhED6WnyE7deUxxmMfv4xEsDJe4qIvO7n/RrZkJ1sIx6ufsd25m7I977YGgah4zBvrP42HDxABTQ+JMZjExlLPvlmO/v4m+85EL0QBGsOp3ljGX/waXDgJDDKMV+oWHzpPhNuhCofUzC9+orKyXkv6Zq8kl5eiwYLP46bcubSM5dJ6Nq5mZi91ACZIXvCYvVjpYvP6N1oT0qMon0q/dF/xDFiGmde6N6iFyB8kKiOlWJh6ZkUM6pPcA2QVg3nrtyAYWjc/BeK32pAzmmUNtS2b7/IyuQzGGRhX0FkOpuow6c347prR32vzm25eN2+52BUcRCn7rPdbtiYFTAHHzhCKWdwaBwCQT4fzTroR3iW0DBhIGnmECifr7inZ2LyLihy+EZWVFtOPlDzkBAhvkVjRqw6MwJq3ku3Xhne55oimhlrQXR/p2cxaZKnQUz+2IkiMJ9+5WPmCSlR9KIXFwxhvRDM53SiMXxiyfvsnU83c2XNafxkY5Y09UvCixP/3Ui+WOey8QWfMnwe4oPINvmrZhjyo1TRyUQdJUN/u5wfP/LxnJOO5l6gyP5lKpaLRPSNl5/JyBaeiYTjLex7vRu3T+uGPDgsWZgRROTHtNg2Ta6qWhV+GmZ7bGE6zySu+vbkPud00DhSl2Zsz05to3D5M8QAaoRMnV7sHJxOpg1aHrk89GNaCJAfQ+uK+U1q+cnySaPXx7bJGXxP/jl74UIpol8AcSqhXXZM5/SVq1c//IZ9/LWwrzsu+VGeIdCWqRlmEUBrutMJtop3t6ld+N63cFr5MbLLU0BtwGe/taI43/YTxGG5XDR60DM467IiUltMh0ASHR3gKE8nbYPB4BV4g15fsykdNLxu24ilghQVMk1mMglHmAgSQTHSWEWLrNkLRes166f/8DIVxUMTZjAHkNhtONwWjAecVD5G0e6cUTI4alZ+zjXbr7ftZes37UqmaiNYEpuRKdMzmF4ipxL91mEw4F9YXpT/X8JZOLVqLHSmPqRP0wdOy4sL5sRrK4rBRSPOfh+Arwj7G+NhpXy8VnooUD0RWLyypas2sC+3mT8jROEyZa+vZRQtkWqyguat+pmewU5+CgozdV+2xP7Poh3+w5l487GRh0Zt1F8Szre5iWIwlXfqza7W4YNMP0ls70GcnEshbdm5n6349Dt8aadh1hFz/yvovLdr8gBMiJGpPmh6myLznLrfVYvQV4ecDTR7wcl5z07K54rI2OmV9ytut2mqVNW5lVOu/TQR3Y1UvQnnnBOcsXDVnXhD4LlIPZHmugWG/X7HJP9l+rLXP0UgGxn8otMymBjJSyQSQx1dk7GdtfVRWXv2+xkxgqcIeRpxGwXPH4igOABk6iQnRS1e6uo31jqiRZNNDF6kfeWTP+URHQi8w4+JGXcwTECSsnCg+BoTGZ3TiMFUrCj1/1BV7xTcto8GF38iMyCJ2EsHmC+baM35y9ex7XsP2hoJSDP/86L3WXHheSwHB9KSSVvgDoxMy1dvZK8h2oP4ZR2q57yjRiiPSsxb8yl0T1Ef5q15E96HwhpG+cQUFwbfiZAdesMVQxrNmI/MarBFGRNh2HCTm1CrD06t9hV+TfmJUiMRTcAThw+phb9rPL5el6huwjLq4CbERCXjF129cQdbA8+OneGfGiOpQCbG2f/+KGHbsYXkItyHyI7IRG2QEkjLAL/S3pWerb+IfA/cjlY+3+OGYKPvXdyDRHBEpxMJxqLVfYJdlhGuguk1Z+GTKL+he03TvtT7yVPpvqlky2CqNDn/3CX+ugOvNIUgUTl19PMtpqKUCI7KaNbO+e/ahGChycU27tgLf604k2kvTZ4hnkAT4SFDDDGZ8ullpNkXmyw4KqcXgfzLWZF/MGZkWX/0EoR0BsKdbqLPDUM6TPDBqEFfjJdYsEbHR+L4mqyz+6vzxX4ePqGcQ1h4CT6geVmqNmoamDXf/sD69kq8DtOWZc5ra7nDXWRsKAznSwSXv41Y5sFNnEo86A+y1XD5cakA5LQ/7Y5Y58Khp7G28BmTSA1g4Ga/9GFUxAfRQY6Kq88/lXU+Khv1zReBJqc9+0zcpAy++uEG9hr+eJxXCpwmJuIA+OPlk/Lfouryl/pwBHIcRzYKrMlr4et9WhRtQgYXjxr8Ng6fLYIpbLgaTE2zXr95F7caWW+3HWGrvvie7YAXxppkdjB2eYve+oL9BHZmUm7ipXV4wcgsaTGGmFo8ZggtllGJgvX+/q/3uVeIGEhhtMVjL4yCEX24/ucD2eYd+8wTDjHtiOBAuE2tbNSVWrCSxp4keuH1MvBL6cOsfJFrXBFtVd62dWcB3iYxOWtVirjSG10DRiRKi9/7ypxhiYBsyuoQWPfPd7hjxabUzFr0dkPbNCtHnI+4NZtBH3BCN5hW23LxTUoXHXtJJ50BfGEFLAlEoS/BPzF/8jU8SqFwWuVs2eXmLjnYnqsrisZsTAKd6fBPVOGv8C3qmn5/qiZMml2rN+5kG2CNsksfbtiRcvwSrZ8ffLUtbv2aFevDWyFaF49G4MFPEoh0WlJIAPMZLHjkxa5PlBcZuhsPxi4fB4q2lBWN5hE2hTPLjwMt48wf9QRtnqzbUYfIE05NzmDCpH360oM4qgWPuc2rL9AUrX81b31uC0kHtfj6aFvadCYF0+09EPZvhyts2LqHrYSxxFoHafbeMuzscLndTWTv0v34Gn01N9kEEvG//murHhyAM/HS5WAGk3y+uWLi8C1WmehViMH4BVFd0qQrlJCWKIo8Em43mPAYNN/YUwa0fUlVOhB+mpmxVik6LfgElKZIbZYMJO1yvJEkxb0nRh+oT03nsJAmW5/GACcR1p5Uv/ZlwpE34/mLPDnZhaTg6mpgw94d3z9r4U7mKsRgQjg5f9CbcEv9OxnkkbCkhW6Fd+gf/1kdmZ2iTIhCEYVjB7Zbf/nnqqgXiezClw48LrqS3RMX0SgAh/fVNZYKdlXi5dGJikiJEA/OysdvMjCvrgyjyUQ/3qHoyuPBeiietF2S2H0v/fXWlAgSZjDeMLxLUrHoDx5bhIevJCORNv2wn82qeY99FXIkkBsv1W0Y4SPxTmG5lFYhenIWwmJJ+bISGVrOJAVKIDxnz36YM2kmofLmHdGWLwuf6HUz9urJLGlqff3fni4etZHwb9+775cYb/z2I7ZLweBblZML54q2GwsnzGCqWJI/+H09GHxM+Avlsa3hmRhCb/czr6xhz766hnXKzY4SpTZVEmbR96VJ2Xr0n++zsmXr+D43cubQ9mzc0P4JcVAhuSR3H8BP0eGexOVXW3exr7YInfFqhHv9pp3s8+920bsimvyypD1oAhtUrZqLZkP3yy51vCgSOzhxEkK1b69amd1BUr4BV7pSFs1Lc3JC+wzNUp6PAmubwLNDZREg/EQ+1SdN26xLOKi2iZdfyfjLU2QZR85zibkkgukPaExICwmesvF5xBO6HxXKN8tNPdTES06N/Qf97BsEvlOy+kBXYvRJPTpyE2Y4hgvVyDDMbV+cDBOPRXF9QGOfbd5JmAgdT2FycGP+Z+XjoLo7C77e+snz7xnFv3FVUFr5BBwJE6i+oaoLKkrG5IXQpHRJmsHUyn2Vb0/BmjqVXGLUDbMDxIDoTlFnKPHsUFkECIe3aqTKYKpn4QgREk0Hb9+iA9cQsFWL6ImmOwKWU2/+Y8FweJ5l4rLwUNsh1JwMC55AqQ5PHCYSjgqkz+ZNHHkqlY/wze3qdXm/xm0OWbPUgOGl04RUlmpKSkRbjdxbMLgUP0C5md7wIymNEcD46bJRZGHwKu45+Op7Dh9XVftNuswlvCkxmCq6mHIVXY+k1EaAFChIwPVld496gTAUlFYPU9zeX1CcFWb/JlWXK1LDHF0rZQYH1y39BCa9ZcloitFNH95P9HEbTQrycBswFHNZm0an+d1Z2aTo/R6z1/4YZJLDljKDab+G9DuEjyTZ5BFwGgGw9K8VE8dwy9SYmdWjMHsHkNodrK9/CUF0i50apZQZTAT4xp6/Hvu0+9LZNjnVkUMKD8SzSw1ybxF+/6gjdiTlmgpdyjACis4QteFcSovBRIZXUh7RgirOVx5JIiNAdmVZ0m+2guhkl0GMdlGMFST1v8pK8qNNfSJIE8CkzWA6FSFLxgN0su1IanoEEJXx0XH7P5lNkNfOmNMJ+2nseeHQ0bXaUaewfLp3MqXNYCKmpPC8h/E7Dl8c2TYlZg19WkGS1VLSXwgyoGUtxrZIoXvE7N2ZLxiGQ/CiyREGU2MqPqAD703qkemiFB+icDwMRwsuf+6uvIXUBYTAjsRXYc8jbRq61c72Xfc8l4muOcbg0jHnvQNTzkrqyJHUeASwv/UHZHfY7AhpV0LWLvIWqZI0avaECen5Jxs3yXMc5UZ2u9zhoZCTOM0dntm0dCHcZk75XVf9QCNQWFp5O8aJf4YBa3J19aT81zM1Mo4yuGjYGbvhwywhmXMkWSMANUo3ApIh30U5I6fPOxqWjD/xTxTiGQEpfLtkQTt9dZTBRFyW6n4M+v4+y77uNMGHGj4Z7kqYJfOfmTicO5jdmpvirfBD4OQHZ7OqHd4WxY6P4wyedN25OxGlfTd+/i62rcPyGf7zNe52W5dS5wsfevEYKM230TKmBQLlFVMK7sn0oDjOYCK4pPD82RDVb2ea+JaO3+X2YqrKd1sKlHHQ/wp9gSeoBqeAuWObg/6MMJgI15hKJrfDVlKb/lz/C0/fMZzHsRXMwLYIp3ODuvqLquKCac3BXGojYwyePu6iN7DIrBT9zZ/m6nBztYP97X5Jl26x2pM1uVDTpJ5Vkwt41KSVn+lrxhhMhAf21/0Sxy3SikjI9ABkAj//GKjEyqBYcW/RCJgkXVlH3eCEAz9ZejO+n5lS9mYxvrBYSiojpdAldB8bvoLnkFC3ZDsdIzFTZBnyLDhUsCCsylHhMrxNE4LnW/VCtai9KPgQAZF51L71zOE5QVSR/rcQhu8AK9U/c+ev+BfaOeiP+E9GZzD1KzdX+guGoO5w2hvDZDvuR+RpVNMZZzAdJseJuPH4ebyohlvnA8VUG59/73EvaSn9yziDqaPTCocsxDe4lreUTmeKDnc2fponKI2L/BhoptoSxdssDCZicAB+HCyYG7kzopWZMkMOFn9gf+2voVitEh385oBrNgb7xgzZouwJ9sfXyH8LhWVdc3SuOdqA0rXf0PSnZT048Jm7RwifvG8O2qiN/wehuDAbNr0gHAAAAABJRU5ErkJggg==;" vertex="1" parent="1">
          <mxGeometry x="722.38" y="246.82" width="57.69" height="50" as="geometry" />
        </mxCell>
        <mxCell id="Fvsey-Ng5_NLrlT-ufVr-5" value="" style="shape=image;verticalLabelPosition=bottom;labelBackgroundColor=default;verticalAlign=top;aspect=fixed;imageAspect=0;image=data:image/png,iVBORw0KGgoAAAANSUhEUgAAAKoAAABgCAYAAACNBelQAAAAAXNSR0IArs4c6QAAAHhlWElmTU0AKgAAAAgABAEaAAUAAAABAAAAPgEbAAUAAAABAAAARgEoAAMAAAABAAIAAIdpAAQAAAABAAAATgAAAAAAAACQAAAAAQAAAJAAAAABAAOgAQADAAAAAQABAACgAgAEAAAAAQAAAKqgAwAEAAAAAQAAAGAAAAAArliWqgAAAAlwSFlzAAAWJQAAFiUBSVIk8AAALDxJREFUeAHtfQe4HMWVbvXM3KAICBAIkMgCASLnYIxZksFrDA/BYj6btDYPMCx4wcbArmBNWHB4LP4w2fh5bUCYYIMxyWAyApFzEEGIIAGSQEi6YWb6nb+qT/Wp6uqeHokriX2q+/VU1alz/nPq1Onq6u6auUotS8s88CXwQPQlsDHXxMsum9Lx0SrNVVW9tkpHrTK+2WhsGVXUhiSwVqzUyCiKhquYSiYtoPInKqpMi6L4VRWr5xpx4+laVJkeDe748JS9NpvHjMvypc8DX8pAPfemyWOjqPOHFRXvEUfxihR0w6NKRVFOKU5i0wao43UKXqpHCllMQUzHfBL5NI6jp2vVxi9P2X+bexyBZZWlwgNfmkA958YpoypRvE8lqpzU2T14k3q9TzXq9S/MiQj0zq5u1TN/3myK3oviavWGn+y/5UtfmIJlQIvkgaU+UCe++GJn96vzr4pV9L9oNuxelN5iBs1LsgWzLrH2RlHzyUazeugZB275Tp7cMvri8cBSG6iX3Tpl8Kx+9QMKmrOqtVrXQs2euLQX+LGoDWI0e6tKrab6e3qupDXw+ad+a+upBXDLmgbQA0tloJ574xM7VaLor7SQHFbU97IzZBEGps685LZEvc1m48QzD9rusjz+ZfSB88BSFaiXTZnSMWta5WfVWnRCs9HEjQ7FamqiDEwEUdqS3EeF/IRAZAwvKCWGG5QEJOWAS/XO7kGqt2fBPVFU+c7pB279QUjdMtrAeECO9cBoKIn6y5ufXr4nbkymqBobCrtMIIVwvUCULIXyBXISIy1HcVxv7HjGIds/ltKWlQbSA/RMZ8mns2+YvMuCuPFKVK2OxaoSQeUf1koEVc7hy8i6ls+Rs9iiEGJtEhEHzexRXFUPnf3HyccIkWXFAfTAEp9Rz5n0+OZRLXqcZtKOTD8RLTkpvyURKJD1IfNYi2/FlKp2dKhGX/8ZZ07Y7hwfc1n9i/XAEg3Uc26cvG+kKjfTOrRDrj/RxcJAzIusHN+E2FsFoQ8VwrDr2Lh55r8dvMNPfZkvon7GpMlrd8RqbNxojm5W4hXoJrOr3oB76j21uPoReeptFXW9NPHQrT/+IvQtrRhLLFAn3vjEOhSdL1KQ6mejS1Ng5gZlzijWOjpVX1/fcRMP2f6SHJZS5Av/77NDerrnjGw0at9oqMphlWq0TWdHl2o26caySdEJw+CoZNTopo7eCNMjtEpV9fTO663E0d30evj3tUr04IwP53x88Qlf7y2l+EvAtEQC9Wc3PrVmb9R4jmbT4XHcNG4KRkfYg3ms7cySQYwgMWwDqHxyGbGoqaL6bhMP3umBfIlwyxnXPbxu1IjPrlQqO9KJu2alWo3MU4/EN2ExTbUm00jiCUlEQdus9/eQbW/RM5NbarXlzp04YePPCyC+FE2LPVAPmjSpukV1rfvJwTuV9ZAdDCHQTlBCLIQRJgoloshBmYtFDXhB0Fufu9Y53979HSGaW5z4hwc2jaPaOV2DhuzX10t7ZmjmbJW4H2X6X6nWqONNzMgX9Db7Lr7gsN2mt8JfWtsXe6CeM+mxy6qdnd+Tb5rY+eykMoPAvMh9ed0WJEopt8yBWCzGXK4s13RrpB466+AddmFaKJ846ZERzf74JorsHSm4aQWUBijrb9cHrIfluY4cy4O40Zin4mhSberdR0+cODFVKBmX4vJiDdRzbnh8d3oEdQ9tx3Nc0u6ghAYjHK2OGl3xQy2IZcV8bttgL/u+3o7ubtW3oOfUsw/d8cKU25Son9FZf3jsKArQK7DOxOUdqd3+GzTzmWt/oIGWFKpeb06PGvVvn3P4rm0vUaTexV1erIFKz0tfJIUbtepkxscZQjGCDK9iUcmZYjrUYoBUyC3Vqw215b8dtuPzTMbe2elD+x6lAN0KoVk25arPbXCRM2x4S0d3ZrSeveSnh+18gsu99NYW2wP///jj5FM6uwYFgxTOlId2V4YQdiKGXB7NEJYVlZwou4lbs8a4fH6N5YTJtf5K/O/Md+YfHtp4+tDeN+kuvmWQCgx/sg44iTWkeaE82MCgomqts/sHp//uoft+NGnKcqn00ltaLDMq9pI2Go23yQ2d2hXaWeWdAtdyKhaVnCxhcttSDOAKeTUWLXOprnV2qd5m7xbVvsYQFdUeUFGsJwXG8KATI62VwWYQC+VzpdwGfmYNbXHUnD61a8ZaN0yY4K7HXJElXlssM2qj3jiCPNypvVzgae04OI8OrN4wO+bPkJKby8afXNM56TPPH6lWoNtIpvKsm1+b6lenejUJ1Nap0d+vKv3qz3FUuYUsqOB+SdwzGVtgjzwCsLK5pPkaRfedSuh78tpX56YfRE90VaOONdbrWfX10347ecWA+qWGRM8vFkeKf8ha2EGoFztecrK0yZ2WYhBXUNRYrMzsKMScImM4xKSCB/SURpuqsFgWRTkRazvj2RGCRXCZtsT4ZqOO569rN1UvNtis37YBi0lgwC/9Z183+ehad/cVfT0LvC5lXOe029aiaHAkApUEhIPRYgZYQyRHNTwlAZzGkLShlWRrCeCozud2WwLKJU7KHKtqjfYt9PfdNXXwzK8vjcuAAb/008u/if29PeQTuEge0k2ihZzb7qUaSBgTHPJSTbppCWHCFJpbJcbg3OHPX4NYNpaTuW0sWUDf+dB9ITksg8Ke80ClYuB4csYHYWqj3o+3Wnuu8/kqR3uoS0V1QGfUsyc9Mr7ZjJ4k16Q7o+DMdhOJpFKmlNbLgbVU25LBnAjltOVzyUs1uEr3I2BfVjZLkZZICAy8eYorOejtGr3NavY2trvg6K/QjralJw3ojFpvqh1pYDrsdCc9VeADsOGwsyMNZ/pXbnAZg3NHHRNl7jCYimxGud3EMyNy7gtg5BHE9BVTXcpw2UUC1U0ZGGpm2VCQQhprVlVtXj1x0ovmCY0LucRqA3ozRXt79jMuzvYPTjTJFGyVySXyFCPAXNiYaF4YpZ6qgZ0hoSzfSL+L+Zye0bLqgaBKu7E2/nzux/sT2yTJuiTLAzqjNuLmHugcOs9HOrPwHFk0FKlrWF7mtlUSuWwb0wI3cZ62lCst9AwJeFbKOUjekaW4oceiNs/IE6EoWcF0QHwSxOlLjBSt6hoaoQFdGhaZ6rcNWKCe9tt7xnZ1D+lCYMo/3wDUfWdl6v6NjM+QgPpkvx7SLWmhQOQTy/QjDSUpF+qAxNJlEpB+QDlFoxoZ69ubPsvFMkhym7JjAyoeQExCzpHGp2U1GK4tQK9WKoNOufren2R0LCHCgAVqR23I7nq9E+iY588sR0uGzJhox2eBwhQMCxIHEwejHC7DkfMZsE/KGnyfYqiM6EMUc7OUl3sgXtVjllVfW9rGLXp3WxwdurSsVQdsjdqMGjs26rS9zB0f45EgMXUWl0qyMXsmRyBySkuG4teZT+dCjulh/jDVynjNXpXZ8vOQHaVAiplsqy1kTcCMTxu5N5o7b+Y61PpKlmPxUgZsRo2a0WZ6rYP+wOHyCPRRNnM5wBYkwd/6IEEE58DMkFBtNSVl0EximzkvdalmYc61UOorxpI5s7p5gV3EaHyTDoHthgBBYMo/3UQbwWnBeqpgW2LFAZtRqdMr6YVV0jU4e1ETz5BtQeUozmJkKWxvCCKfm6W8PAASIJmockTzNTktTsUB0AHoUkStQK5pfoTucOI+UkgskeKAzKj4xRMahCoGgo+yvYPfcPCsKHNuK8RihZwneCxrcrfmRwdEMbnxAX2+RKENWkAAEBCbI/MwRr4m20IF4DhGJWByVuSyoydHTvLw2h15pdoR/fCq+3aW7UuiPCAz6gdvzu2KVEcFPilKCzVDAlCPkouc1ZWlSAkfoog7t80D8apSnSjnomke22oLQjQpIgALU4tmyLLvQzhSnLZn0gnb3JX4HgrxLi7agAQqjKfO4TuR1qWy8y07Fxhxlk/3hjAliwZx+wCQCqjnc2flDUVKGJCAWQFhKec2Oy1OxecrbEyZU2ektKTEgch+kIiynIHwOhnH9MXtOB5PHiTWSIpmdA4kYUAu/WrQMPo+ZaS3X6Jnhb3TUUQcImcZmRsUczGTiELMQsBheEWoD0CDUJQCILx/1OSkNxdEWuky2RYqaHlLSI3hy7PMbavk57JtpAJoyAjcP0yLYYEfWDwR4WYtp41jH9iWtEB7atc4aNINAxMrqZrC0sDMqEPn9qnZNfM62Rth31HGujAVbZ64Zs/nNmiZzwBIgJQRM4R8bbbFFrIQCMDcVNAkZXh2lDQuF0KU76SGC2JpjHjkCrPXQaAusW8BDMhZMnG33ep0kejnKIMD+DAO5hrnhsqf8A0flkaFMDdzeDkDaEeneEz2uEWVtXCeNjHFYjAhZSEb3T/RZIosgzwn5c2OzF4IwcYl/WaZvDyDJeVTjOW6emcOSKzk2eXTB2ZGJS20Rn2XHhivLr+zDuVp31NTCsYsZZKlAEiAJCVEOV+bbbEFIZYUl+gMCRvKd1Sf2JketCGv1RmAQRmcxUwYsECl0+9J+h759vV+swKQ/SqIA8mWlgPODZBSflvK1+S0OBUrrAuLGphFl20oKFDdVlAGsco5SfeTP3x79OxOX8qsrbr8/8wZtd5sPthZqR6HFUBhCjgzQMqB8N2astkWW0jbZCk3EFvIMUZRIBZClO+kVhXE+gIwiuznPtLtfv/seb1BE5hnoPMBm1Fr8wffowbzwxHRjYBzAyQhwMViP9lWW2C5NM8NSrAUyFkEMjSPLY8uZW25RCGIV85RGj0kXyYopWkWg/5DzLC5C2xV8iyu8oBN5+cdv90n/T3zP8CaqtxWM3QZvggfDpUqGDN5sBhCKe+PeYJ54nF9qYPNgcN/zCNt0uLSIL+c4HMmZZ1yotfpHGOxcJI7ckRDnd/khez3xHXVYiR6pZy1QanZvV0js2u4EOAA0QYsUGEv/YL4n+jIMd26CJzJYVi5pnP6wDhZFpSTFApIbnP4Wd42pgU5MCjLxGKcyzY7iBxEnqzDSxXG4Fy3S1ku+4KizrKco6nIfiFqiyzLcrYflkMULLOacfn3t26xhhNyA1DMi6KFVvXjK+9Yrx517EY/MrtVM1I703vUjX0w9F8nW2CCmyMQc1NBk5Txg89pkxVZbhF0kpXLGXPaxMjIE3CR7axX5hajrG4rkKKkpLREwzCPvvw/LeVKS/TDwRimOc0ofovyp+gpz72XHLfvMynHF1Na5EA99ap7N6CNi7uTgftS13brGjR0EDZM219Jxq8ls622wIQ0X2JBCRPKDmxibrAbXwBGO4Hp2FBGtyMg/a4dkBJySviRYE4WigpQjTZ94Nev6VusfT3zqSvR/bRL8LaOKL77omP3eY5lFzZPtbeJ8KPf3E9fhW5cQ18G35yCLF1C2F5kARc1GIsGskCtMaTMYAqTg3htYITki+wXqp2iximrN6A0JaUlR0GJCqtfSPtp2OM3okp05CXH7fNQCXVBlrYD9eTL/7ZjpVo5o1br2KeB35UXv5IsA9FsSBHOEcWgJUSUjsAZKuuF4uzJPGCPHsSSGJg9ZN2TRxUY0nmoS3t9+yHjJ2sH6QKWrfuMXA8wMAnbf7hsLEtrLF6Um+4aGVMuZZGGbNVv+KJCv8TS7O97oBHFP73s+H3vLrIl1CZ9HWp3aCdfed/FtWr1eOzcl25xmFAp6SPZQR+jEKJFEJXCagMjz5Yi+wttKKM7oDQlpSVfT6s6q27Hdom5sHKMQT/kjP8Kfv2oWU8cRr98Xfrfg5cK1H+98s5N6KcTJ1VqnePw0y86lfRVXsdairNHuYct8iBeGxgh+Tzb80yxGGX1WoEUMSWlpbS1XInVt2s/oy+sHMsjL8LAOjZu1t+KmrXDLjlxr0ekXF65ZaD+8PJ794o6anfE+AWNFqnION/tXR1VjQZ6vR+bc32OfGVBzjbkgRzCKLI/ZI3FKKPbMrtIKTktuRzFNam6XfuBvDAyvkULi1GtVlR/szHh8h/sd4OP6dcLA/WUq/92NP121KUkpKOqyKBCN0tvElidfrv+giN3U3X6ikaTjqvvelZN++gza1sGy5O3jDmFjDzx9fTV1Qarj1DTP5mr9eeIWrKDUUa/I2BgUlJasgpKFlLVBiOtlwQgtqJxC6E0aEy2GTtKPf7q+6pGwdSufAZTGB3yBC0jT7v8xG+cn5EThPRuXRBRPPnyuw+M4+oVZCR994mgPGVQKA8rDj7/sI2mALnuzpoa2t2hj0rFfBOA8VrJe3COHcBAYpsxU0PPsftupY75+hb4YQXDID5Zr86JX/dV9kHw2qIj5PoC63f8pVQrVVhglTh5+eB+cFshADQm9su8lYxsX3HYIHX6ITupf9x+A9WHfxEIxe0mNpZtIXn2RgiqElXP+98X3fbdUBvTsqNGLSdddd/Wzahyvb6rpzor0bkwgnoBz7gHIye5I8tYkJFJMwkc2UZlH4NfE3IuB4XLDNFPy4qTv7Wt2nTtlVUvlbld5k4fIOgrFKaZ7nIoprkrxNrdnF3FQejnbJMr5daYJy93ubO1PDnQlxvcpU6jIB0zcjnVwHc0suKGwh2hPIhHXOxCCSHErMvpnNS66nF8zff/z536J6CkDJczgXrMr+8cSafzA2Rksoj0Roklc3I2kHPN5luYI8tkluUcdOkQ5ivKWRbBPKgz/dVL48KAJAsgT1JKSku58iwkctltBCX3QbC0LLIM5y0FPAaW49xrdqpVurJV8WguSdYVoiMah9rZI8yblwtRzcJynBs5o6kZ993+vYtuHRPCyuyeGlSr/Zo8mrtR1kB6ULCmjeRzY15CQJVNDmcbchofew8IIMVIS2X1Mx+rxuAtbFoUWehcVHltd2I/xsGZRoneCt/vetgTYarRrT/5o0YbmK6kyp5M4NyZUf/l0nsP6OwedAA3IocKeZDl8I57SAGvLGW5rOU9Pr9K+1n1TQ9uvFiuTl/dxSWpm54YDKKjSjGn28EgUyLQTz/Qiks/J5D7CQMHsEzPuDXNcTMB3M4a6aG1NPJGg2iEJy/XGER/ICGHg088lDvohgQ4kIVeyKCMNaDkhVtRp/8grQZ1deh1vJFJNy6xTs5Tq00JdItBOqEXD9xBQ5v2fZIzBtD7qR08nLSvyD7Q4Q8kT5z6aDyIVj40o625VN3GpCTHySH/at2D9zjql7cebXDSTzvP/8tv7luerHqVrBmZNrcuQZ9M2hmSECij85ccu5duwUD8161T1JsfzjGeICoC7NDdNlErDO1SH382X93y6Gt6YPfeah2100ajVSc/2iLZd2Z+qiY9+IqaMWce3SihO8Yi3DQds88WqpcCY/yaI2k7QqRxX3/vE+1g+qqMuuS2p1RHzZyrGAQkDNY/bLG2+ur4NdUQugnjV0YL+vrVwy++q25/Yiq9NcZ7NzdBHvdpx+63NT3NaKonX/uA7prfUxO+srHaftzqmrmPTpr7nn1b3fnkVLXy8kPUP311E33iPfbSdDXljQ/UiKHdRBuv1l1teR1c6AqC+ZGX3lU3Pfyqov/lm9ErrYDto1cerg7ceZxae1XCSLhx0kz9YJa68YGX1Xuz5uo7eSk3nNamh31tvD4hx66xovZVLz0leWnax9qnGJu/PvFG4tnEURKAy4EmBGFbSQ9EPKvWaI679JQDZrJseunvqR9Av4nZMkhDassEJyvUOUcFE1EXNMyaG64xQq283GA1/eO5avURw9QRe26mVhqeXZGMG7OS+vdv76z+/Nhr6g4KAL6rx1JrQ2qTCUG50ZorWxIGlh+/YDDHrbGSOmKvzdSwQdkfWx7UVVPf2H6s2p2C+Df0OO3Zt2aoWuYJQqQ2SnROm/Gp+u4em6ntNzRBCqWY3fbfcQMa9Km6PG60+Y85b34wW31tszV1UFvjkgL07rPNeuqrm62lfv7HR9V79HjNSWQ3xqS7o6aOJB9ts0GqT/JtuvYqdEO5irr/uXfU9fe/aGdJ8HTQFWPTdVaR7KqLbN1ivVU1DSe5/kp/cPAdMV1pKzjFuFukqDKiL4oPpvrFTEsDtRqdi2AJ2hICY4RAbjHKykHAChlAzLRIwwd3qhO+uY3iFwQf0cw5Y858mm271eorDTPM9PmPFERvUXC8RjMmLp2Qf+r1D+m/PTfUtmNX07MRZqfn35qp29CuH4uRjSivT89YT9h/G4uHIH705elqxux5arkh3WoHmhWHUgAPpkvycd/YWv327ufUYzRj+jMrA+y88Ri1PF0RkPpJL1yBK8GdU6Yq+oFjqqcd3nK9UWq1FYdqXtCnUuAu6K3rWRE6kRDkx+y3lfrRlX+zVwHdQB84sX988E5q1REGA/Sp789Wz745Q+sZv/ZIhZkSaddN11TrjFpB/fTaB7VNcHwPXS0eo752UbAjYHFlgv6naJavUflt8iv/4H84QjR0+EP0kxnSnjPFy0kmjqLziOoG6om/vvvAamf3Kv30r7gT6z3J/KqjNGBURpIEfDZgGBz+NDlkcVlCev29Weq6+19S7378qb4sIrhGr7yc+ue9N1ejkgGasMuG6qzfP4RfSya/xurXtz+pevsaavMTVlGD6LXdvAX96hoKsJ5+estGKngJMWJYtzrpW9tpPfj4O806f3zwZc2HoEfw3Pjwy2qfrddT39xhrOY76Cvj1PNvz1Tzevq0PeCR/UKQYpa++o5n1GQKaLRtSDPorLk9mZl4jeSE+9Ojr6q7n3qT7OyjGYzuwClIdtlkjL4s4y3OSsMHq63WH6WeefND6iJmOePL7+2zlQ1SLJUupSUNTtgaFvGU/jz5NbX+aiP0smQEXZWwPNh987XVXXQFwsn62fw+delfntT4uEJV6aSY/fkCddEtk2mtXNMnPq48ZRL8IE/edCRdafgDVz1OqHNCsaOze8gRP7vl6N/86/64ucKQ6kE9tZ4TpBDSByGZwXBzPQLQwpqsAAuaJsNCsgYNakViIUESxXk9/eoXN0/W69AO2tSASy5ucGbM/lwHFLOuMHSQc9kGjw7GxCFwDByOmxssA7g/u2+2tnXaK+9+ov5w3ws6yCCv+SlHwP7l8dfUrbTEQMLMuseW6+h1L3BC6S6aPRGkBqOiZ8rZc+drh/gy19NJCGzM5Ljs4goCOczqwOCEqwNu7KCRzlW1Ii2PNhOX7f+c9Ai95ZtDN2JGHhjAmkZr+bN+f7+9YfrmDhvY/mOE4Y9aLY0crG/hO/YB63fGm/rNPuQcfDya7BUz9jIODBro6AMO8FoMaujv7SVabP+pcOXEK+5Zhe4K18XZz4wyt4YZ7EQDUNPDMQTw3l/KLEFkGbOWqWvd6c2nJk564CVrm5RC+Q26THLC3W2nCEDuhwVnRpGj35uvl67PLr/9KT2TsazMsf597JX39IsDQOy55doCKVu8k2ZHzIoSg90muef39tMN0zQdmNKvPIhv0GWc03K05NFjRYy45I9fa2V7ZcCyAksjiWF1ExGX82emfqihELzbjF1dL3sYG1N0GqpEDcUEyOJgWRkDYHDqzB/AyzAyIIGQNaO/84tb9aK7Qneia9Ad8AgtYJlEQVrFBrBiAsNf2HSB4RXRCZlwGYdDTQ40lwF3nXyTxHI8AHPn9zJJz4o+n20MFKBvSFenGkGvDZHepxsV3N0juPKO+TS7Y98AEk6MMSOH61Fhe3QDfXw2r1dJ25jOufTBrM8W0EyHZ8m4uqUH+3XugrSPXTS748qAVKe171brjjIV+sRJ1EUzKe7x+JD9AA0zK6dtNxhFPieNMIaPpBEj4I4CS6WsLCL7Ai70QctTg/WLz5TCBUsaW0XL1xr9Y8BQoyesW0eVGv2iGeB94/JM1ay5H65NMNZlxbdSZWLHSxqXcSPSS2tKdDiUMLvkJeukhAGckoYyrw/BgoDFTUmrpB9bJUwr07oRAe6nOckJJM1jSyUNcguof7jBcrzPzETFpd4mBCkBwHY8BhuzSvpfzI+i9XqDlg5FaUh3+kRj1IrDTEAlApgghCZtjm+r2+7UitQ6bT6m0ygqmN+bzerORHq0Rl/A24F+VjAxsH3FUimcVyb5XDJ4IG8C2XAhpsvialn0pbQdsVp+iLlZgyw2yqxJ77nbSQhaVsc55PvoJg4Xr7SvaUlHgFCCmd1OQ4KejoqUTRmgDzZzWmMlmt3bSLjLN0sTIyTtN+cDW0DtsrENHWAtJRpkopOuEm8PDJpK441j/bOXYWf4isoGAeRkknKyLHnyy+ZaF5LL0JLLYh6WDh1yCnrry749Y45+pIOFmoZJXIKMYaWXcOl/e+ZnNhjFsNJlPH+G1D81KoFgS/KXZ7elazn6wMCKwcWVB08MsPGmTMJVDDepzj26b5OnowhXmJLPVsAkfccARn28Ceo1MnQtfONVJq76Ayl5WpWLZHnQW2GYduqC99yxUE52BR1JljQso2fopIJLy+zPe7hJPzr6M70FQwD6ycBKcHDQs1jitfz+bxiAXYjwYJQPShbm3MChD/pxDZmJGzE8gYANdz01VX06r0fGr9+N1JwEEjMqp1RLQkmbmEXnHB8OMVQpYGRfBMUsUXOthWqNsFYsCiorIwrt8gtRXcyMJxkhMVF2znQfgOtwBA6ZfCzZRmXEIItgcN8VG7bXodeO0GxuyDxcjZNcygkAr3mxPsbNDRK4zZVJV/UHsEIoZn72Wjy7U5RAiUTRB5wk79DDeDz7xGOoNVYcrubQTZx+kwSGQAIZN1B4jW1utIz9AVatIwcmdWJAMK/XzBq2jFuTPFWsF9VY4OScN0ZABpAHVbrqY/CNWzmAxLzEcL+TLeseAyZYSZpLD9c/+nQeva4dQm+Suuk140h6kP+RHkRrnxBYgd5SnX/U7vrREGQvmPSw+mQuvSjRyXclBF37NRv6IjBB86qaTdPB6t0fMS9eAjxBz1gRqEjf2mmcepoeP/FbPE30Pr5PG8i3H7eGfiLx4PPT1LV/f8E8FgMfA7MM19Og4RYnLwpMhnAEQpWc8WWb9BVEz2DEGMpDmCFaSJZpWX5/QBMOPYDGDimjyUQo22nw6/sTyvXMnAjqy5xdj4OI16hKTXn1A6vue/tsqYbTa0u2XefEhz88usL7fsxYeD+Om6D3aZOHThouUQQCFU13Er8aEsj2ABsSiybdtzMZ95tj3XAD12Bi7+jzb8+wj8vWXW0Ftd92Y/VMz7wanxRgB9SKwwbbvQfD6I3fo69MT0/IBJPl8EYKerQxRDQeyPtM+qD53DLjyU6x/TYn26wq6SCUk1Shrz5nn61wa0FulXgdLBARTcIColoslAVXqMgd4hwBKROqhmRK9HRSfd5LryQp4XXsFuuuql8VjlphmA40MN9Nazs8H0UaTI9vTjloR7UevXJEYOMSjwfr2FtwxJ5bqF3Gj9F8+Lj0tin6LRe8bP5sU27B2E0nqjHS8rG8sTr1icb2eK0QFT6ifQ8PvTDNkg6hHVl7b7UevaHr0tsSYT+WBej3uUfubtY+xI2Z+M33Z5lzAEZRwlsx9BUJV5dtaUPNyssPVivQK2ZO1j4icJnbnDwZIH9stSYW5NwRdCvEou8Oa7ROe5cWbhvpkE54AL7IKcEIIRXhJ/1z/v8GaH5ApiPta6C6sB+zDtZxuLQjHU47mjC7YPCO+9XtehvdZ3QJn/jff1fnHP41PVOuRs8XEax4sP85vQfv6KjogYcMp9sff53u+OfomxjfAvDo/dmuKTY2zc0hI4GZjxCSXTxYAfYRCFhn/+6e5/Sr4+3okk5VdQhtkTxwl3F0Y9VHfmvqExTLAfAiYclyzV3PmNfI1ip6nktXDDw1oNWNTicduIM+madSQJ8/6SFzYqMl8W/Q2iDR4OV9ZkTE+FGbvtzRC+/KK+asxfRrjjzAXHriOZbXOTFnDAgA4DKqH+wSM4IRMjhq9CoUCe+aTdRyC+e62Vm/aV5qNrOT+QTOXyioMLMgYbA44BCQmkYSeDt01n/fT7urZmgablRwNz1yhSE0mw6yMp8Q39V3Pq3Xdkm39bhxWQvTB/YTGAvIHvarYEpiRrPznliW5TxlT5dKeEVsPMRcuKkys/vND72sgxAtWJqstNwgNZL2veJZKwfpI7Sn9uRL7yA+vEs3SJzPp0D90yOvWGD4AL7CrixYoPtBg8T8mpErnFvpcIHZbM6dlHkiCpupt9qg6JiL//Jj+uW981re4ACIkvlMkEpkiZjDibvlcWNWNh2nlnfptR7OZk5oX5e2omFTRJPeymC/Ju8yZx7jLrP22hh7TEkGgf7WjNk2KJkXRmOw9t12fbUubeeD03HJvG3yq3qji+VLCkPp8r8TbdPbYPRKNLvQznyyAV+zfpQ2ML+By2USZY4vSD/IG442/cJjI2zqhq5Qwv5RbLfDOnce8cpXmz4/XiqMoZ1i8P4CmuXfIn+wDeBlX6AM+vi1Rup9qTrAqI5HVi/Q9sYHXnjHbkoBr5PIfiR8YpcWNq2sTi8Q8FLsnQ9nq2vvez4zBlog8OH4Be0JdoA1SGJ5iksSbZz3+9MO+kn0z/91+660aebvHKjMFEQIEGGDHAzIhzFcqn4bk+DhzPUTghVnMJJ+3OIziLp+X53UGcvVZhrxSIb1QiVmC8zmSGwB5HDgVSRODoNjnpdizUr/QKPQ8YwPQMYGvp+0HpxZScKsaBIKKV1bQFX4Qydq5j6innKaZnzCbqw12X9AhN3mZpIqUkiWIUwJcvAVy0MfZmjdpj+9D7bNI7eqMn7ABC0akc3NONrn2tMOuKPW2Re/Xe+I8esPpd6/+TZBSVZRlmKNTppcZ2f5EUhy1rDyKHhGAIsROHf4k4rekW9WFJlm5wkQ4WNQ9cD6nJ5u2YymXJuZMZFH8KCPfsLNXyYRX9k+QhbbUPHoKuiLALyvD33QyyhqYAzOfd/7sqE6y3JghniY5rik2ZzXbDReR1tt5ph500d8MBh7v4aHxoCVMJDJw1Td5jXxnOTKt6h5hniQucKemMNnMYqYHIlspZRoAVORL6x9WbUuJcEP8geJrrisBdkL7JeyXLYYRXYxM+VOICZ0YICOQEZZY2LyacYzP5s5fDrYKjdMmEBXivh39F+ELRMza4EcKoRDTVAl/zRf0Qc66B1Sv7EhC+CJZE50i4HOS+YsVJAiRbhcilEwST+gLJO1j4hui+BixZTrQUQu+bnCuRD1i8wic80jdGSc6IGwLJYhfATt8uQQhHzkYQCP2yBeqdBTiji+6a8Xf13vcdRbb1afM/T895b//OwED3xpgrSXfKd7zW4VjgikMNVlzBHVTI58EaML6dRKiRUwtfKDY6OjWVQEfpA/SBTyohhkFfiCNbdoMRI5W8+RyJshNXuCUWK1kUGH3nojmsgNesU2ceJu9Htl8QV68Q8OcWAw/D8WDuYwTh4unIUOyUqxpI+WzZpEDc4M6TNaCbfgY+eK+YwCpsgP1j7i57IQTYsJvj8TQcYKMoAmpqJ+SbJZ1gL7fXnUGaPMDMmzosxZHnkZjCIbNBbZj7xR77vkhokTPmd+u5mR7msvpwfRJxBT9jvJzI0cjhDJrYkGr+iJOa0Wo4jJkchWSosWMBoXZbFBsTaGmw1VYGf4M4QioAJ9QkcxgouhT+4WAkWzoz6xWsjnNduul7U9jnsqlab9Bipw7T3w1Sft9yYtXq+p0k9Y2wRg74BSeVher+CJOa1Wnpic2dHhKq4U4VtJnwn1JPmzowxSax/xcpnlnDzBLzU7OoLZCuvhXHMU2O8jsBzyzMwm+i3l5MyIchGGlCsqSwz2i42hIsGkTf/IL61Nr/3JoembB2rLnERH/eJPYNigFWZO360YDNapFSPzeXlpsQJGGXwe/KLPkAC0nfTRs/Vc1gL7syiJSpLJxRNCmcGlNitXEkPA2aLFAKVN+y1IXoHerVx35sGj/WZ76bcNtcp3aBX7KMWwnW3RVmSPNbyIySoIF0qJFjAVDZ21L6w6pSb4ufy5DSkEl4KsBfazHHJfVl91JEOg7AclMCROGYwArINRGAQh4TZp9G4vpv9LdlhILLNr9um/XvveFnsf+lmt1rU3PWzVMrbDJR0dUlRKtIBpwAPRdjJkfZYWZC+w30eQ8voSSQygSbqUQSD6B7f78nkYzC9zy9uG7VL+iyrXOjrprWH9P2g2vSaE6Z+Ilufwn93yK3rtdhy/WrUNJQql+tyCaZEDU+DbwWDbMwRuCOdBdoEflnKpjFF2ZvMHBvI4QC+L4VpgamzHQM+OId15tOSd/jXXnXHIEbk8eQ2gU7DeXK3W9sd/4vNTqXEqYFrkQIRBCb51vjQySJQMbjnIXmC/K21qjFE2kPxgBEq7GL4dLK/pbdrvYy2OekQP9mnXzwPXnnHwrkX6Qr5y+L/785svrlU6j7f/tke2WkcQDJBsHQ43LtNkKQM2rx6sSiwB4qkJioaIQZ2sAy/duRwSFjSNk/AGMRNe2JmXOJCL5HNluYFssG5pw34WXxpyPGGiuLr6ujMOPqqVPUX+tLLf/fktx0VN9au8weSgtAKiUHowRKBkZDIEoSBQDLIL/IBIhsQYHFQZBo/gO5LlwVYWw4NMT+g2bfdxlso67tXj5ukUpOeWsc/3b67MUb+4eVv6X2jX1Do7x9X705+YkQOSK4yGxNlB/iAxHy3D3uZAOvJFdgkTfEcBAzSNVRJDwOmitaNN+32cL1O9WuukWbT3Tfrvvodf95ODHixru+//lnKHXXDThbSB7Hh6V0BfWLCuzsoJ52e4MoSsuKQE2QW+5M0rM0bZ2S3kmHYxQrYwBp+4IZ7/mTR9WveoqHnVdaf/E8VPeyk0Hi0RDj/v5rXov08dQW9ATqt1dHXU6/TlORk4djRaQmmGDLvEKgeRnjKJbAbTw/E77vCXxPAgMzb47f8/1jGDNut9eFl2IS0Rr7j+zEOmLowf/PFqG+M7F9x8Ij3COpYCdVXaCTwcjxow05qxdobfYmeoSWBYhhYFKV9mhvQ72a58njkWp0378/C+3HTa0qQdTftIyR/0N1c1oxn0BP+KSadPuJAarbsWpp/+GC4MBsnE0bf/86bV6ScBx0Rxdbu40sRvjI8ja0fTMYLKbenhHpUJQhjsg7M82spigFcmiZGcdbJ5WZk9QAFI2/hmVZrxdHqx9AqN/xOq0T+5rmrTNlYvTaf/IL0wu/wY3eb/D//Vxx/3bPBcAAAAAElFTkSuQmCC;" vertex="1" parent="1">
          <mxGeometry x="386.38" y="251.82" width="70.83" height="40" as="geometry" />
        </mxCell>
        <mxCell id="Fvsey-Ng5_NLrlT-ufVr-7" value="" style="shape=image;verticalLabelPosition=bottom;labelBackgroundColor=default;verticalAlign=top;aspect=fixed;imageAspect=0;image=data:image/png,iVBORw0KGgoAAAANSUhEUgAAAIgAAAByCAYAAACIs5ktAAAAAXNSR0IArs4c6QAAAHhlWElmTU0AKgAAAAgABAEaAAUAAAABAAAAPgEbAAUAAAABAAAARgEoAAMAAAABAAIAAIdpAAQAAAABAAAATgAAAAAAAACQAAAAAQAAAJAAAAABAAOgAQADAAAAAQABAACgAgAEAAAAAQAAAIigAwAEAAAAAQAAAHIAAAAATufwdQAAAAlwSFlzAAAWJQAAFiUBSVIk8AAAJndJREFUeAHtfQmcHVWV96167/WSELYssgkh7Am4feJAAAFhZBHmN2hWmSioMOp8AQEZMGOclpCIkw8jqKPIoBAgSzeCSkQgiAmBwCgiIKvsW9iTkLW733tV3/9/7lK36lUnnYS8NOTd7qp779nurXNO3a1u1VOqERoaWIcGgnXg3lVUe3tceK7pgUocb7rY2Ahpam1VH2t5o3T00UdXpt740IHlyuolbWNGLt30EhoSrAZCm3gvxHQMOVBZ8TPP2aJqZWhToXn0e+E63kt1fM84iG01PJ8wbnKU6LsQRFEQxj+74or7S+8lA/T1uvZ5B6lpNahRdjFsTTztxgUVF4tN6q1B0X974EZyEzXQpx0kt9Uw4w9xDt9DoIhqtYpzMGpa+wODN1EvDXajgT7pILbVYB2dD3ithoMlWHM5sQrDcPtqUJ1sAI1oEzXQ5xzEbzWcI/itBi/YOEvNtYMhQivS1Nw0ccoNf92nBt8AbLAG+oyD2FaDTuEcg5eT5xzmMg3K5JKo3NWt4qhrBmTWbRqflP7+SvUJB/FbDade00o4h8m0GpJ1xEhUtC9FQMQqUkEQHH/Jr+/bwydppDdcA3V2kNobukfnwLW4loTe4AXtHM51HMaf1wRhWOguh9c7ZCOxURoobhTXRjB1qA71sXjPvwdxEJHdN7lLRzrl8kKInPErcQx2G4HaHahW5heSRgKaENUkKaGrVFWp1DRySsfikyaPHjlP0zTOG6qB2lt6QyVsAfopN/zpboxNDmtqblVrTz6o1BYElakd956gwqZbqlXT15h6wYfufSR48YiOMWM4B26EDdRA3VqQtjgOm2/8890qCE07YWrK2x1Bn5lwKYHzJE2OzbEFieODYkqpoU3DiA6LxUNHlPc8okOpBVZEI+69BurmIMM7VPBsKTw05R3rcQ6i/XEFL0tYDF/qMmWNLIFYp8IzGsiIfgPMdgm2keqtBuo6SIW9dRDL61wK5qH1bMRhxTGyziHYBYbJ8iIWJxQk3AtMQaGw7Xdm3TMxTdnI9UYDdXUQqZC5+2k/bUOcDYx4JnNbDYtkjEDeVGvEPOEiFAktXRwkxuJZGARnt7W11f96WZX3cKivwjzn0J7grOmyvnOIs5DEJRLH0KIS/i5Dpim0FDuFpn3CUtNear/jz2W6EXqvgbo6iNg6p27Gb1Ith4WJcxge6ys6mziHFYnRqyTl7ARobLm7S1Wi6vS2WfcPsvSNeP0aqJuDYBahCoUiHqYV9ME0jiDEUQg5TkjyloaxocN0RGhD0rp1kbSTMCethuccTHI8w0C+iur6hmQap15poG6zmI7RKvrQDZWjCwXPeqaK/mKMGJ9rXiZ4SYHEcYR5cvxjeMJwS2Njv0shTJwDzQpdyuIwPT73B+2Lp547ZuRay9eIe9ZA3RyEVSip6nZY4JSQu2ol+zk0nudcmhiL6EFcwNwkIcyk6Bh2LBOw8QiD6YVi0/mV7m5VKBZbl3ZWrgP0cxm2RjZHA3VzkNEdHWGh9YBf41YW49mCpT2RHgAnbBak2ZnlDMXSaAhbBCFUlXI3MlHNLIbXRxpNxZx0a4EasmZS5ZVoFLJ7RhW0SYH67KSZ9xw47QuHPSJEjVOPGkhs0CPJu4fo6lojzb6VqJ3DN2d26qpxcjbO4fOmXaHWOcjCY8WbzaVtAtWG7ukaKwY9z3mQdbqV14jzNVC3QapfvDVcyltAkKxr0CW0+aXVsFYlFKjsIpqVTS6GlHwDnHLqyJlodJ4PAn3JhabSad/65R/31xyNc08aqLuDiK2dBXW1aMO0c9A9EIRY0/Bc4xjWIxKSnFRCFKjqiSFmSwzVcoUzp1/nMDRAngbq5iB8YcU5h6mAdQztB8zltxokt1NVw6pbCZthbKY7rgzjXCYSyou/cOTjGL/cyFYpQnOCge4+58+860hfTCOd1kDdHESKpQ+YRQxxB54k6IScfYtiNMlsnnNoNicgyXr8XlIXg3M1KF+EBRWbDzEdmmYzjbhWA05Ttah3F8KFsjiKVsDiy/HMZDmMtxwgcwSAxcvRfizHw3x9AB/FVcAi0MT6AC/WMUhXrW1CWIBxNER5zsEr+v6ETz2EwerlxSKmTCAqNbWMPP/qBeOJa4RaDdRtFsMNO3CSd+WR+7evW3QXmqIjai+n1jHSbYzm+GjL4ec+0Lno88gNKnevVRiV/OCc9sW/ntFYPKtRad0cpA0bhuJZ9/4lCPWWQ9ZEjzjSdcLQIL1BiHTOylg6w4Yh/O8r/A6uhyDoLlKBXZN9PuMjxowJqv9+zYLLC2HhoqhKpnCnYmf3SUiwoWsETwN1c5DhHR3BE6U9PmIXshhzc6kNdAI6DNbFle33NIx5a3mdkqmvZewhzo5bsmT/9cWjpvz7LxeeC4fdXupSVT8FTcNBMoqytsiAN08Wfb+eqkZoJmB9cRbEEea4MqsQj9BwwsQRQOvTCayH6skqLOVRjg1e0oJsHEVlTHsxFkEoFEsDL7j6j9MtrhFrDdTVQbihh47hBxqTf35wJC5Rwybk5D3SMVa187k8EiLbB6TTLwxY+qdqpfte0lXKZThq+KVvXXPHwDTV1p2ro4PISojTNo2butOBASjxH2ayMIGQppaXoxDnZkaQkWC4aiMOnCHrgmKpWZB4CrhjtVr4ai3l1gupo4MkSu7ZMYyHeM6RcOkUeZ0jeCmNNfzIrM85rNzppx+1qNzZOZf7TKKoytXViyf+4q7G1wGMgurqIGaGoqcWnF7odTA71aBNHYymlimI0MkzYK59Wlpdfe0F1tbiFVqIPhNhfC2hyUsV1nwDL32vJFdUjVSLql6RR7Y1wuo2ixmDDUOT50SfzCo5swUkizb5sltKV4UIU5nST9COjPDbEsrBZiTQ89COoVOSXedp+umfee28q+6cjR1vZ8qLV0odP/HKP+72ozOOfnmdjFsBso4tCJqCKG6OowIOxjzKzYXQHExnDuL1AdpQH0HQ1ISVkGR+nPM+FFuN3jqHtfGlX/7Uv1YrFRlHh0GhtTmOf2hxW3NctxZkdEccllr+Mp+rYFjg1rc4NW8sGWdqwoGonoAa85i+guQxNgxhmJrbfdQ4h/B5/mTE5UVYlzkVK7SzORYpNDd97ryr5h9+6Zf/8e482q0FVscWRCnuLJfd5V2dqsJd5iYvMJsHrszD5IXO5DWsE46hnYPOstCzFLcMGH/T0Bpv8Yjzksu6b8bzomfonCwX095po9vb9f6APPqtAFZXB5FbXu5o3YCYpFMzDSMthIWQwMC06YHXoLQjWHobWz7SWlgv4v93/nGroyA+Bw/whA/fGDnig0sHHdgL1vctSX0dxKiR9suG9PQVWOMYmtScDV8OeyKOfCBIylgndcJnUjO+cszNXV2da62QKKz+qoZoKwLU1UHShtNaZquRWhcxRNqsPJsUoiRHMBwh2YamhcnyvE7qs+b1Ib1Jc1LNwLphKX6vs6+848u94Xs/0tTNQbiOal+CsnGAF6MC82IUtwLqgy9S8aUq/0UqCzMvW+VYgpvVE3dIXMnYOodj/SBK4dcB8I3ec7bW93ozc4f1K21jKUZjHeTBa8tTYXg8scN/VhAf4LmANFw3yr41BXyMgQFajtNgvN0cuUt4jkEYslxn29DAmsj7NIYX79SMWL7LodxUdP2Gynqv09fNQWjXC69fdGnE16Hy2q3Qn4qaiUNTrXorqyqFsBQcBwwcpNb4AjFgDnlrKWpl1kLSXJVKGd1N+MtzfrD4xhnnbl1v5NXNQfhrDw903vVqoMKkqeA4wllHp9glJDCDtHRAhE1wpFjh6ZrP64Q4ZoetEebR9pgkk3ZYpjgWQb5UaVlxPhIX4dhqQt69vNkuHi9N8rFpqxxx3Aq1Ix2bQ7VijGlgCQ2sw4/VtcIfHB94Qpos60nauegawJIgj4h8vQhklZmVOAcZAAmCfxs9eutaF6mrg4hdoHC73mEtTBtkJyQgsuQSexbXKKBdK+EoNI92DA3Ud78h6GVEKVk+5jG4HrLDsa16b0AvZb3XyeroIB0Zx6Cj0BDa9ClFAmhxGqsNrw2nKbPO4fg1qS6LQkxX4fC9SPjOocvUQvXAtRcC3kckdRuDJDrTyhbbAahzBmscI6FNUgm9x8Gkv9ZuUNbAzNKRmpatbmprb8foeP2hbcwYvBnu1SspOF3X9Yt6X1DU2UG0BalzY0utRGMEawsDlMiHuVYjxezbgS2Po0IhWITDVsLuIHile/kO6TING0VZhyLorJ/dTjqMeUwhLqJckzG8W0NUVwepVuMVeGKaHm7QEPrf6DsxgrURCQiVeYVGb4NsUQx7pDUT36Uq5piQ25TwW1TcIZAIFCaK0uKsDJIIRH9cxiB1BGerVEr9B6/NsiTM78NU3RxkjP7S8bvy4tR5V/5hMax0aNZSLp9yhPDBqBB8PoyDmi5GT2QTq3YpfgrPBC+pIYEqFsLgB6NHd86wNFtBXDcHaWuLw9VDF/4Kr+bmLKNqTcsCibGyjgAhkBlaEzHuY4wV4/249zA3eM6h2eLOJQPefvrd+hT35VvZlua6OcijwzuCYV07/zM7mChlW+0KNLbMEoBjhyIk3ltU0vQLED9Ox06KPYfnDOIsJu8kSl4X9i1sRO6OK7NI5zxUPFI4WagEHVG+gSMSMo9WoxKALtZj8JJWirznw0wQt6gonPTTs45fdPbPf3/wZWee8GdL0xfjujkILz7GhmAqKgk6LWcDdgNBj8wOIh0o6xiJwCSVoelScUshCI+l/AJ+AVECJvkkkzLFMbFSK3zImDyzcEmexGdYF+1yyVt+/GAB3xIUVkrTBLoMysfBxwsEl0rYEt3VNYTIajn4HR4C7oQj8TYi+lCor4O4C6fGtMJF65LWMJsXvNY4kwk4DwY8Bxhc1LHOhKTwJMbqxGKc2cRoi4IskyQjWVxech7M0ln5Pp5MzHvStCzKt4zEI8M3CCvm83zYJD34rSEj+RL5dcLQB091XCizV681JmejvKxiSekbwunY07bPL5LpIR5eYASh1XKBTLbMHFpLJ2V7eGFD3q+TX5YWawQbIfrVUSsxuR5C3F0pLU11OmT5bU7C1AdSdXYQrUTRvdGncw6tZTECDWGyWkVkECZtX2H1hZDK2xpAfPo5ihZjz1Y+P96Ld3LlKJaa8K3ekvUfIcWzIxUARngBeB4p53HVkhoJD6uV7kbTzkEi+ylQcgVhaaev/ujWXwhzHzzV1UHsRiEdc7MQNgXhC8pyeJuEEjri9cYhH2Zvt8QsWrPMy2GcKatvcQzgSEPHiMqVaXHcPQI7lD/cjSOqdB2FTcvLyEcavEz1O7y0+6Goq/JhHmWksdtMv+MJgowbiw+LA1EAgi1P5/SZMDvf5mC7iq0EeOXz1DN+/Dv5pIVP2xfSrrXb3JUZ8dhj8erdh/yPvrtMs08rmGBbEtcQeD2DpZE4wC+wR+pkPFmVgZ7D4UqyBvGNRTpXHIyE/Sn81MSSS7907GNWxsRf3DI4LBcrpBPaKFw24+vH/s3iGU/8ya0ySrX1JYz+WFMWgV7I4j0UHa1UiIPvAsZNSX0q1M1BOFL/5szbvmHv/qwWLDxnj5BSryfU4Y79w+5ozUHoQoZoZztKkBXsOSyWkjdpejRIxnCJZJ0Ss5KGU5Oc9lWbPTE+y/FF5pWbB7OlWVxTc8u4r/7o91f8bOIJC7J12pL5ujmIvF+ypnmVki/66LvO3KepO9tXhjOWWX+VfBWzEUtkvcrmETsewhI7KsXF85IG8CyGcYJIbAJhkEt85qGApXDx+sYa1viOAQkf5levGxvpUd+rT8O3W68+/ehOn2dLpnPukc1XHfa5VFAkH4XBmgjTONDv64NpA3NwAyPc8vZUQ+JBpNEm8n2AIAFbmhxBQrMOPFmI9p3D1s0XJ3VJA6T+PohpynK0gdqjdcWqz2ZptmS+rg5C61hl0BASMsbIgxMmDuPREiYrqlpK+gyk4M2ZSHdLejJ85xEBq3DmCi0DBNTgAaZj2GsQMk8e8ww+3uZZHwkuwaJ0LS0KjCgzuNbl+0Cirg4C1aZ1lFGuYAkzcKs+X+ECszTZLsaw6nJImYQWJn25gs5zAdKRlARpGRRhA/F+vQjPwmrz2umqbh5jpBlZLA2vgoRnzLh5psFs8ahuDmK/L+RUboxFDYgpmM/ABJeFefnsLa5luxK0cnOyYrh1GX8dOFtfLdwUgTplncW/FuHh5Ql5tkL2ttGyMLXmAPmzX5oxb5iGbNlz3RzE6YYGNkamqkSxntEFZuBW6TV0RkRatSyBlDpQpO4OLAR5AK1MgdoFiYQkkcDWKRHnKGrq69VdiEwZllXqgYyuqyT0cwGKJ62R7NNhCt4fv7t0hSt0CybqNovh9yV3jaMl3DDE69WK4TnbT1BxIDFgoaP2bB6dNJL4RFScOyMW2SB3jlArniSCz/EPwQmeYw0ZIzhQTcKVYTGewUUG6yE4fWaGKfOo0HKhLmk6DtqLzc3HnvHDef905TdO+q0j3AKJ+jkINgyNbmvfc4S5yEdzLtbiLCqPpv8eg8P+a7oWwEv+wdK5GIr2ZxcaTpMkQXKJRRIEU9inFnO2STw9EkvteWFjHINyXCtihLIU7YOmjohsm1LuxrA6ir9/Wtsvb7+67XQ3xjasdYvq5iDcMLR81zuuXoYZLa9ul8wl8q5ZmoHtbPPg0MNJJNZ04vtCwV4W5cfsQvzgDA0gNZz6ubw0qWbDLMa8cWNarNpBrMj0WyWU6YtKfM9AEaUovDrqZM90QbG4fzBgR/5S1nW6gvU/181BhmPD0OIVA8fj9+bkKo1aXFfAB2MC8xRoNc9nnfodWyZwgIZk6TuZHYa+49PwjFLJBxA+Y4WmvtYBLDVlsKgeA+vgIaU+Lm8wUpZHleGRmqyDJuaL43Fw7ZmXtN/88wvHvOPE1zGR34ZurgpQQd6hF8w8mCygmTzaXrYI+gvM/KJQQpddi0iqq2mSfCbljOEZLUNCzxMHWweJ0Hh8YDGBCRz8pxzfhSRv6Sx5zzSUKXLhyOVC0+UZzrpl6+sguCyqMDubIEyMwsuWjI7smWAG+E/OGEPjODsUheqsO7PrssE3GGn9rSIJjUmxoUpYLdoYXmetEXWVeUZA5JfDSmlnMWhDpkktT0KTkml5A3XqhOk3ph9OanGb/VxXB+GAzDkCLo3qkTy1wuAiwWgYwchqEkNgMDLbcVTphBgFTHm9hJaXlpXmRnkyeszxEFe2rq52BlYQCIk8uSjI5nSZmqzb//anR2OJUzqB2AD7IrBN8jfZOtYjXzcH4TTXWFmuK6sErVwq0KpUX741ptBrkDiVzueZn8UkMpKUZnbdUxZRI9sAciKpk8CNEESst6u7rrS7Elsde812msu8rQZp6I6pulMuD34BOlSHfOGSm/4lpzqbFVS3QSqvotSMBW8qRbQiJ+Tl31ykgSEnimGWCeMHwocTfzc3t/UAzlcwhZoxMZOZ7onPPdaxEsIycxoQaVikPrriiYmlCKlvchXmOoiSyhuaTERUtt6OXITpsRhG1f8B1rrOaOrmIB1jRkdnXTn/MymbYHeQNlGtodzGoZQyMarnNp+oNB0zjP21Uhc4Ct8wBGaVbgkJFwPUFmtJcNea+biD6AQdIvGPdIl+edbA2r4JnYVTGtPicB7QSwqBdUBKwJeO9p8w7Yazrp00qm6D1rp1MdJS4N1FvCBZdkcxLhflwD6uYlhWPJQ+sBGxzMPmddyET/2UygE2avjG0KZLn3vC9wR33LCQpjHNlkN4CVjLGk6gjkcbnUamQUWOZ3Evqdl49oAuyQRGyCxD5Bg6frsVt8dlwlyn02ZvQbB6umNH25il/Gn2sDDotgI2DOmL5lkr0l6rbNCxHbQB4gVcizZxQeEdX6SzcIMGvY/xe4n1OQef9nNPmnWNmqJZBIRzDUWCIbDlWXrJ2wxZLAGZ0GS4hstDuKRJ+Cxk0zI5YA0VN1/xTcFTpl0z8KZJX3yb+M0VNmsLMubiudMLxWih/UIgf8y4gsWfahU/3oPYHty4Kz/ok4ERbmkYM88jrXGjGvRJdABfsdS1U7ynQaHLQxgax5ezUubkg4hpm7fi/FbDyaFck6FzOQdJwAkeEnXboWW7upqCbHlcmW6utjw4bsrcyRS/ucJmaUHGts3ZVxWD34ZhuB8Ww55LV95eoobWPjuhrtI02byTJwsVusnhmMVejGVPS9FcPcoyQsnLFoTmty2JQSURiHzZrjybSCh1ysAtl20kHbmH9+Vqp8oI8wiwwrwdmuWLxk2Zc3K1FI7quHDMixnqTc6+6y3IuCmzrw6KwaNhEOzHgR4GlZ6ek6ujTrLO4e4W77JyDQpmoc2YkDLlAL8uiWed4qbUtCzeyX4HlBRqDelYExRkJINXuQYpU9fHktl66MpQmv2ztTFtiFRP42yrQRlybeiKKMcGgfkAg9BT4MLBhUr85Ngpc971X6iwN52tx0bH46Z0HIVdpjeFxcL23PSSNkZarFagd/VA59Hnwai1NGdGtmQNBSPPPR0lZRCX4x+ULiwg4HcE8oJAcdJxmkbkkskkbG0dFeGujyHWYaSo7DUL1gllldP0uii5kBa82HX22IvnjgqiwufmfGfU/4rATTxtcgty5plXlMZPnXu7Cqp/QKshztFTnXhpbqHKEFEhNUrJgYljEO4J9/QmUI0zFIhq1Q+yjAxPnCTpE1KnLMLkpUxDQ1k2MOmySCR/rIcO+lotB+H803inBwOwcCuUef2IIuHPpiKMz7DZaNc4rN6N8d+NWfzG5DfJQcZdPHvsit13WIllvn/ErQpZvIxM4Gd/TMhuwMk6Bsl6gvmSrTG0eq10xriTjGZrcHjeL0Yw5L48X0LCBwpZpPCxOp3QmLwVZipm8RZMKrkuAjygSwpfGkce3zmsXnyDoaVzuhV6w0N4sVA4ZdzFc98aN3X2ZxxuIxJ+eb1mHz911gfGXzz3YaxNzMFV4FehctpqSAvxLiu+y/PD7OcNxFBUihfyYERbxVjStC7TMuxwxxpIeEzd+FqMDcaOeT2MJrGFWAYvlvqYYq0cMSQyyZ/nB4R78sjq9TCCI9oGJjW9BtoHm+z2eDDPn39ua0NbF6vL+QppXpC9rUrhJ14LN4+dMvueCdNv659Htz7YBjkI1jSaxk+dMxE/tPMy2rKDehLOF6FxMXcFa8sjZk8efamlcxdvASbOOoGArWI92kTPIsmzAon4yqz+cyye5vkVXoZERr5Tsy5GusSaq/bsiU4hySuBcuRAzgENzkRSkofzHYNgcQbEdAyb98nnTB57YbU7OgTIv2CV1UjNRPhyAN5rHlnuXP7G2GlzTockiut1qG2iemA99fvX7Vbtqi7CN8uH6j07XlXTPJXucve49m+Prf2dlYxWe3SMtDzPqF6ZSHo5w2EgphzmfG3oHsPSAIOHYOsKeT1M6hJcOVqmkaxbAAq2AJskvS/A4CXy4NYxKIL1J97qyr8e4s1g9OOYPZ6BXv7nhGWDtPCB6ofXmn+BdZPzwoHXHzHr66fKS+pZ2mx+vS1IG1uNKXP+K6q2voSf6RiaFWDzfPseV9MequLeuc5hCU1sLzgFhpKMzhxYdOpySIi2GJlEDS6NSRvZSEdUW5IWJFKJx5HfxpgCjUEpR3gcmDkEE7mkofc91vE5WelWg7y2i7FyfOchzIY5k8dfCZ0Ox8LC78Jiz/c9dg6MiJYWl46b2rsFtp4loeRxF93wD4+H1QXYiY7vauU/PmMFcX1YCq2ciCbvDlvhHmNoJc84WYex+tR6NtrO411oS8LUGlsODaUAKcPPM5NXtpWgmQwPmfUG/BTatgDWMRwS9FKWV6BLmothXtZ+bMMlFdRUvuHZSvh5luH0k7O6SzzD3MnjHkd0EicP6EnmYBggcP+UjBcDLrCdh3cDDp17gfD5ZC6d24JwjX/slPaZQVHdhyLkpTTH4RKBfGMD60Y/LFbLg2atxzn44pQ0mBDITy/Yw4pzebkoISKhXCPO8se7z9IRIvKMgDgCBhMp4jVcy4Bi5RplkOqVSyp8fN1wJxHMpSXg50lAU6Mf4FEI6K0syZDf1JLc5hAyIeWOWuaIQozvoug0xCNPHOH28PPEi2wPr7QyRUbeac63x8+tFkLsQAuuKpifna+ho3OG4XZBOXjs8xfP/emE6TNzB7E1Lcj477Ufj882zcNGigJX6XoKuF9e744qn+r4zlj3fY2eaAWOkXd0ePVJ2FC33HJOP5fgLYh/OUCtxREgIdPg4wLLa1f3X6D0q/9xXF1VqXY9FeBxj2MBDZT+LNlbW0rlru4y7zDejvhVzWpLNQhTG+nDyqpqHBWfRAXexJcY8cHO8BWhT53ix6tRgO/a6Zq6siwN7CkocxU0rt8alLvXtoZxcQXJu7q7noGR5NPfwi4zrkSitBpJVkjwLCdUHdrZBNDDqWPSmDeB+sr4i2ZdhRthHtI71pDqikLTwVej7uYJ46bNPmbOpPGpBTZX0oQp7XuWg+hKjCWOMVOkGnni/bjrsNv6/He2HfCj3591Ys3nZmuYGoAeNCB79TPm74F0E8Gntl23bVQsnhcWm74jvyxuHCMtFr/kgzcLoqjym2oYnmEcTLd7WHUbj957FkbBaBh6qDNdKYpfDeLip5ujwiurm8r5E/B0qY1cX9FAqLqLkRouvUMY5H+4XteVCywRvnh0MoYNt0gXUwiCWWgR0RL24BxkJCoItsPA7d7OsBril+fWQaxLapz7kAbQj6CTxn9QkCW2nquGpi3Ad8vjG0DSTxzEOEbNgCxHRn8zVs9BNUB9XQMynnCDivXWVhqA3jjFeiU1CN6/GujTDkIXruLtpm37NatB2/VXTUW8LJle+driluEMxXbNLU1FVejhhe8tXtGNrEDNNHcj5WwWtn7NJXXB2CPUsF12xLBJBknq5/PuV4seeZ4/zbFZytwQoVXU6aN776y6sZXyiZfeUv854Wj1q0WPqj8/+Qqn1xsiqs/S9lkHYcsx+dQj1d9fXqouuvaPatXabvWJA3ZT//H5I9XSVWvUkzAI717SNePO7eyuqBJaGJqlG3vnsTdFWpwy8BVsYOKdTTzTxFkDVoCns7EVoMF1WqkyZDBt7Swtl5HZCYcgbm1XWZ18yH7q5vuekJbtW1fNF0NTtrQskMcyu0DPmIFypZVBRfHzM1iAjrButuWdXSqXc+qTDkJjHLz/bjB8SV17x19F2f1aSurBp19Vl994H74AgbcfcDFDh2yvzkcLs8M2LerpJUvV9+cuEtwlX/m0evzFN9WJn9hXXTv/QXXSofup2/70lBp79EFqxeou9Z8z71RvvbNanGTsUQepfxq5v8zSePf/ZvETaocBLeqbow9Xz766VH3qI8PU2T+5Rf2ffXcRfnZzry1dqSZf/Qd1wsH7qAP2GKz2332wmvGrxeq4g/dWt/zv39VfUc9hO+0gdduuf7N65Lk31PT2u8U5J55yqLrnby+o//vPh+D6CmrWHx5Wt97/lDhtjn22OKhPui7vvo/vu6t64fVlcldbLfGuvfvR59ULbyxXzTDUtyccpW66+zF13s9uVc/AQSaNP1Lx7h7Q2qT2hIEm/c/t6oGnl8CBWmHIIepC5G/7y9NqxtdOkDv60OEfVIegVfruNXeqKdctUMd8bC9xBJa32+Bt1TtwpqmzFqptIO+Uw4erS2bfpb55xa3q5bdWqq+d9Al118Ooy+vL4VSPS/kshw60LX459bunHaOuv+Mh0N+mVnd2q/PHHC4O2VIqqi8d/zH1vTl3qRk3LFanHffRPj1u6ZMOwtaBzlBOFs2tjzhl7o7W42l0P7fD4K8vXyV9/66DBqhddhyAFcFALfrb8+rFt1aoZSvXyt05686H1JK3V6r2BX/DEncVDrCdOuWwA9RMtDDPvrZMPfXK2+qKeX9Wx8JJ2A2wS5h335PSEtEhv3bZb8UJ6ADs1tgyvLZ0lVq5pls99+oyOJP+CBCd+5iP7qWeevktdc+jL0hrc+kN94jDsl6lYqjmoA7PLHlbPfL862jJ1qjtMAgHW58MfbKLgR6h4LfVYQfuLmMAqzyOEQ5Ac96vWf944Yo1XW6MwLEExxutwPExylqMSVyAPNIy0A5M09D9Wppl7EI4xxorAW9Ft8byOChmawSwGrx9f2kByPzG8tViZGtP4rNhm35N4jikIZ7yOA7RtIFag7GLxmQ5+16+T7YgHMTNf+BptTdmLzui2baBjnPOZ0eqgZjyvvT6O2q/Dw7C+ERjB+Au7N/SpJag1WDwDccB6NAP7CBw3q07o6VZumKN3PkfREtCEXS+A4cOUS+iteCdzsAzjTty+O7q+deWq4k/nqemd9yNsckyacm4aGiKF3p7ehbdHVs4OiH5B23bTzWha7F1TdfOcvXNuE+2IFQVjXr5Tfeqy/7tM+rBZ16TWcyH99pJZi8LH3pOZg10hsu+fqK0NgcN+4CafefD0opwPYIPnmzgQ9Ivfvoj0kUMx1hk/v1Pq9eWrVLXzH9Afe/Ln1bkpVMOx4DzgitvF8PamQVblhcxzhj9yQNV9LnD1PYYEHN8wi6IPOxaRn1yhLQKhJXwKH/RIy+gmxmmJv/LUepVdEMjR+yurrkNg21UpAldjHVAOkozHEfPqOhqvlvb2m/ZWGqE3c95N8KWrRlKZ39OpR+GO3jb/i3qoWdeVc9hvMDxCQPHClyHGIoB6V+felW99OY7ovx9dhuoXodh2JVwKnnNBaPUdzFz2WuXgdL3P/HSm2JcymguFdQRBw2FrEgtfPg5aRFKkL/vboPUYy+8QRJpXYbtvIP60LCd1NMYq/wd3d/+uw9Sj7/wphj3uI/vLbR0mDcwO2JXRQf/+D67qp0GbaPueeRF9TZaLOLZsixduUa6IGTV3rsOlJaMXWRfCqj/GmxA6t+nHcQqjM0/2pTU+oXFyXoDjOGvbRDGu5IXRwe59sJRmMHMh3MtFThpbaBk3tm8e0lrA2X4dLYcyiXcx1fBT5i0AYitFE7X+RfKRiYtmY6DSiQ0mXJs+Vs6tg7SZ7sYX0HacFbtPgaboqBsKtwPvmFptMdwp3OQyDs4G8iZB/dlkCdbjo+3/OlacMMWIWmo7k4oUQdfjoX1pfg94SCbojDexW3oXmjEjB9titgGb0MDDQ1QA/8fmbqOGy9GjtYAAAAASUVORK5CYII=;" vertex="1" parent="1">
          <mxGeometry x="386" y="559" width="71.58" height="60" as="geometry" />
        </mxCell>
        <mxCell id="Fvsey-Ng5_NLrlT-ufVr-8" value="" style="shape=image;verticalLabelPosition=bottom;labelBackgroundColor=default;verticalAlign=top;aspect=fixed;imageAspect=0;image=data:image/png,iVBORw0KGgoAAAANSUhEUgAAAIYAAAB6CAYAAAB6KSvzAAAAAXNSR0IArs4c6QAAAHhlWElmTU0AKgAAAAgABAEaAAUAAAABAAAAPgEbAAUAAAABAAAARgEoAAMAAAABAAIAAIdpAAQAAAABAAAATgAAAAAAAACQAAAAAQAAAJAAAAABAAOgAQADAAAAAQABAACgAgAEAAAAAQAAAIagAwAEAAAAAQAAAHoAAAAAP7NDIgAAAAlwSFlzAAAWJQAAFiUBSVIk8AAAMGJJREFUeAHtXQegFcXVnr3l3fceTUHQYNcYUWPFgF0wtlhi+0EQSxSDxvobjRoBuVIE1CDWKCmWgFQRxGAsEQ2KiIDRGPtvbGgsGNprt+z+5zuzZ3Z2770P1HfvA8LAuztz2sycc6bu7K5Sm8ImDfw3aWDMzCUXe57n/DfVuSXrGmtJYeuLrDEzlhwTTyTvdBzHQ5lGz1zcZ30p24ZSjo3OMcY+vOSARHXVX5Rin9B28NTvxjyy9A83zl3aeUMxTGuXc6NyjNGT5m/uxtRTuWwmrFfHaYrFYufFmrw3bpy59PAwclOqmAY2GscY9fDi76na2ndjTqxtYUU95XkuwFvU1NY8O3rW0ttufvDVNoV0myCigY3GMeKOuopmmp18B5D6FVybGuqV43mX5dvmlpEz7VdAsAnAGthoHEM5Kv6NbOqoDolEfMnoR5akb587N/WNeP8LiDcex/gWxvJcl/xJDatr7PLGLXPe3uJbiNhoWTZ4x7hlzuLvbNB4PL5TLrfmyxsffvnqjdbS37BiG7Rj3EQrjGzGm/0N61xA7lLPgZBIJMaOfuTlt1vC2Qoy2cAAG6xjjH74lfNdx33WiceaWkrncJCYE/9BNqveGz3j5UtaSu6GKGeDdIwxs5beUFVT9TuFGUILBdo+pyWtp/LkHLQ11kHF43fQ0PLn9LR/VrVQFhuUmA3OMcbMWnIPbXVfn21q/E6KFkfA1YVTkDRrr1R5bl7RtvpxyXj9JyMfXnT6d8psA2RObChlvn3uu6mGxpUzYrHECfl87lsXG45gh1DKwgGey2VB2jmVqpkycvpLJ+W8toPSffdYY/NvrPENoscYN21BTX3Tquec+Lo7hWVj7gpMD0GWhNHlj8YPSug/geEqMFwzjQ00siT6J5w1r4+Y/tIJQG/sYb13DOwvNCWqlirH6elS91466PlG4ABsXp+c5w2hocIYnijEIZhYHMXKCKB8Pg+67Wl4mUPOMSx937xqi2Sji67XjnHLrKW7Z7OrXqd9hm5syGbUHzhExNDEw6cyxOD+VZyBhxYb5+chID3/wBwEHOQgNLzE4ol0rE3Na8MfWrSHT77RXdZbxxg1Y8leOc9d6DixLWWfoTntYydCm86ngmUlEFJSuEo86mylnEHECD5P61kSskuqbc3rN0x56VeX3r7xbamvl44xduaiU+MJ9RI5RTsxyjpdxXJ0Nca3GBlm0QAlyWjPwDjBuySP/gwxkBQa6uuwYr6p0xYdX01PW7SVhm4cv+udY4yaubRfLFn9MFm2mrv5ZvQcT9CiyvWW2yQwvnYAG4ouwzesD7aTUTcyOHEGS5TIBwoBd3OdhLMrjTE7acjG8bteOcaYmYuvjzveQxjH1xbgFNlc/qHG11b3F9pS8wXpPsTgdu8gTiG4Yj0DfACOIH6iHVa7CP9iS92JYTTbaMJ6sY+RTnuxqr2W3JqqbXMZzkusLcRiceXmczdfd0r34KaXf79DeGEwCVjL6NOf6E1sjO5ImA6eEQkCCVACgRwKgnBK7MDSYeR7JyxJXHDB/mv39EjerZ1cL3qM6r2WPBpznHVyCpgj6zUde83J2inGPrzwAFGitHruEfSJLR8FM8IltGGFbu29A3Gw8YUfvuDDGC45F78On7bwoM865LoXx67f0FbtMW6fu7B9Q2PyL/FU6sBcpvl7YU4sRr1Eflk85vS/9uSe8+9dvDj59Yfq7ryj9iUV788rF6vlahfQymcbUqNmX0HjjhhVaMNggcKlCnkY5P/A4WJOeI8lPXtpV7chMy/v5g8HWXrKoluVl/+X2qrx7nTv3t9+6xbCKhBarce4/d13U/WNVW/SHsPanYIM7uXyH9Etrr2vPrn7fOhl+UfeUs9xzqfoqqie2MCBXbUf8GyRgL71gcZfMG+AFA2FoTlGtGbeArQfIEL3SkIpGH1Nz5uXUA2N0ymVjMf8DN1851gifpv77+rl1099vneYY/1LtYpj3Dhjcbf6f6z6wIk7XZtTCYxCm0nYdZza+I/Hdrzu1J7Lx8xavOeNM19eRvAf+m3ZiIAJuFfgCEzrB39ayMYmUOAMQqMxepgggig/oYEDn0xcRTSTUiJr9QHOF9VXxhNVB2n3Ekotg1y8fTJe/cywyQvmDJ3ywo8C7PoVq/hQMvqxJd3jufhi16Mt5siEUVTDrZQSdH9C5bKNN113Ws9rgLtx5pITnFh8jnJz9F8soSd+vDCQGSbRisnBh7g4A9I2lo0H65oQxLXRg3SIzwZDuBVynndBHCsrCNDFozi8U7dDPN5ADnYCnf04Yejk5x+KN2YHps/t/d1uF1v5t0S0oj3G2NlvtXMy6nE4RTTo1up33TR0YE6R9/L9xCnoRPdQUu4cvesYNgTL8msCW7ATWBlou4NH//EvAdkBNTKgJqTuHeAyoAwCSOXPRKL8RE6n0IlSPMLm17f40esg4N5PPJY8I5+qWjZ44vPX8xAUkLdqrKKOUeU2xElfoTzFIUQLUBkpbkVjxt3+1yd3n4qDMnRgZlo8Fhtu04BO/gD3qAMJHMLGMBY/mt5YlkHmB2AYDLfbwG2HEEsoYTmKzUBxyIA8GWKyim/ChaggKkc9H62OOtKq7IbcJ1XL05Pn9yLuQq8KcZY/ETJS+bODInVLNVfKFErEXzyJw1Leomw8tke67/4f3UTbzKlY3XO0mdWHZveGjoggSP8xlCEA8h9+dZwjBNV5Mo8G8S9EsDOgTMwbIEU8riYvThQkAyY/hlGj8PkWUjXJMnJlbPNlukg7qr2rkvOum/jCc0Mf/NvhBYIrCKj4HEPqBn1HQzbT+Ojg03qcBPjIyYu2zcWcJdR2OgfzCUL4iozykolJ79TQBF8sA5+JjRNxBKCE1ciOACJJQ7YuEcwwmD8ixE6iseSpB6FaHKoSVc9e9+D8B3NZ55KbBh6yel3yaEmayvcYUJBdA1JGnHYyybCXG6eYteh0p8p5mxCdWZvQnvxZvAAFwnwaHx/OAz1D8d5BxLIs8EYAkaQvHWS6F5IexyD8CPMhUz/EeKINnoIshCQkE6fH6GDS2Ymk98m1D8wfT/lVdHipuGNYWkDLoPM3TlMu03judaf2uB24UQ+/dGkqUTOF1Ffj0eGYYkGUy5terhvaGQMOxoLhJOhYkAZcZDCNJHyeSFLEaFL6Zfl0DUu0yESABQKxL96GchxlLSbTJecgXHt6IPvyax94bvU1Dz61XQFzmQCVH0p87ZBDQBlf025g78F9D3wN9Rs1Y+EMJ5Y4DUfposFWKuYDCZqPZLOZ2W4iNwi0WLzSaiDKFkqH0KFEaaOxAKLFUFAQfBnI1ckFDRrPt2HlzGhZVUeY4QxFS2vJFNfzaHmeqKpuk2vMb0NiPoqIKkuy8o6Baji0ve3m38g2ugemzzxgVXrmC12SbuJZ2hTaLXpn1dcTVx6qhEPRpSGbabr5+r4HDCulFasXZ6PGxAq2QGKOJEPi1s14VB0qUJZdM8RemGBnKeIQIWcAmxQ2KB96lLwXDxCF0lsUUtGhZCUVnQzWxvOyM7KdOneHUwyf8tLeCTfxBh3KMU4BPZk/UpL8i8XprqrrLqOHP7qLU9wwfdGPWSM2D8WtvS4SxssEo2Uju4iapVuXrt1o22cSZ9HmhQCK4ZI0lCYCGXJbFT1OSOZa5AEN59Y5wPkqGyrbY9Q1uU51/LrBpx1wK6o5YtrLP43F3dlYtrPCoQUKWuk6zr/oJShQL/MncoizEcf7MKh3ecDLu5tTMthaZitphYKOAxSMjsaXL2C5MpiQRdEF8gIqIy9iNZcckQYTER++roO8IAefFWWzu8CwxLKkKuoY6CGoFuwUo2YsGk+musxztQJLmIUr7eU9anix3tef3uMFAG6YuvA0N5t/gCaf9PITbx4T6T1xY3w4mgToNNoJCz6g8qkLDAe4phKRUZ6oC2DZzDBm0Fh9JgS1DHOXkikVEbzUpVLXijoGKoVnROpU/A5aig3kWXczNcUNtGw294xK5vqnTz34i/S0eW2VWzuUHj6+mucipGNRM7pqe/go1WJBL05RkLVvBZEZSAePpg5wATfLkzEDYNwHog1e7QQhhGGCvGKyJCPJzzAwdYmZbEDUYrGKOkb63sW1a1RuQSzm7B2dZEqNRCH0yIDKZTIX/TP28YTpp/bNpycv7Rrzsi9SU9wOa3yhi7ZWkYPuXAIMx+O7MAUIjoUNpFNCGsb5jD5SaHhCLDKNxDAnhgKPtmuKjggReYEovywEkLwCXHljFXWMVNuGVM6p2jbaYk2lKYKznLl8jlYsmXPTAw5ahOoPn7LgEieRvwOjRcFYa3kG1Ciym51ViyGMbgMjSlkCiCEy1hGaABOhRjmpXFEnKOCTckTYiZtF86+Piw5BQd7liVXUMZpq23rxXEbX16+w1oBO0FNeeF70vmGnH3Ae4Py0V231C9Qt7+fm7M0um1l7hp5iWHAravIgQwRgK+ZHAwhz6J+1GA9EZk7hszGL5bA+WF+Kygty5liQJNk64bOFRJUz0WzDKkfGqKBp9ZzQh3Eor+X5XOZ0cYoRU1862amp+SDmJPaTXkC3pEBriAU4v7S+TFuRUC7TMokVoyhadQDxZeACBP354ixEQM0x+rHzsgiDegKIRxyJMCyvUJYI02WGcOLFX4VDRXsMXTe/lkabDuksu2TZiq8Om3DBiXxEfNiUF+/Ke95F0Ah2/SQY/RhewvhLWbIi6VSaKdqwofbZkdaGASCKZSJfri2e4T614TERlqhXIJowEOOPI+Y8kZnyaGYjwo/AEUyIFEA7lIU3hOWLtIJj6Mpg1YAJYV7lrx7e76CbAR1Km130XMn9iUTVPrmsvgVi1BFRllGJ51p1MFoOb2ETGHYpEAEAfIkuBbgSzhA2oCkF9QhW3ERRHu3YOhufG2AKJWUB5xfIJ+XSBE2E2cv6Yym1rPmEhKOyrsqviOdjPYYNOOhdINNTXjw/nkz8Lk/H3uAUrJBCa0XlEEViAYC8CCHtiyLtpStg0pcYAaJ405JZikFzSoT5UGPIKJxk8c1yixu0dvG5DOydpR1CnEHEmGwgyBYmBGW8VtQxGuvXONWxRHvq/u9ek1l99S1nH1P36wde6pSqzk+MxxLH8que10EBdD9JNTasmasSzrUj+vb8h+jHKJIAhY5AQFZw4DyaL+DiWJBkdHPOoPnp1wxnGoLOI4bdXKvfgk/EyFsLjG/VN5S1BddSK/tbUceoTuKEbPKIdN8Dnkc109Ne7kGnev9Ga7uU//aaZmvPMwfPXd7QsPL8kWccNgvEV9CG2a19Dwpux/oKDRmAYFB6WNchM4RwxhmQQZgMEGNcQUWdEA6BstrBwzTf6p3s8okcpg8XUoPol+ntvTLGlO+noo6R7tsbrylip7h+8osTaGL5c65aEWUArsGkNrobqx9LzAyjU+N3jT7nSH6Q+fqHXhjp5bxdibQPb2iZyadhhhheYKC12laOZtmcM6ybES1HEEvLlQtBudO+vMgyqGhB7FIWwUFUJUJFHQMVSk9cuI2Kuc/QfY5dSr0hR/QhxqIXpb1W5bo/TQ845EPIuGbigj1pkvooPXSyAz2dNg+wcDBqD4MpxRgLLXkwoQVHWozIcSbwf6SANsyOkxyIsvkZ7cMNaUSOyT4CB30RkBFTjkhFHYOcor2KuwupB9g66hSouG0k9BDkEF87rnfmnlUHP9m3r5NPT1vQMZtxJ9KQfgxtQ8dwFjRmNVRtDl+JRssayvIjebBCLTqkbWMaVAmr2HjHrEtJRp4wtP0NvF08rl9Eli2Dy2P9ACflKVx+W4RliFZ2g6tNCneW6L0XwWALPelNJq0i3HegEaGJnmZ/6K3Esi7Dzzzk8Tfqnk0OnvTcgGzW+5KOuf2EPCZmHlbyNcsTfooHevcRUBrlB6PYjkcJbTlciEn+mNygQgKB4mBYkVmQoaAtIlD6AXW2kwTmZBEZgPOfLduOi8wyXivaY6Ae7BJU65CR/Aomq1J48mxh3vHOGT3g0HcATk9a0IOevHgw7sR2RS8jLQg41qnVJG2Z9nKV1Yz5B1sCnOC1EkgzlBESM9fmcCAC3ioGAVBL3eZkviiQaL7gR4CMYjjOm8qqyyDSmKWsPxV3DKmiXSs+mZXPf0rH9UaNOOOQu4Eb/MCCrWMJd0i8uubCXEMd9SrBDlLEplqUfx7DWNi2FD0SjzubCLbytbI13EdaCW2sYnDAhBfykFXUZMBzXmZXiiCRgtsyINMOjLPpCSAPL9l05YpX3DGiFUlW16hMQ8NtidradPqUfVcAP2TiC1dS3zKU2mGHJnIKBFtHDCj242taG1/UDl46UUXrRcADaHGhBl8kQ8Fp+cUKoGGgKziYnKc+I0HzJp8tKoPh0Tx9YlwiJfellO/Sao6Bp86yTU0L3UzTxSMHHLwUVRz64Is9PSd/Z7I6tX+2sVEbUjS5Djqwlc1Dls8jSjWiogYgunXB2fKlOMzH8uwuSmOx5S+DjJSnqIxoefzC6IufkAwrdK2sY1B/4FWhMXl5J5s7Ze+qT+f27UuHcKZNq8o1dZ1Nd06Opn45lmlY+4PfUDCr3d+7yNMM1hyYIVxBi4XyIwYwKi8FRzs1RIFFGGQjIjufvL0V4bN57LiRSsCAJYgJ3s5OYOW8VtQx6t26PD2d+kAymx2ePveQFaR1Z+ikF35GRzR+Q/OMjnj7rqWdovWWFgfV4YEj8jE88KpDSe2FFW1SRegFJ/kY0SYiFJJnYZHRO2BKAxn2PRS4clSu1FdLjcgmGZg6IQdHR5CoSKioY/jPYNL8QXnpSfN3yk5a8FfqbndATdkpECkSoMyoyvROaP7vqXi+X5QFtDa9xPnaQs6APLVcPfmUIYPLQojCEhsGZpQyiRTm839QxAIHivRKNn054hV1DFTgV/fN27Iqmfh1zklc5tCkMFBQYfWKOQSeQKObbYvpvQdjRp9z2MM2l5HFmpVR3afQ2rbJ+bY/3wCLOAvLicCkoNrgmE+Y3EIy7QREJGRVQsXhUY9gxZxGsos6BNK8t0M9hoiy8yhXvKKOcc29T9GXCxOvkIa2Kv1cajG16eo7npPJZ5oGkkNMFIVc9YdnD7xlYK8Xuc8t1apgQ7KlmDKkfN8ijBPriHCfQV+EG8ggDhbIc/PWghUwloFfgcNRsb+nMYymH/BGswXOLqOOF05uRUY5rhV1jJouWzjZNfX0zFYR5ZSoHe9x5HKraToyNlWXvS19Md+IU1fd/+y5CSd2DS1F8YBbT5sdqwF78qlvg8MAkXzBFIFJ0TRlmN7OwzaomfQagiJ81h6zzWtYuChF+AxBczhD1GKRijqGwi5FQldQjFSyur7B6G19Mz5z82fdT++oIh5ndeKJbslU6kknHt9Wb4s787Q26HlY3nHUKVuubqVBi2Pct3AIsEi512YBoZVtOXxRw6G7q/yClAhzKZk2XMcrN5hU1jFIIawwaZYRBTGShgM62kenxZum0Lb26BvPOZSfhB9633N7/vpPfxuVatPmRCjXpQ0j2/iuddgBcFupyEYMZbK0mHXUAhiiInwhXHEelM2hu3vIUwIOQNPpAROi5RNEKTjjZVQS4jJeK+8YpSpDWiQ90g+2xjMnjfnZYUtAinmJU1N1k5esHuTRd9DklUvFxLAdbGv4RAyyb574BtMXPxERCJ5SRioFj4igJGQHrRw1LMVbCs4yoZsi9SrMr+UgFXcMU3S/olAdbp5lMo3/SiScK0YN6DVbaK7947xb3FjsXPoOWsfM2j6Ox8NIMMMM6dG3vYb5CcnEvwouxGfRNGeYKA4OwP85K63iPPVoCblhY/IsXhagozKtolQkWmHHwNYn+lN/vMcqwnVXNmUab73pnMNvQI3xkFG9ih1HqKk0j8DbX/m9VEW1ASv6ongkobioOnR+gYBu5ASXyIOIUkYoBQ94dW7RySccQz87C7zMMoSrdH5UECbSvzY9eIJ0JWIVdgxtOOxY4tlUups6LB9L3nPL2Qd/gcrSu6ZOafDcUbR5tRtusRdselnaMVF/S1zvWpTSnjaUYDUvuudCFTfnDM3hopIgG3/it8CDv0AGYFFmptW60qjiNEXYWgxUUcdorEo4KufSIZz8U6lUrN/IM3p9jZpcc/8ze9DXYO6hl80fkqXXLOGbp6EADfvBigpEUKGrvoEVgCABvAWG8UlKwYFuDgehkG0/Xa/T+G0m+HxRCi6jAdoy7LghKFukoo7x9ZqaNR2q6nrdfO7h76JGv77z6U75tonJ1J4Po5aVglOYAA35wYoKiK4Gz40SPQZGCzGivdfFJ8ZcfdvdEmBobZjERY6kQ9eIUe1eIUpndxmQGZUrdTO1CeplqgjXE7qQ/DImKuoYE/QHXd696sEnujhu6kInmboBZyVhOKMwSwNWNKICPO+Kj9nkV5K5X9FIyLBMVJo5yCsiFUlTjiI4QtpmMxQ4mui//0XDePtb00qJeIojCZ8TRVybQ5hMLMoAVr5YRR2jz7Rp8R3quwx28t4vaZ7RIfqAUWlbBurDRC9eVa2aGptud3NNY8ZfcOxntnqMYQMW39hodRbQZyoGM/JKOIKIEWkOWz08/IEGf1nLGQQmfLZbaLsXcTw/M5TTMdvrpoRli1TUMXbOfo9eiexeRXeF2rFBTKVL1S9QIX+eIpdbSZA5qnH1NeMGHv0puK58aN4Wvzmj91d8su8btqqWcAptXMv6KBR6DFp82WbGV8dj5mZAUC8psk0LERxEP5Ku4LWijlGdyXn1ir4/QMGvc5GqBkpDDD1EDDuhmcwdrpdK3zrwIJ6wXnTXvLY11d4kr8HDF5OPiQoqJn9tjgAZQe5aosgJ4EFMiNmolm+EjOzvVnr8PkniNca25EjhDU4AQRmACrbKwvhypCrqGKiAKDpcmbCSkEIP4eWyq+h1CFOrXHXD2IG9loHnyvvmdaOtgQtpy/lyerQEW+PzWBZmn2ilfgb25HNtb9EL587SQuXUeIvKj4oD2CsSza3rKWWR8sE5hEfo+NqMQwCP7PBnPboCcFlDxR0jqI2laAKaFEXwuiXax7ijbaNzndxNHXTvnNo28doptCd+PPUj9FyJqFg3VU4ZIUEuEgOVQZMhTFwIgPeBAS6ICUNRTjBa9zH47q7VgyALerqf/DZ0s4RztnIw+QPBcCkQAwhSQWtVMCvWg1RZEr4C4AxJfDd9Nd1+ui+l4jeNOvdQ7iGu+v0T9Imr5EX08OovdA8RdKjcInniZ8QFEVupyBWaph/bEEIMXBhupfxoUU4/D/o2m4gKXVG+vL1eRS5FyiD5G+f15drCuBhB1W1UWeKt4hiYX9uWgLrIKW5r267LNem+e/AchOcQKfUQGeRErjnNLvkp8ojSfLsRSWS5atkKt1Goj7GzNK0z4A9iQhjm8PXv529Rh0yvqSJlsViFz64GwwggOJ/clJHTUaQQlelaUcewjmPwS+JzuUwDNfjbsrncb2+74KiPUMdf/uGZvR1XXe453rn8TTR8noFaZGi8Jrpm9QSkTcBzDwL5sABVACC2AIvyMJOfv2nRjABOZwMOTHEkIM60UVEERxlCYCmUzxxJagbgChA+Q5kuFXUMqQO1/Ewm23j3uIE/vkJguL2ej8cfoKZ9kkeegZtg8s4McYqQQsFoa5msgf0tocEhOhNoi0EvH5nJgDnikxV1CJ8ymr/YSHLQp8WsLsrPhvFW98/FFeZwKcJ2j9CgbAXli/C3dLKijpGIZ7KuWzUymcvPHOv3EFf+7pnutJd9FR2z70s3z2J5LPitIMo3oIjSBB602AIOVqq+2+rj6FJU0ZbsqBRBMVwSknl0joGdXL1EIgrtMNgdlU+wCltITCgRlE/KIVfhLfe1oo6BVytRhfhrPbHqlzplsnUTaFl6Kj3ZTi2GJmq+UxQoIaI0WylEazVVSglzhIeTjBYCWwrFiSCKsUUwzgZY7Ay2SmGhikYLxPgAuwSFZSGItfIpKrgFgRV1DJT76j/M2/+q3/01TROHY+h94gl5dXRUEeG+NVxjpqVWWpWi514b63AYmIN0+UiE5KG54m02NtQYQ/PKr200lmEDhAjyrQy4w7A6OsHpq7YmJsA81IFPCBC1ymSJNDS6DERorXQpVfZQUce49u75m2fczDxyiraoGS1FLLX4dbWUFq09lMSHYjwXX7T9P/oS0pXjBx31OOhw5jO80RRSc5CPLz+MNXbgLLUxohSMsm1qAJoy0mUAaNeF0hjOxHlLOgSz+Xn7F51RZX8r6hiNNTnPySm8wJMdg6tqK69I3UU39MIU/eXmxqY/0p7GXeMHHfEKeYmgyQhg1kn8igGMSMrHhkWztXGGx49EacXgYtyIS9ChLcL4u5yCg+PqN/kFZTT5oGySMBEB6FoVAQcEZYhV1DFQflRQlCUKjtYrUAL1AUSMVy65Oe9xd7VzyfgrjsKqVw1S9ybztz22a9z1jptwxYk38T6G1d8GMthOJs+okZkuCvQLVAC2AGJKycfUiXj1RFhT2HDQCj1nQfJM2kT8zG1a5GvlHVCUL1Zxx2DVNKcE1JWUwI8iZpq+ICVfmauJPX6X/6Y+oM+//dH++To1xHHcbrQSfZ5A5Bhh3dFTawBxQHboW1i/PqyUokP6txKWCQNjhmQFM0MMajwlIP4A6hMTzFTfREQQaydcEWELSCoSawXHCNfL1g19xprukWCL0/tHrqlp/PhfHH2/UP/i7sc2z2TyR9IWx9hELLVjzqERSRuOD0LwbXf0LmBg5YcXsCAVnMiUqxYjKc1vpYhPl1L/WhjOh9JUbmvuSdR65zNMT+fE8fIWsIcRQbKgIJoUwxz2SgJXt8pQpmirOIbRi68IPnyTqla5pobZMaf66jWq5l8TLtzfNLafj5s1LpNxz6ZeoBO0Q190LqqOUvMEPtqHp30sxVtRLcsCiCMAYcoqORKdgZmIIP2rwHG1rYm0jxMSu0wiBfUweF+ELUboynktu2OclZ7Z5U/pU/kUOFcES0eeOOCjNXzj7AvqJp7M5xuH0QrjfanseeNn70rztwF4hUYsmVQevWMcwVaYZUthM9coTtJyLUZom8POh2mJ0cBMREuJJDU5/WqOsEkNbaQgAredWziBQ/+Xt/ql/qNmbzl58Emfc2Zl+CmrY/QfOeU39D3S3ancPzFlp1rSBie9KTqfyWbzlzc6avKEC482exGDbpu2netW30f97oHUk9RAuXwEkATYumRFWgCdNrnwnEJSjDP8lBIAYFbCAmtWcYYChI/WF+7m7Z4B5LxNzpFgH4OWJeFKEF30NHvIGaz6hSpPfJ7XMKX/qCkvTx7c72q/GC16KYtj9B857RDqvu9yElV7kVWflhLX0wmuWuUtpkO8s8dfeNRvBY7rz2+ddSS5zMXxeOpkz8M2BZnMUowVDcFtGRz3CW2DsyfASEVxjA2LITqQczCRSNIuEHrAUACT3oQPwOE5D8piixYJTGXL9gWA1p7H0Hot4cSTv+o/YspRMS93yaTrz3whyOu7x1p8P+30kVP/SJXAJtZe+EqiHSZccNTKZR1XHD/+gsApaMj46c/Hzf6EdPEEOcPJ9KgiJqDMBv3gD6MPj7uUKOUs3NcC7/8LmRv8mBAanMYSmCB+8GXzASBB+EiTRGHkT/hERriqxrFFBagRnF0cHjLhDMYhfBzLJzgC50twrjNd6WtxGgEcjbH8FUrH2Yce2nq234jJvzfIFoi0WI/Rd8TUk2l+d1cinuwq29zFyjedXsZ26e1z2zdkswPo1vqlyURqN/pGu2UhS/fQGikkGkIgvyHC7KJkVmiICS4RbcGBbJbHeYWYOMG5hzLUNFIqcVR71xWvZ8ChIgRRMF5TGpMEwcEPJykWSuVZjNaHkdqrB/YbNe0YqubFU67r+2gztOuEsoq6TvQFRCem762tiXV4LB6L9cbsvzmn6JWel/h+h1XX1+ezQ6gCZAo6EJ/xv2Tk6yikFEtvIR1aCTiEhCBGEIumGNzAJOJfJWnzR+WLMwgcLmD4KC4jC+h4LS2EdG1BZ7Ck0sQ0x5PzbWgHZXbfkVOf9pY7P51+a1/rCa4Q+VoT32ko6Td8yqA2ic0+oNcnsVMUy432mejQvA67damjxwbU/0rzhe0wTOB9F1AsK9w3qH9h+3AcP/JH1PhnOwUPJciGaDAcQK4JWjjLt0QYazKaWe08NLdmtYYAEoDORf6QH/IKOnmqD3lD1HlAX8wpQGfXW+e69l+amBu92tRonIlY/Mh4R+8D6sV/buO+Sfxb9RhnjJ60ec6NP0WP/nRHQfAAcomQz3vODME1NGW9mBvLQKtQOJRqgh8vAFkAOAOCxRWOh7zBSOZ82Jw2oy3HykO4QFrMuMBHcXqQgunDIZIdIw2sSJ5h7uZT1Jgm00Nb+1FpCmzI9nBUF3r/+oR+I6aen086R0+/tq9Z+TUvWWO/cY/Rb9TUYflc4pO4o52iWCYJet8FqWmOF0vuPn1I3zttGhg32kKgI/ljWknQVf7pqaM2CmikpUWNxzjgEZFACTEb4Pxn5WGRcauWCSLg4BNewG2czWcflgjJ94lCMOT9HcPU6/uNd2K5PUk/cxPJVFFpaLROPNYjlvU+7Tdy6pCiRCWABd5Wgk4NGPvwNvmmzHM0NdgJmwTmsxAhBqjQW0M7k+dNHdJveghVIhHSkZ+AM0gIYgQxeMSFIrgaEOhIKXYwqVCGmoJxFlwcAVjILOZ8gkOZbHqGk0DHf6k90uUKk6874y2SffwZo6bTu049WpXE2ugSBznqibCqpcnwiH4jp52dVw29pw85Z1lAUTy2Tj0GdUd35nO5D+hgzU6llIRdTOpS787n6ndpzinYZrAb204i5ApkSDiE3TPAKCAMegfNJ07BeL9e+tNXvjyGBeYSOZwpRLJY3fp53PeNKxzIr1jvIHxSHpHnF6HVLg8N7jMl42R3oZrdAzsUC9x7OM4uMVX94ekjpt5ejMaGNdtj9Bk5rQcdeXjaceLt8M4KmK0wQJ3uf2h3st/Uof2eLMRHINAuWOAZuIiVOc4g/QOHkKSJ+CgDJ4QsAXyYkIZ7NEC12dkRhN+/ikMUw4FEZEqZI+zrRXLm4LPwcPcvBoyagqXqJDpUvXm0vOwcdJaN3lR0Ka1czqL956OmDOm/uFgFijpGn/S0tvGYO5EMfiKdOKEzrEUml2QQ3BqnF6kNb0jW3fLoNQNXF8vAhtU0Jp2GeKZ9MlXLYFG4XO2K+H5jsxPaUBp4prFenwbzvOpkNe2r+hgc7JFA52bapejzF+BHDy+OADy3fp/Q7v1ZTpH8fNLQBTcBsw2rAl06qh2XhSbDTQ31LJYeSqpJUfmamaiHZEYT6Ama1jTaRYyScHrS4H6PD0hP3MFNJq6OV9UM5g8bR+qBRk53sjcj2y7sN3Lyo3Wd2545x/9KtggNKkOQdDodezP+/SOpno+Qx5GWoR5RtbCgkZJqPfetbFPjqdRLvBlgmo9t2bR45Yft9tk5W9ew1grakorfSwVFI718vZbX6tUZ77q6zKoxwldNd2sleG5y18aVK79RnsK7Tlea+3X+/Cu0WA7ZfGY/eodxAmfVVnfswHD62sIFTbGVV/L5NSH8Jtd43FnRYTN+wn9tbJPSZ64imiH9h8+glYuaQQbrVtCotLPEaTQ4pc2X9V8MGDX5pF2yb88jH+BhwTSegeOmdaxbo2bRCZNDdcaFDoFu28FH7HK5QdX5Ln+6P927tM3WVvpN+IpooM+4aTWJOvds6t7v4VdYRXoPXQhyA5xkctVz1W2rTr7/ilNWsGP0Hzm1PxE8BMMXeFao+N4yYv+fpJP90PVqg89BhGg2JdY3DcQc3L6s3lE5+el0VL1rqfJhJMDmIPlBPx5KKPoQExf1JluMszl50hNZr4ou9l6fTbMpvr5pII+vB9E6i5wiNHWIlpM7Be4qvCnNEkYZKc2zRuYtgtwE2ng0EEzdN546bapJC2jgm/YYLZBlWEQ2l1c7brW5+l6n9ipHbwF+/7P/qOWr6umDg9pncUB4r5234htt73/2teq2bWf11Up6YRN1Wx99uZIeayy2txLOo1QqSXlsT3nH/c895+l2+WfLV6vV9Rl6dKV0v0h3ktX2W25GZf1abdO5vfr86zqVxWe7rLB52xrVtqZKffD5CrXz9zqqZctX0ecxwzQW+XoX5SXcD4/ok26tkv3ytIPV2Ufvy4bYe6et1DnH7Ks+/0+d+oSMniFFnveT/dSR3XdmRzm6+/dV9x90VR8T7rieP1B/f+8zpvm2Ze/UoVaNPPfHarftOqt9d/6eOnyvHdWph+yu/v7+Z2rFmuILLpqPqdpUUp137H7q+dc/VJecfKB686Mv1JoGujcIb6UAml5776hOPGBX9fjL76hBx/9Ivf3xV4puIjJ+Q/hptR4Du4xH7L2T6tqpnTr/N7PUqnp8WcBTe+6wpRpyZi/1xodfEKxJ7dK1k5rx3OuU/kqNOf8oNXbqfPUv6lVeee9TlcnqFoiWuF2XzVQyEVMffrHSbKxiMoXeqJG+ZPsptVi09GhIJRPq2t8/Sb1EE7V6V/3s6P3UcT12VXfOXqjaVuuFV71v0Pa1KdWQyam6xowaN+MFLi86Fu0OtMlF/Nt27oBdM94CQq8D+Xc/+hLj4tRDVSfjqonKvW2XDtTTrCFZeP8Hnaeg3qpzhzaqHeXxIfUym7WpVivr6BOj0QJXKN1qjtFECj7l0N3VzWRoGA4KRHiPuuf51BL7HPZD7p536tpRXX7qQUYdY84/Wl1+15/V0AG91JD7/8oGHXHukTzE5Ol+y1vkQCMnzVO1ZNRxF/5EtaHunHZx1NxF76gHnnzFDFFGIEWqqxLUzdM5BhoOGjNZJY5weq892egT5i7m4Wb4z36sJj79qnrrI8rjvCPVFb/9sxGD3u3Skw9QvffZkR122VeruDdrIHk3DTpW3TZzAQ8t/Xvtpbpu0Y7KlaTdx5i6+I45NHQ2qCOI76Kf9mTej8m5O29Wqy67ay45Ueus/lrNMdCaulALWY0u2KhXt74P/71CHU9DxfnjZvH4PHvBm9yD3HzBsWrkxGd53OY1N7WnH3XbmlphQg24cRq9ptxVV/U5lHqh9up/DttD/eXld9WDT71CBkmpuy47QS1991OWI10+ss1RKx9CTobDQlXUmsF72Z2PYcvYHxqCNgs+KWt0CrLXTluqg3+4nTrvlkd4WBky4HBVRV9mRkCPgIAebI8du5BDzeVe739PO4iGm27qkeffYKe4esIT6t1ly9VZR+2jjtpvZ5OX5q7sb6s5BlwAw4koza42JoMwGH/JiGgwxOToDwFwAnEAftdtOqs5C99ip8BQgS4eIwa69C3I8fahiStCTVVS9ey2jXr9gy+oB2EQ/2CSO3bKfHbQKhqKBvx4b3XhiT1U+sFnAqJ1iP1gm07qpTc/4e4fDvHsq/9SP+nxgxAnHOvf/1nDE2zMUzCP6tqxvdpl607qyxV16v8+Xc691+PUux0X4Q0JqkCi1RwD904xlm5NLRSrEBn/YfhuNBlc9PYnZrXQnB7Qcn2fYbIObVLsUDD43EVv0+uaaNVCNBi6vl7dwD1BVB5WFFgR4XrPnEVq6pDTecwHXdC7BL1FlF/S6GXgtPBbOK3lf0LCcJPwIyg/yuv7e9EyRnnKnS6cjZU7R19+it7lOemZV9XVpx+qtmjfhh0Dw8u+3++qfrTr1mrm/Dfo22jxosqVIoL+LZrto3XBbHCui086QP1why7sdFgmLqHh47X3P+dVQteO7YhV1C9S6GWRlA//kXF2276LWt3YxA6BSeZ21PPAaB3b6eVnwBWOvfPxctWDeqTN21YrLIN77rYt925hquKptz7+UnUgvt0pb5Tj+J678vyksKTF+csBbbUeA0PIP6lbx8RuBE3qMKNPUB+PPYQh9z3NwwwqjI/OSUCL5OZPxoVT4N+Sd5axI0244iSWgTH6xTc/Vu/Q9Vd9D1V3XLIdD1cf0Lzl7+//2+oBtCQMUyNp8ooWjjkAVh3jZixgAz215D1awu5AMo7nvRNeQWCcomIgfwS5/pNWUbOe/6caf9FxPMf4gpbccCj4oZ6vMHmoN+A5C9VpJS2Nb5z0nLqMJq+AYX+Eq1rEibWU8v9y7eg8YKs5J7pedOEYAujVbbwqQKuRgCUpFAwDYIaO8RuKxkqminodKBDDD+CYm9DtIm6x4McyFhNPnO5qaMppQ4lgusIRsHS0A/JB/trsWkZ7WjquoqWjdPmgyfgrKZQPy2QYFHMmlJUO4dLKJsPDSoomtI1Eg/kLlIwyyQpMz5c8qnu12qpjW1rtfMlzKeznXNnnEHXRbY+aBmKXsRLxVusxpHIwLIxa30jv7aO47RSgwUpBgigUCpY4cDAGjEJH0o1TAA5ZcCAYmVsvgFaAMbFUbS5ABpav0XJJ/nb54LA8YaanSYRel9VfnVBGwoc8pUzopYaddYR6gzbKsLmHXmrSX19lh5ceqbkylgPHDaM1e4xyVGpDlXnigd14LvPcax+o92goFMdpjfpwc6Eutb41Mt+UZ1gDs2g/Az0Meh4MixjqWiv8P55moVyiiomEAAAAAElFTkSuQmCC;" vertex="1" parent="1">
          <mxGeometry x="718.38" y="559" width="64.98" height="59.16" as="geometry" />
        </mxCell>
        <mxCell id="Fvsey-Ng5_NLrlT-ufVr-9" value="" style="endArrow=none;html=1;rounded=0;entryX=1;entryY=0.5;entryDx=0;entryDy=0;exitX=0;exitY=0.5;exitDx=0;exitDy=0;strokeWidth=3;strokeColor=#3399FF;jumpStyle=arc;jumpSize=15;" edge="1" parent="1" source="Fvsey-Ng5_NLrlT-ufVr-1" target="Fvsey-Ng5_NLrlT-ufVr-5">
          <mxGeometry width="50" height="50" relative="1" as="geometry">
            <mxPoint x="706.38" y="399" as="sourcePoint" />
            <mxPoint x="836.38" y="389" as="targetPoint" />
          </mxGeometry>
        </mxCell>
        <mxCell id="Fvsey-Ng5_NLrlT-ufVr-10" value="" style="endArrow=none;html=1;rounded=0;entryX=1;entryY=0.5;entryDx=0;entryDy=0;exitX=0;exitY=0.5;exitDx=0;exitDy=0;strokeWidth=3;strokeColor=#FF8000;" edge="1" parent="1" source="Fvsey-Ng5_NLrlT-ufVr-3" target="Fvsey-Ng5_NLrlT-ufVr-1">
          <mxGeometry width="50" height="50" relative="1" as="geometry">
            <mxPoint x="576.38" y="281.81500000000005" as="sourcePoint" />
            <mxPoint x="467.2099999999999" y="281.81999999999994" as="targetPoint" />
          </mxGeometry>
        </mxCell>
        <mxCell id="Fvsey-Ng5_NLrlT-ufVr-11" value="" style="endArrow=none;html=1;rounded=1;entryX=0.5;entryY=0;entryDx=0;entryDy=0;exitX=0.5;exitY=1;exitDx=0;exitDy=0;strokeWidth=3;strokeColor=#FF8000;edgeStyle=orthogonalEdgeStyle;" edge="1" parent="1" source="Fvsey-Ng5_NLrlT-ufVr-3" target="Fvsey-Ng5_NLrlT-ufVr-2">
          <mxGeometry width="50" height="50" relative="1" as="geometry">
            <mxPoint x="586.38" y="291.81500000000005" as="sourcePoint" />
            <mxPoint x="477.2099999999999" y="291.81999999999994" as="targetPoint" />
          </mxGeometry>
        </mxCell>
        <mxCell id="Fvsey-Ng5_NLrlT-ufVr-12" value="" style="endArrow=none;html=1;entryX=0.5;entryY=0;entryDx=0;entryDy=0;exitX=0;exitY=0.5;exitDx=0;exitDy=0;strokeWidth=3;strokeColor=#FF8000;edgeStyle=orthogonalEdgeStyle;jumpStyle=arc;rounded=1;" edge="1" parent="1" source="Fvsey-Ng5_NLrlT-ufVr-2" target="Fvsey-Ng5_NLrlT-ufVr-7">
          <mxGeometry width="50" height="50" relative="1" as="geometry">
            <mxPoint x="596.38" y="301.81500000000005" as="sourcePoint" />
            <mxPoint x="487.2099999999999" y="301.81999999999994" as="targetPoint" />
          </mxGeometry>
        </mxCell>
        <mxCell id="Fvsey-Ng5_NLrlT-ufVr-13" value="" style="endArrow=none;html=1;rounded=1;entryX=1;entryY=0.5;entryDx=0;entryDy=0;exitX=0.5;exitY=0;exitDx=0;exitDy=0;strokeWidth=3;strokeColor=#FF8000;edgeStyle=orthogonalEdgeStyle;elbow=vertical;" edge="1" parent="1" source="Fvsey-Ng5_NLrlT-ufVr-8" target="Fvsey-Ng5_NLrlT-ufVr-2">
          <mxGeometry width="50" height="50" relative="1" as="geometry">
            <mxPoint x="606.38" y="311.81500000000005" as="sourcePoint" />
            <mxPoint x="497.2099999999999" y="311.81999999999994" as="targetPoint" />
          </mxGeometry>
        </mxCell>
        <mxCell id="Fvsey-Ng5_NLrlT-ufVr-14" value="192.168.10.30/28" style="text;html=1;strokeColor=none;fillColor=none;align=center;verticalAlign=middle;whiteSpace=wrap;rounded=0;" vertex="1" parent="1">
          <mxGeometry x="683.36" y="209" width="100" height="30" as="geometry" />
        </mxCell>
        <mxCell id="Fvsey-Ng5_NLrlT-ufVr-15" value="172.16.0.0/16" style="text;html=1;strokeColor=none;fillColor=none;align=center;verticalAlign=middle;whiteSpace=wrap;rounded=0;" vertex="1" parent="1">
          <mxGeometry x="670" y="296.82" width="76.98" height="30" as="geometry" />
        </mxCell>
        <mxCell id="Fvsey-Ng5_NLrlT-ufVr-16" value="209.110.34.22/30" style="text;html=1;strokeColor=none;fillColor=none;align=center;verticalAlign=middle;whiteSpace=wrap;rounded=0;" vertex="1" parent="1">
          <mxGeometry x="386" y="209" width="100" height="30" as="geometry" />
        </mxCell>
      </root>
    </mxGraphModel>
  </diagram>
</mxfile>
